SplineFontDB: 3.2
FontName: SmoochSans-Regular
FullName: Smooch Sans Regular
FamilyName: Smooch Sans
Weight: Book
Copyright: Copyright 2016 The Smooch Sans Project Authors (https://github.com/googlefonts/smooch-sans)
Version: 1.010
ItalicAngle: 0
UnderlinePosition: -125
UnderlineWidth: 50
Ascent: 800
Descent: 200
InvalidEm: 0
sfntRevision: 0x0001028f
LayerCount: 2
Layer: 0 1 "Back" 1
Layer: 1 1 "Fore" 0
XUID: [1021 128 -1574429811 11383280]
StyleMap: 0x0040
FSType: 0
OS2Version: 4
OS2_WeightWidthSlopeOnly: 0
OS2_UseTypoMetrics: 1
CreationTime: 1631734568
ModificationTime: 1650965618
PfmFamily: 81
TTFWeight: 400
TTFWidth: 5
LineGap: 0
VLineGap: 0
Panose: 0 0 0 0 0 0 0 0 0 0
OS2TypoAscent: 900
OS2TypoAOffset: 0
OS2TypoDescent: -300
OS2TypoDOffset: 0
OS2TypoLinegap: 0
OS2WinAscent: 1011
OS2WinAOffset: 0
OS2WinDescent: 300
OS2WinDOffset: 0
HheadAscent: 900
HheadAOffset: 0
HheadDescent: -300
HheadDOffset: 0
OS2SubXSize: 650
OS2SubYSize: 600
OS2SubXOff: 0
OS2SubYOff: 75
OS2SupXSize: 650
OS2SupYSize: 600
OS2SupXOff: 0
OS2SupYOff: 350
OS2StrikeYSize: 50
OS2StrikeYPos: 282
OS2CapHeight: 620
OS2XHeight: 470
OS2Vendor: 'GOOG'
OS2CodePages: 20000193.00000000
OS2UnicodeRanges: a00000ff.5000204b.00000000.00000000
Lookup: 1 0 0 "'aalt' Access All Alternates in Latin lookup 0" { "'aalt' Access All Alternates in Latin lookup 0 subtable"  } ['aalt' ('DFLT' <'dflt' > 'latn' <'AZE ' 'CAT ' 'CRT ' 'KAZ ' 'MOL ' 'ROM ' 'TAT ' 'TRK ' 'dflt' > ) ]
Lookup: 3 0 0 "'aalt' Access All Alternates in Latin lookup 1" { "'aalt' Access All Alternates in Latin lookup 1 subtable"  } ['aalt' ('DFLT' <'dflt' > 'latn' <'AZE ' 'CAT ' 'CRT ' 'KAZ ' 'MOL ' 'ROM ' 'TAT ' 'TRK ' 'dflt' > ) ]

StartChar: .notdef
Encoding: 65536 -1 0
Width: 494
GlyphClass: 1
Flags: W
LayerCount: 2
Fore
SplineSet
87 40 m 1,0,-1
 87 538 l 1,1,-1
 407 538 l 1,2,-1
 407 40 l 1,3,-1
 87 40 l 1,0,-1
158 117 m 1,4,-1
 241 267 l 1,5,-1
 326 117 l 1,6,-1
 339 139 l 1,7,-1
 253 290 l 1,8,-1
 339 443 l 1,9,-1
 326 466 l 1,10,-1
 241 314 l 1,11,-1
 158 465 l 1,12,-1
 147 443 l 1,13,-1
 230 292 l 1,14,-1
 147 139 l 1,15,-1
 158 117 l 1,4,-1
52 -5 m 1,16,-1
 40 7 l 1,17,-1
 40 575 l 1,18,-1
 52 587 l 1,19,-1
 443 587 l 1,20,-1
 454 575 l 1,21,-1
 454 7 l 1,22,-1
 443 -5 l 1,23,-1
 52 -5 l 1,16,-1
430 21 m 1,24,-1
 430 561 l 1,25,-1
 66 561 l 1,26,-1
 66 21 l 1,27,-1
 430 21 l 1,24,-1
EndSplineSet
EndChar

StartChar: A
Encoding: 65 65 5
Width: 376
GlyphClass: 2
Flags: W
AnchorPoint: "Anchor-3" 414 7 basechar 0
AnchorPoint: "Anchor-1" 187 0 basechar 0
AnchorPoint: "Anchor-0" 187 620 basechar 0
LayerCount: 2
Fore
SplineSet
18 0 m 1,0,-1
 150 620 l 1,1,-1
 226 620 l 1,2,-1
 356 0 l 1,3,-1
 303 0 l 1,4,-1
 271 151 l 1,5,-1
 282 141 l 1,6,-1
 91 141 l 1,7,-1
 100 151 l 1,8,-1
 70 0 l 1,9,-1
 18 0 l 1,0,-1
101 176 m 1,10,-1
 96 182 l 1,11,-1
 278 182 l 1,12,-1
 271 176 l 1,13,-1
 198 555 l 1,14,-1
 196 562 l 1,15,-1
 179 562 l 1,16,-1
 177 555 l 1,17,-1
 101 176 l 1,10,-1
EndSplineSet
Substitution2: "Single Substitution lookup 23 subtable" ordfeminine
Substitution2: "'aalt' Access All Alternates in Latin lookup 0 subtable" ordfeminine
EndChar

StartChar: AE
Encoding: 198 198 6
Width: 586
GlyphClass: 2
Flags: W
AnchorPoint: "Anchor-1" 293 0 basechar 0
AnchorPoint: "Anchor-0" 293 620 basechar 0
LayerCount: 2
Fore
SplineSet
273 620 m 1,0,-1
 556 620 l 1,1,-1
 556 579 l 1,2,-1
 325 579 l 1,3,-1
 325 369 l 1,4,-1
 539 369 l 1,5,-1
 531 329 l 1,6,-1
 325 329 l 1,7,-1
 325 40 l 1,8,-1
 556 40 l 1,9,-1
 556 0 l 1,10,-1
 273 0 l 1,11,-1
 273 620 l 1,0,-1
70 141 m 1,12,-1
 70 182 l 1,13,-1
 288 182 l 1,14,-1
 288 141 l 1,15,-1
 70 141 l 1,12,-1
18 0 m 1,16,-1
 165 620 l 1,17,-1
 210 620 l 1,18,-1
 69 0 l 1,19,-1
 18 0 l 1,16,-1
173 579 m 1,20,-1
 173 620 l 1,21,-1
 286 620 l 1,22,-1
 286 579 l 1,23,-1
 173 579 l 1,20,-1
EndSplineSet
EndChar

StartChar: uni01CD
Encoding: 461 461 15
Width: 376
GlyphClass: 2
Flags: W
AnchorPoint: "Anchor-3" 414 7 basechar 0
AnchorPoint: "Anchor-1" 187 0 basechar 0
AnchorPoint: "Anchor-0" 187 779 basechar 0
LayerCount: 2
Fore
SplineSet
77 773 m 1,0,-1
 114 773 l 1,1,-1
 187 710 l 1,2,-1
 260 773 l 1,3,-1
 296 773 l 1,4,-1
 212 684 l 1,5,-1
 161 684 l 1,6,-1
 77 773 l 1,0,-1
18 0 m 1,7,-1
 150 620 l 1,8,-1
 226 620 l 1,9,-1
 356 0 l 1,10,-1
 303 0 l 1,11,-1
 271 151 l 1,12,-1
 282 141 l 1,13,-1
 91 141 l 1,14,-1
 100 151 l 1,15,-1
 70 0 l 1,16,-1
 18 0 l 1,7,-1
101 176 m 1,17,-1
 96 182 l 1,18,-1
 278 182 l 1,19,-1
 271 176 l 1,20,-1
 198 555 l 1,21,-1
 196 562 l 1,22,-1
 179 562 l 1,23,-1
 177 555 l 1,24,-1
 101 176 l 1,17,-1
EndSplineSet
EndChar

StartChar: uni0202
Encoding: 514 514 27
Width: 376
GlyphClass: 2
Flags: W
AnchorPoint: "Anchor-3" 414 7 basechar 0
AnchorPoint: "Anchor-1" 187 0 basechar 0
AnchorPoint: "Anchor-0" 187 771 basechar 0
LayerCount: 2
Fore
SplineSet
185 772 m 0,0,1
 239 772 239 772 262 745 c 128,-1,2
 285 718 285 718 285 680 c 1,3,-1
 253 680 l 1,4,5
 253 707 253 707 238 725.5 c 128,-1,6
 223 744 223 744 185 744 c 0,7,8
 150 744 150 744 135.5 724.5 c 128,-1,9
 121 705 121 705 121 680 c 1,10,-1
 89 680 l 1,11,12
 89 701 89 701 97 722 c 128,-1,13
 105 743 105 743 126 757.5 c 128,-1,14
 147 772 147 772 185 772 c 0,0,1
18 0 m 1,15,-1
 150 620 l 1,16,-1
 226 620 l 1,17,-1
 356 0 l 1,18,-1
 303 0 l 1,19,-1
 271 151 l 1,20,-1
 282 141 l 1,21,-1
 91 141 l 1,22,-1
 100 151 l 1,23,-1
 70 0 l 1,24,-1
 18 0 l 1,15,-1
101 176 m 1,25,-1
 96 182 l 1,26,-1
 278 182 l 1,27,-1
 271 176 l 1,28,-1
 198 555 l 1,29,-1
 196 562 l 1,30,-1
 179 562 l 1,31,-1
 177 555 l 1,32,-1
 101 176 l 1,25,-1
EndSplineSet
EndChar

StartChar: B
Encoding: 66 66 33
Width: 388
GlyphClass: 1
Flags: W
LayerCount: 2
Fore
SplineSet
58 0 m 1,0,-1
 58 620 l 1,1,-1
 220 620 l 2,2,3
 262 620 262 620 286.5 612 c 128,-1,4
 311 604 311 604 321.5 582 c 128,-1,5
 332 560 332 560 332 518 c 2,6,-1
 332 463 l 2,7,8
 332 428 332 428 321 402.5 c 128,-1,9
 310 377 310 377 293.5 363.5 c 128,-1,10
 277 350 277 350 260 347 c 1,11,-1
 261 346 l 1,12,13
 290 342 290 342 307.5 327.5 c 128,-1,14
 325 313 325 313 333 291 c 128,-1,15
 341 269 341 269 341 239 c 2,16,-1
 341 121 l 2,17,18
 341 76 341 76 332.5 49.5 c 128,-1,19
 324 23 324 23 299 11.5 c 128,-1,20
 274 0 274 0 227 0 c 2,21,-1
 58 0 l 1,0,-1
110 41 m 1,22,-1
 212 41 l 2,23,24
 238 41 238 41 255 46.5 c 128,-1,25
 272 52 272 52 280 70.5 c 128,-1,26
 288 89 288 89 288 127 c 2,27,-1
 288 245 l 2,28,29
 288 287 288 287 262 304.5 c 128,-1,30
 236 322 236 322 197 322 c 2,31,-1
 110 322 l 1,32,-1
 110 41 l 1,22,-1
110 363 m 1,33,-1
 208 363 l 2,34,35
 225 363 225 363 242 371.5 c 128,-1,36
 259 380 259 380 270 401 c 128,-1,37
 281 422 281 422 281 461 c 2,38,-1
 281 497 l 2,39,40
 281 529 281 529 277 547.5 c 128,-1,41
 273 566 273 566 257.5 574 c 128,-1,42
 242 582 242 582 209 582 c 2,43,-1
 110 582 l 1,44,-1
 110 363 l 1,33,-1
EndSplineSet
EndChar

StartChar: C
Encoding: 67 67 34
Width: 371
GlyphClass: 2
Flags: W
AnchorPoint: "Anchor-1" 186 0 basechar 0
AnchorPoint: "Anchor-0" 186 620 basechar 0
LayerCount: 2
Fore
SplineSet
188 -6 m 0,0,1
 119 -6 119 -6 84 20 c 128,-1,2
 49 46 49 46 49 98 c 2,3,-1
 49 516 l 2,4,5
 49 572 49 572 81 600 c 128,-1,6
 113 628 113 628 185 628 c 0,7,8
 259 628 259 628 293.5 601 c 128,-1,9
 328 574 328 574 328 515 c 2,10,-1
 328 383 l 1,11,-1
 277 375 l 1,12,-1
 277 504 l 2,13,14
 277 541 277 541 259 563 c 128,-1,15
 241 585 241 585 187 585 c 0,16,17
 136 585 136 585 118 562.5 c 128,-1,18
 100 540 100 540 100 505 c 2,19,-1
 100 108 l 2,20,21
 100 77 100 77 120.5 56.5 c 128,-1,22
 141 36 141 36 187 36 c 0,23,24
 235 36 235 36 256 56.5 c 128,-1,25
 277 77 277 77 277 109 c 2,26,-1
 277 231 l 1,27,-1
 328 239 l 1,28,-1
 328 98 l 2,29,30
 328 46 328 46 291.5 20 c 128,-1,31
 255 -6 255 -6 188 -6 c 0,0,1
EndSplineSet
EndChar

StartChar: Ccaron
Encoding: 268 268 36
Width: 371
GlyphClass: 2
Flags: W
AnchorPoint: "Anchor-1" 186 0 basechar 0
AnchorPoint: "Anchor-0" 186 779 basechar 0
LayerCount: 2
Fore
SplineSet
76 773 m 1,0,-1
 113 773 l 1,1,-1
 186 710 l 1,2,-1
 259 773 l 1,3,-1
 295 773 l 1,4,-1
 211 684 l 1,5,-1
 160 684 l 1,6,-1
 76 773 l 1,0,-1
188 -6 m 0,7,8
 119 -6 119 -6 84 20 c 128,-1,9
 49 46 49 46 49 98 c 2,10,-1
 49 516 l 2,11,12
 49 572 49 572 81 600 c 128,-1,13
 113 628 113 628 185 628 c 0,14,15
 259 628 259 628 293.5 601 c 128,-1,16
 328 574 328 574 328 515 c 2,17,-1
 328 383 l 1,18,-1
 277 375 l 1,19,-1
 277 504 l 2,20,21
 277 541 277 541 259 563 c 128,-1,22
 241 585 241 585 187 585 c 0,23,24
 136 585 136 585 118 562.5 c 128,-1,25
 100 540 100 540 100 505 c 2,26,-1
 100 108 l 2,27,28
 100 77 100 77 120.5 56.5 c 128,-1,29
 141 36 141 36 187 36 c 0,30,31
 235 36 235 36 256 56.5 c 128,-1,32
 277 77 277 77 277 109 c 2,33,-1
 277 231 l 1,34,-1
 328 239 l 1,35,-1
 328 98 l 2,36,37
 328 46 328 46 291.5 20 c 128,-1,38
 255 -6 255 -6 188 -6 c 0,7,8
EndSplineSet
EndChar

StartChar: D
Encoding: 68 68 40
Width: 388
GlyphClass: 2
Flags: W
AnchorPoint: "Anchor-4" 195 310 basechar 0
AnchorPoint: "Anchor-1" 195 0 basechar 0
AnchorPoint: "Anchor-0" 195 620 basechar 0
LayerCount: 2
Fore
SplineSet
58 620 m 1,0,-1
 255 620 l 2,1,2
 302 620 302 620 320.5 595.5 c 128,-1,3
 339 571 339 571 339 524 c 2,4,-1
 339 97 l 2,5,6
 339 45 339 45 322 22.5 c 128,-1,7
 305 0 305 0 249 0 c 2,8,-1
 58 0 l 1,9,-1
 58 620 l 1,0,-1
220 41 m 2,10,11
 260 41 260 41 274 55.5 c 128,-1,12
 288 70 288 70 288 111 c 2,13,-1
 288 510 l 2,14,15
 288 545 288 545 272.5 562 c 128,-1,16
 257 579 257 579 228 579 c 2,17,-1
 109 579 l 1,18,-1
 109 41 l 1,19,-1
 220 41 l 2,10,11
EndSplineSet
EndChar

StartChar: uni01C4
Encoding: 452 452 41
Width: 685
GlyphClass: 2
Flags: W
LayerCount: 2
Fore
SplineSet
426 773 m 1,0,-1
 463 773 l 1,1,-1
 536 710 l 1,2,-1
 610 773 l 1,3,-1
 645 773 l 1,4,-1
 561 684 l 1,5,-1
 510 684 l 1,6,-1
 426 773 l 1,0,-1
58 620 m 1,7,-1
 255 620 l 2,8,9
 302 620 302 620 320.5 595.5 c 128,-1,10
 339 571 339 571 339 524 c 2,11,-1
 339 97 l 2,12,13
 339 45 339 45 322 22.5 c 128,-1,14
 305 0 305 0 249 0 c 2,15,-1
 58 0 l 1,16,-1
 58 620 l 1,7,-1
220 41 m 2,17,18
 260 41 260 41 274 55.5 c 128,-1,19
 288 70 288 70 288 111 c 2,20,-1
 288 510 l 2,21,22
 288 545 288 545 272.5 562 c 128,-1,23
 257 579 257 579 228 579 c 2,24,-1
 109 579 l 1,25,-1
 109 41 l 1,26,-1
 220 41 l 2,17,18
399 0 m 1,27,-1
 596 579 l 1,28,-1
 414 579 l 1,29,-1
 414 620 l 1,30,-1
 660 620 l 1,31,-1
 463 41 l 1,32,-1
 666 41 l 1,33,-1
 666 0 l 1,34,-1
 399 0 l 1,27,-1
EndSplineSet
EndChar

StartChar: Dcaron
Encoding: 270 270 42
Width: 388
GlyphClass: 2
Flags: W
AnchorPoint: "Anchor-4" 195 310 basechar 0
AnchorPoint: "Anchor-1" 195 0 basechar 0
AnchorPoint: "Anchor-0" 195 779 basechar 0
LayerCount: 2
Fore
SplineSet
85 773 m 1,0,-1
 122 773 l 1,1,-1
 195 710 l 1,2,-1
 269 773 l 1,3,-1
 304 773 l 1,4,-1
 220 684 l 1,5,-1
 169 684 l 1,6,-1
 85 773 l 1,0,-1
58 620 m 1,7,-1
 255 620 l 2,8,9
 302 620 302 620 320.5 595.5 c 128,-1,10
 339 571 339 571 339 524 c 2,11,-1
 339 97 l 2,12,13
 339 45 339 45 322 22.5 c 128,-1,14
 305 0 305 0 249 0 c 2,15,-1
 58 0 l 1,16,-1
 58 620 l 1,7,-1
220 41 m 2,17,18
 260 41 260 41 274 55.5 c 128,-1,19
 288 70 288 70 288 111 c 2,20,-1
 288 510 l 2,21,22
 288 545 288 545 272.5 562 c 128,-1,23
 257 579 257 579 228 579 c 2,24,-1
 109 579 l 1,25,-1
 109 41 l 1,26,-1
 220 41 l 2,17,18
EndSplineSet
EndChar

StartChar: Dcroat
Encoding: 272 272 43
Width: 388
GlyphClass: 2
Flags: W
AnchorPoint: "Anchor-4" 195 310 basechar 0
AnchorPoint: "Anchor-1" 195 0 basechar 0
AnchorPoint: "Anchor-0" 195 620 basechar 0
LayerCount: 2
Fore
SplineSet
-5 191 m 1,0,-1
 -5 233 l 1,1,-1
 153 233 l 1,2,-1
 153 191 l 1,3,-1
 -5 191 l 1,0,-1
58 620 m 1,4,-1
 255 620 l 2,5,6
 302 620 302 620 320.5 595.5 c 128,-1,7
 339 571 339 571 339 524 c 2,8,-1
 339 97 l 2,9,10
 339 45 339 45 322 22.5 c 128,-1,11
 305 0 305 0 249 0 c 2,12,-1
 58 0 l 1,13,-1
 58 620 l 1,4,-1
220 41 m 2,14,15
 260 41 260 41 274 55.5 c 128,-1,16
 288 70 288 70 288 111 c 2,17,-1
 288 510 l 2,18,19
 288 545 288 545 272.5 562 c 128,-1,20
 257 579 257 579 228 579 c 2,21,-1
 109 579 l 1,22,-1
 109 41 l 1,23,-1
 220 41 l 2,14,15
EndSplineSet
EndChar

StartChar: uni01C5
Encoding: 453 453 44
Width: 680
GlyphClass: 2
Flags: W
LayerCount: 2
Fore
SplineSet
424 623 m 1,0,-1
 461 623 l 1,1,-1
 535 560 l 1,2,-1
 608 623 l 1,3,-1
 643 623 l 1,4,-1
 559 534 l 1,5,-1
 509 534 l 1,6,-1
 424 623 l 1,0,-1
58 620 m 1,7,-1
 255 620 l 2,8,9
 302 620 302 620 320.5 595.5 c 128,-1,10
 339 571 339 571 339 524 c 2,11,-1
 339 97 l 2,12,13
 339 45 339 45 322 22.5 c 128,-1,14
 305 0 305 0 249 0 c 2,15,-1
 58 0 l 1,16,-1
 58 620 l 1,7,-1
220 41 m 2,17,18
 260 41 260 41 274 55.5 c 128,-1,19
 288 70 288 70 288 111 c 2,20,-1
 288 510 l 2,21,22
 288 545 288 545 272.5 562 c 128,-1,23
 257 579 257 579 228 579 c 2,24,-1
 109 579 l 1,25,-1
 109 41 l 1,26,-1
 220 41 l 2,17,18
407 9 m 1,27,-1
 598 429 l 1,28,-1
 411 429 l 1,29,-1
 421 470 l 1,30,-1
 653 470 l 1,31,-1
 653 443 l 1,32,-1
 471 41 l 1,33,-1
 662 41 l 1,34,-1
 644 0 l 1,35,-1
 407 0 l 1,36,-1
 407 9 l 1,27,-1
EndSplineSet
EndChar

StartChar: E
Encoding: 69 69 45
Width: 364
GlyphClass: 2
Flags: W
AnchorPoint: "Anchor-3" 394 8 basechar 0
AnchorPoint: "Anchor-1" 184 0 basechar 0
AnchorPoint: "Anchor-0" 184 620 basechar 0
LayerCount: 2
Fore
SplineSet
58 620 m 1,0,-1
 334 620 l 1,1,-1
 334 579 l 1,2,-1
 109 579 l 1,3,-1
 109 369 l 1,4,-1
 318 369 l 1,5,-1
 310 329 l 1,6,-1
 109 329 l 1,7,-1
 109 40 l 1,8,-1
 334 40 l 1,9,-1
 334 0 l 1,10,-1
 58 0 l 1,11,-1
 58 620 l 1,0,-1
EndSplineSet
EndChar

StartChar: Ecaron
Encoding: 282 282 48
Width: 364
GlyphClass: 2
Flags: W
AnchorPoint: "Anchor-3" 394 8 basechar 0
AnchorPoint: "Anchor-1" 184 0 basechar 0
AnchorPoint: "Anchor-0" 184 779 basechar 0
LayerCount: 2
Fore
SplineSet
74 773 m 1,0,-1
 111 773 l 1,1,-1
 184 710 l 1,2,-1
 257 773 l 1,3,-1
 293 773 l 1,4,-1
 209 684 l 1,5,-1
 158 684 l 1,6,-1
 74 773 l 1,0,-1
58 620 m 1,7,-1
 334 620 l 1,8,-1
 334 579 l 1,9,-1
 109 579 l 1,10,-1
 109 369 l 1,11,-1
 318 369 l 1,12,-1
 310 329 l 1,13,-1
 109 329 l 1,14,-1
 109 40 l 1,15,-1
 334 40 l 1,16,-1
 334 0 l 1,17,-1
 58 0 l 1,18,-1
 58 620 l 1,7,-1
EndSplineSet
EndChar

StartChar: uni0206
Encoding: 518 518 61
Width: 364
GlyphClass: 2
Flags: W
AnchorPoint: "Anchor-3" 394 8 basechar 0
AnchorPoint: "Anchor-1" 184 0 basechar 0
AnchorPoint: "Anchor-0" 184 771 basechar 0
LayerCount: 2
Fore
SplineSet
182 772 m 0,0,1
 236 772 236 772 259 745 c 128,-1,2
 282 718 282 718 282 680 c 1,3,-1
 250 680 l 1,4,5
 250 707 250 707 235 725.5 c 128,-1,6
 220 744 220 744 182 744 c 0,7,8
 147 744 147 744 132.5 724.5 c 128,-1,9
 118 705 118 705 118 680 c 1,10,-1
 86 680 l 1,11,12
 86 701 86 701 94 722 c 128,-1,13
 102 743 102 743 123 757.5 c 128,-1,14
 144 772 144 772 182 772 c 0,0,1
58 620 m 1,15,-1
 334 620 l 1,16,-1
 334 579 l 1,17,-1
 109 579 l 1,18,-1
 109 369 l 1,19,-1
 318 369 l 1,20,-1
 310 329 l 1,21,-1
 109 329 l 1,22,-1
 109 40 l 1,23,-1
 334 40 l 1,24,-1
 334 0 l 1,25,-1
 58 0 l 1,26,-1
 58 620 l 1,15,-1
EndSplineSet
EndChar

StartChar: Eng
Encoding: 330 330 63
Width: 406
GlyphClass: 1
Flags: W
LayerCount: 2
Fore
SplineSet
196 -179 m 1,0,-1
 189 -139 l 1,1,-1
 253 -139 l 2,2,3
 280 -139 280 -139 289 -125 c 128,-1,4
 298 -111 298 -111 298 -84 c 2,5,-1
 298 -13 l 1,6,-1
 112 485 l 1,7,-1
 110 491 l 1,8,-1
 109 492 l 1,9,-1
 109 0 l 1,10,-1
 58 0 l 1,11,-1
 58 620 l 1,12,-1
 110 620 l 1,13,-1
 295 109 l 1,14,-1
 296 103 l 1,15,-1
 297 102 l 1,16,-1
 297 620 l 1,17,-1
 348 620 l 1,18,-1
 348 -90 l 2,19,20
 348 -136 348 -136 331 -157.5 c 128,-1,21
 314 -179 314 -179 269 -179 c 2,22,-1
 196 -179 l 1,0,-1
EndSplineSet
EndChar

StartChar: Eth
Encoding: 208 208 65
Width: 389
GlyphClass: 1
Flags: W
LayerCount: 2
Fore
SplineSet
66 620 m 1,0,-1
 265 620 l 2,1,2
 312 620 312 620 331.5 595.5 c 128,-1,3
 351 571 351 571 351 524 c 2,4,-1
 351 97 l 2,5,6
 351 45 351 45 334 22.5 c 128,-1,7
 317 0 317 0 260 0 c 2,8,-1
 66 0 l 1,9,-1
 66 620 l 1,0,-1
6 184 m 1,10,-1
 6 214 l 1,11,-1
 215 214 l 1,12,-1
 215 184 l 1,13,-1
 6 184 l 1,10,-1
232 41 m 2,14,15
 272 41 272 41 286 55.5 c 128,-1,16
 300 70 300 70 300 111 c 2,17,-1
 300 510 l 2,18,19
 300 545 300 545 284 562 c 128,-1,20
 268 579 268 579 239 579 c 2,21,-1
 118 579 l 1,22,-1
 118 41 l 1,23,-1
 232 41 l 2,14,15
EndSplineSet
EndChar

StartChar: F
Encoding: 70 70 67
Width: 360
GlyphClass: 1
Flags: W
LayerCount: 2
Fore
SplineSet
58 620 m 1,0,-1
 334 620 l 1,1,-1
 334 579 l 1,2,-1
 109 579 l 1,3,-1
 109 369 l 1,4,-1
 318 369 l 1,5,-1
 310 329 l 1,6,-1
 109 329 l 1,7,-1
 109 0 l 1,8,-1
 58 0 l 1,9,-1
 58 620 l 1,0,-1
EndSplineSet
EndChar

StartChar: G
Encoding: 71 71 68
Width: 377
GlyphClass: 2
Flags: W
AnchorPoint: "Anchor-1" 188 0 basechar 0
AnchorPoint: "Anchor-0" 188 620 basechar 0
LayerCount: 2
Fore
SplineSet
193 -3 m 0,0,1
 147 -3 147 -3 114.5 4.5 c 128,-1,2
 82 12 82 12 65.5 32.5 c 128,-1,3
 49 53 49 53 49 90 c 2,4,-1
 49 531 l 2,5,6
 49 587 49 587 86.5 605.5 c 128,-1,7
 124 624 124 624 193 624 c 0,8,9
 260 624 260 624 295.5 605 c 128,-1,10
 331 586 331 586 331 530 c 2,11,-1
 331 424 l 1,12,-1
 280 419 l 1,13,-1
 280 521 l 2,14,15
 280 559 280 559 257.5 571 c 128,-1,16
 235 583 235 583 193 583 c 256,17,18
 151 583 151 583 125.5 572 c 128,-1,19
 100 561 100 561 100 522 c 2,20,-1
 100 97 l 2,21,22
 100 71 100 71 111.5 58.5 c 128,-1,23
 123 46 123 46 144.5 42.5 c 128,-1,24
 166 39 166 39 193 39 c 256,25,26
 220 39 220 39 239.5 42.5 c 128,-1,27
 259 46 259 46 270 58.5 c 128,-1,28
 281 71 281 71 281 97 c 2,29,-1
 281 290 l 1,30,-1
 171 290 l 1,31,-1
 177 333 l 1,32,-1
 331 333 l 1,33,-1
 331 90 l 2,34,35
 331 53 331 53 315 32.5 c 128,-1,36
 299 12 299 12 268 4.5 c 128,-1,37
 237 -3 237 -3 193 -3 c 0,0,1
EndSplineSet
EndChar

StartChar: Gcaron
Encoding: 486 486 70
Width: 377
GlyphClass: 2
Flags: W
AnchorPoint: "Anchor-1" 188 0 basechar 0
AnchorPoint: "Anchor-0" 188 779 basechar 0
LayerCount: 2
Fore
SplineSet
77 773 m 1,0,-1
 114 773 l 1,1,-1
 188 710 l 1,2,-1
 261 773 l 1,3,-1
 296 773 l 1,4,-1
 212 684 l 1,5,-1
 162 684 l 1,6,-1
 77 773 l 1,0,-1
193 -3 m 0,7,8
 147 -3 147 -3 114.5 4.5 c 128,-1,9
 82 12 82 12 65.5 32.5 c 128,-1,10
 49 53 49 53 49 90 c 2,11,-1
 49 531 l 2,12,13
 49 587 49 587 86.5 605.5 c 128,-1,14
 124 624 124 624 193 624 c 0,15,16
 260 624 260 624 295.5 605 c 128,-1,17
 331 586 331 586 331 530 c 2,18,-1
 331 424 l 1,19,-1
 280 419 l 1,20,-1
 280 521 l 2,21,22
 280 559 280 559 257.5 571 c 128,-1,23
 235 583 235 583 193 583 c 256,24,25
 151 583 151 583 125.5 572 c 128,-1,26
 100 561 100 561 100 522 c 2,27,-1
 100 97 l 2,28,29
 100 71 100 71 111.5 58.5 c 128,-1,30
 123 46 123 46 144.5 42.5 c 128,-1,31
 166 39 166 39 193 39 c 256,32,33
 220 39 220 39 239.5 42.5 c 128,-1,34
 259 46 259 46 270 58.5 c 128,-1,35
 281 71 281 71 281 97 c 2,36,-1
 281 290 l 1,37,-1
 171 290 l 1,38,-1
 177 333 l 1,39,-1
 331 333 l 1,40,-1
 331 90 l 2,41,42
 331 53 331 53 315 32.5 c 128,-1,43
 299 12 299 12 268 4.5 c 128,-1,44
 237 -3 237 -3 193 -3 c 0,7,8
EndSplineSet
EndChar

StartChar: uni1E9E
Encoding: 7838 7838 74
Width: 459
GlyphClass: 1
Flags: W
LayerCount: 2
Fore
SplineSet
272 -6 m 0,0,1
 201 -6 201 -6 170.5 23.5 c 128,-1,2
 140 53 140 53 140 112 c 1,3,-1
 186 117 l 1,4,5
 186 93 186 93 192.5 73 c 128,-1,6
 199 53 199 53 217.5 41 c 128,-1,7
 236 29 236 29 272 29 c 0,8,9
 314 29 314 29 338.5 44 c 128,-1,10
 363 59 363 59 363 108 c 0,11,12
 363 135 363 135 360 152 c 128,-1,13
 357 169 357 169 346 183.5 c 128,-1,14
 335 198 335 198 310 216 c 0,15,16
 296 224 296 224 275 236 c 128,-1,17
 254 248 254 248 236 259 c 0,18,19
 214 272 214 272 199.5 284 c 128,-1,20
 185 296 185 296 177.5 313 c 128,-1,21
 170 330 170 330 170 354 c 0,22,23
 170 381 170 381 180 401 c 128,-1,24
 190 421 190 421 214 444 c 2,25,-1
 259 484 l 2,26,27
 275 499 275 499 283 513.5 c 128,-1,28
 291 528 291 528 291 547 c 0,29,30
 291 574 291 574 270.5 583.5 c 128,-1,31
 250 593 250 593 217 593 c 2,32,-1
 181 593 l 2,33,34
 136 593 136 593 122.5 580.5 c 128,-1,35
 109 568 109 568 109 530 c 2,36,-1
 109 0 l 1,37,-1
 59 0 l 1,38,-1
 58 538 l 2,39,40
 58 586 58 586 78.5 604 c 128,-1,41
 99 622 99 622 159 622 c 2,42,-1
 234 622 l 2,43,44
 285 622 285 622 312 605.5 c 128,-1,45
 339 589 339 589 339 553 c 0,46,47
 339 525 339 525 331 506 c 128,-1,48
 323 487 323 487 305 469 c 2,49,-1
 250 418 l 2,50,51
 235 402 235 402 225.5 387 c 128,-1,52
 216 372 216 372 216 354 c 0,53,54
 216 335 216 335 226.5 320 c 128,-1,55
 237 305 237 305 260 292 c 0,56,57
 279 282 279 282 293.5 273.5 c 128,-1,58
 308 265 308 265 319.5 258.5 c 128,-1,59
 331 252 331 252 340 247 c 0,60,61
 370 227 370 227 385 209.5 c 128,-1,62
 400 192 400 192 404.5 171 c 128,-1,63
 409 150 409 150 409 118 c 0,64,65
 409 51 409 51 378.5 22.5 c 128,-1,66
 348 -6 348 -6 272 -6 c 0,0,1
EndSplineSet
EndChar

StartChar: H
Encoding: 72 72 75
Width: 397
GlyphClass: 2
Flags: W
AnchorPoint: "Anchor-4" 199 310 basechar 0
AnchorPoint: "Anchor-1" 199 0 basechar 0
AnchorPoint: "Anchor-0" 199 620 basechar 0
LayerCount: 2
Fore
SplineSet
58 620 m 1,0,-1
 109 620 l 1,1,-1
 109 369 l 1,2,-1
 288 369 l 1,3,-1
 288 620 l 1,4,-1
 339 620 l 1,5,-1
 339 0 l 1,6,-1
 288 0 l 1,7,-1
 288 329 l 1,8,-1
 109 329 l 1,9,-1
 109 0 l 1,10,-1
 58 0 l 1,11,-1
 58 620 l 1,0,-1
EndSplineSet
EndChar

StartChar: Hbar
Encoding: 294 294 76
Width: 379
GlyphClass: 2
Flags: W
AnchorPoint: "Anchor-4" 215 310 basechar 0
AnchorPoint: "Anchor-1" 215 0 basechar 0
AnchorPoint: "Anchor-0" 215 620 basechar 0
LayerCount: 2
Fore
SplineSet
9 514 m 1,0,-1
 9 551 l 1,1,-1
 372 551 l 1,2,-1
 372 514 l 1,3,-1
 9 514 l 1,0,-1
75 620 m 1,4,-1
 126 620 l 1,5,-1
 126 369 l 1,6,-1
 304 369 l 1,7,-1
 304 620 l 1,8,-1
 355 620 l 1,9,-1
 355 0 l 1,10,-1
 304 0 l 1,11,-1
 304 329 l 1,12,-1
 126 329 l 1,13,-1
 126 0 l 1,14,-1
 75 0 l 1,15,-1
 75 620 l 1,4,-1
EndSplineSet
EndChar

StartChar: I
Encoding: 73 73 78
Width: 168
GlyphClass: 2
Flags: W
AnchorPoint: "Anchor-3" 168 12 basechar 0
AnchorPoint: "Anchor-1" 84 0 basechar 0
AnchorPoint: "Anchor-0" 84 620 basechar 0
LayerCount: 2
Fore
SplineSet
58 620 m 1,0,-1
 109 620 l 1,1,-1
 109 0 l 1,2,-1
 58 0 l 1,3,-1
 58 620 l 1,0,-1
EndSplineSet
EndChar

StartChar: uni01CF
Encoding: 463 463 81
Width: 168
GlyphClass: 2
Flags: W
AnchorPoint: "Anchor-3" 168 12 basechar 0
AnchorPoint: "Anchor-1" 84 0 basechar 0
AnchorPoint: "Anchor-0" 84 779 basechar 0
LayerCount: 2
Fore
SplineSet
-26 773 m 1,0,-1
 11 773 l 1,1,-1
 84 710 l 1,2,-1
 157 773 l 1,3,-1
 193 773 l 1,4,-1
 108 684 l 1,5,-1
 58 684 l 1,6,-1
 -26 773 l 1,0,-1
58 620 m 1,7,-1
 109 620 l 1,8,-1
 109 0 l 1,9,-1
 58 0 l 1,10,-1
 58 620 l 1,7,-1
EndSplineSet
EndChar

StartChar: uni020A
Encoding: 522 522 89
Width: 168
GlyphClass: 2
Flags: W
AnchorPoint: "Anchor-3" 168 12 basechar 0
AnchorPoint: "Anchor-1" 84 0 basechar 0
AnchorPoint: "Anchor-0" 84 771 basechar 0
LayerCount: 2
Fore
SplineSet
81 772 m 0,0,1
 136 772 136 772 159 745 c 128,-1,2
 182 718 182 718 182 680 c 1,3,-1
 150 680 l 1,4,5
 150 707 150 707 135 725.5 c 128,-1,6
 120 744 120 744 82 744 c 0,7,8
 47 744 47 744 32.5 724.5 c 128,-1,9
 18 705 18 705 18 680 c 1,10,-1
 -14 680 l 1,11,12
 -14 701 -14 701 -6 722 c 128,-1,13
 2 743 2 743 23 757.5 c 128,-1,14
 44 772 44 772 81 772 c 0,0,1
58 620 m 1,15,-1
 109 620 l 1,16,-1
 109 0 l 1,17,-1
 58 0 l 1,18,-1
 58 620 l 1,15,-1
EndSplineSet
EndChar

StartChar: J
Encoding: 74 74 93
Width: 194
GlyphClass: 2
Flags: W
AnchorPoint: "Anchor-1" 93 0 basechar 0
AnchorPoint: "Anchor-0" 114 620 basechar 0
LayerCount: 2
Fore
SplineSet
8 0 m 1,0,-1
 0 41 l 1,1,-1
 51 41 l 2,2,3
 70 41 70 41 78 46 c 128,-1,4
 86 51 86 51 87.5 66 c 128,-1,5
 89 81 89 81 89 112 c 2,6,-1
 89 620 l 1,7,-1
 139 620 l 1,8,-1
 139 98 l 2,9,10
 139 57 139 57 135.5 35.5 c 128,-1,11
 132 14 132 14 115.5 7 c 128,-1,12
 99 0 99 0 61 0 c 2,13,-1
 8 0 l 1,0,-1
EndSplineSet
EndChar

StartChar: K
Encoding: 75 75 95
Width: 362
GlyphClass: 2
Flags: W
AnchorPoint: "Anchor-1" 184 0 basechar 0
AnchorPoint: "Anchor-0" 184 620 basechar 0
LayerCount: 2
Fore
SplineSet
306 -9 m 1,0,-1
 126 334 l 1,1,-1
 295 625 l 1,2,-1
 334 601 l 1,3,-1
 179 337 l 1,4,-1
 352 14 l 1,5,-1
 306 -9 l 1,0,-1
58 620 m 1,6,-1
 110 620 l 1,7,-1
 110 0 l 1,8,-1
 58 0 l 1,9,-1
 58 620 l 1,6,-1
EndSplineSet
EndChar

StartChar: L
Encoding: 76 76 97
Width: 324
GlyphClass: 2
Flags: W
AnchorPoint: "Anchor-4" 167 310 basechar 0
AnchorPoint: "Anchor-2" 175 648 basechar 0
AnchorPoint: "Anchor-1" 180 0 basechar 0
AnchorPoint: "Anchor-0" 106 620 basechar 0
LayerCount: 2
Fore
SplineSet
58 620 m 1,0,-1
 109 620 l 1,1,-1
 109 40 l 1,2,-1
 310 40 l 1,3,-1
 310 0 l 1,4,-1
 58 0 l 1,5,-1
 58 620 l 1,0,-1
EndSplineSet
EndChar

StartChar: Lslash
Encoding: 321 321 104
Width: 342
GlyphClass: 2
Flags: W
AnchorPoint: "Anchor-4" 153 310 basechar 0
AnchorPoint: "Anchor-2" 162 648 basechar 0
AnchorPoint: "Anchor-1" 167 0 basechar 0
AnchorPoint: "Anchor-0" 93 620 basechar 0
LayerCount: 2
Fore
SplineSet
45 620 m 1,0,-1
 96 620 l 1,1,-1
 96 40 l 1,2,-1
 297 40 l 1,3,-1
 297 0 l 1,4,-1
 45 0 l 1,5,-1
 45 620 l 1,0,-1
-2 207 m 1,6,-1
 -13 246 l 1,7,-1
 178 297 l 1,8,-1
 189 258 l 1,9,-1
 -2 207 l 1,6,-1
EndSplineSet
EndChar

StartChar: M
Encoding: 77 77 105
Width: 550
GlyphClass: 1
Flags: W
LayerCount: 2
Fore
SplineSet
58 0 m 1,0,-1
 58 620 l 1,1,-1
 123 620 l 1,2,-1
 273 141 l 1,3,-1
 274 137 l 1,4,-1
 275 137 l 1,5,-1
 276 141 l 1,6,-1
 426 620 l 1,7,-1
 492 620 l 1,8,-1
 492 0 l 1,9,-1
 441 0 l 1,10,-1
 441 514 l 1,11,-1
 441 516 l 1,12,-1
 439 503 l 1,13,-1
 296 62 l 1,14,-1
 254 62 l 1,15,-1
 111 499 l 1,16,-1
 111 509 l 1,17,-1
 109 511 l 1,18,-1
 109 0 l 1,19,-1
 58 0 l 1,0,-1
EndSplineSet
EndChar

StartChar: N
Encoding: 78 78 106
Width: 406
GlyphClass: 2
Flags: W
AnchorPoint: "Anchor-1" 204 0 basechar 0
AnchorPoint: "Anchor-0" 204 620 basechar 0
LayerCount: 2
Fore
SplineSet
58 0 m 1,0,-1
 58 620 l 1,1,-1
 110 620 l 1,2,-1
 295 112 l 1,3,-1
 296 107 l 1,4,-1
 297 106 l 1,5,-1
 297 620 l 1,6,-1
 348 620 l 1,7,-1
 348 0 l 1,8,-1
 294 0 l 1,9,-1
 112 488 l 1,10,-1
 109 495 l 1,11,-1
 109 495 l 1,12,-1
 109 0 l 1,13,-1
 58 0 l 1,0,-1
EndSplineSet
EndChar

StartChar: Ncaron
Encoding: 327 327 109
Width: 406
GlyphClass: 2
Flags: W
AnchorPoint: "Anchor-1" 204 0 basechar 0
AnchorPoint: "Anchor-0" 204 779 basechar 0
LayerCount: 2
Fore
SplineSet
93 773 m 1,0,-1
 130 773 l 1,1,-1
 204 710 l 1,2,-1
 277 773 l 1,3,-1
 312 773 l 1,4,-1
 228 684 l 1,5,-1
 178 684 l 1,6,-1
 93 773 l 1,0,-1
58 0 m 1,7,-1
 58 620 l 1,8,-1
 110 620 l 1,9,-1
 295 112 l 1,10,-1
 296 107 l 1,11,-1
 297 106 l 1,12,-1
 297 620 l 1,13,-1
 348 620 l 1,14,-1
 348 0 l 1,15,-1
 294 0 l 1,16,-1
 112 488 l 1,17,-1
 109 495 l 1,18,-1
 109 495 l 1,19,-1
 109 0 l 1,20,-1
 58 0 l 1,7,-1
EndSplineSet
EndChar

StartChar: O
Encoding: 79 79 113
Width: 379
GlyphClass: 2
Flags: W
AnchorPoint: "Anchor-4" 190 310 basechar 0
AnchorPoint: "Anchor-3" 313 10 basechar 0
AnchorPoint: "Anchor-2" 234 620 basechar 0
AnchorPoint: "Anchor-1" 190 0 basechar 0
AnchorPoint: "Anchor-0" 190 620 basechar 0
LayerCount: 2
Fore
SplineSet
189 -3 m 0,0,1
 120 -3 120 -3 84.5 22 c 128,-1,2
 49 47 49 47 49 93 c 2,3,-1
 49 534 l 2,4,5
 49 575 49 575 81.5 602 c 128,-1,6
 114 629 114 629 189 628 c 256,7,8
 264 627 264 627 297.5 601 c 128,-1,9
 331 575 331 575 331 533 c 2,10,-1
 331 94 l 2,11,12
 331 48 331 48 295.5 22.5 c 128,-1,13
 260 -3 260 -3 189 -3 c 0,0,1
189 39 m 0,14,15
 237 39 237 39 259 58 c 128,-1,16
 281 77 281 77 281 106 c 2,17,-1
 281 522 l 2,18,19
 281 547 281 547 261.5 566.5 c 128,-1,20
 242 586 242 586 187 586 c 0,21,22
 137 586 137 586 118 567 c 128,-1,23
 99 548 99 548 99 523 c 2,24,-1
 99 105 l 2,25,26
 99 76 99 76 120.5 57.5 c 128,-1,27
 142 39 142 39 189 39 c 0,14,15
EndSplineSet
Substitution2: "Single Substitution lookup 23 subtable" ordmasculine
Substitution2: "'aalt' Access All Alternates in Latin lookup 0 subtable" ordmasculine
EndChar

StartChar: OE
Encoding: 338 338 114
Width: 577
GlyphClass: 1
Flags: W
LayerCount: 2
Fore
SplineSet
190 -3 m 0,0,1
 121 -3 121 -3 85 22 c 128,-1,2
 49 47 49 47 49 93 c 2,3,-1
 49 530 l 2,4,5
 49 577 49 577 82.5 602.5 c 128,-1,6
 116 628 116 628 189 628 c 0,7,8
 259 627 259 627 290.5 601.5 c 128,-1,9
 322 576 322 576 322 529 c 2,10,-1
 322 94 l 2,11,12
 322 48 322 48 287.5 22.5 c 128,-1,13
 253 -3 253 -3 190 -3 c 0,0,1
189 39 m 0,14,15
 238 39 238 39 259.5 58 c 128,-1,16
 281 77 281 77 281 105 c 2,17,-1
 281 517 l 2,18,19
 281 535 281 535 273 551 c 128,-1,20
 265 567 265 567 245 576 c 128,-1,21
 225 585 225 585 187 585 c 0,22,23
 136 585 136 585 117.5 564 c 128,-1,24
 99 543 99 543 99 518 c 2,25,-1
 99 104 l 2,26,27
 99 77 99 77 120 58 c 128,-1,28
 141 39 141 39 189 39 c 0,14,15
282 0 m 1,29,-1
 282 620 l 1,30,-1
 547 620 l 1,31,-1
 547 579 l 1,32,-1
 330 579 l 1,33,-1
 330 369 l 1,34,-1
 532 369 l 1,35,-1
 523 329 l 1,36,-1
 330 329 l 1,37,-1
 330 40 l 1,38,-1
 547 40 l 1,39,-1
 547 0 l 1,40,-1
 282 0 l 1,29,-1
EndSplineSet
EndChar

StartChar: uni01D1
Encoding: 465 465 117
Width: 379
GlyphClass: 2
Flags: W
AnchorPoint: "Anchor-4" 190 310 basechar 0
AnchorPoint: "Anchor-3" 313 10 basechar 0
AnchorPoint: "Anchor-2" 234 620 basechar 0
AnchorPoint: "Anchor-1" 190 0 basechar 0
AnchorPoint: "Anchor-0" 190 779 basechar 0
LayerCount: 2
Fore
SplineSet
79 773 m 1,0,-1
 116 773 l 1,1,-1
 190 710 l 1,2,-1
 263 773 l 1,3,-1
 298 773 l 1,4,-1
 214 684 l 1,5,-1
 164 684 l 1,6,-1
 79 773 l 1,0,-1
189 -3 m 0,7,8
 120 -3 120 -3 84.5 22 c 128,-1,9
 49 47 49 47 49 93 c 2,10,-1
 49 534 l 2,11,12
 49 575 49 575 81.5 602 c 128,-1,13
 114 629 114 629 189 628 c 256,14,15
 264 627 264 627 297.5 601 c 128,-1,16
 331 575 331 575 331 533 c 2,17,-1
 331 94 l 2,18,19
 331 48 331 48 295.5 22.5 c 128,-1,20
 260 -3 260 -3 189 -3 c 0,7,8
189 39 m 0,21,22
 237 39 237 39 259 58 c 128,-1,23
 281 77 281 77 281 106 c 2,24,-1
 281 522 l 2,25,26
 281 547 281 547 261.5 566.5 c 128,-1,27
 242 586 242 586 187 586 c 0,28,29
 137 586 137 586 118 567 c 128,-1,30
 99 548 99 548 99 523 c 2,31,-1
 99 105 l 2,32,33
 99 76 99 76 120.5 57.5 c 128,-1,34
 142 39 142 39 189 39 c 0,21,22
EndSplineSet
EndChar

StartChar: uni020E
Encoding: 526 526 138
Width: 379
GlyphClass: 2
Flags: W
AnchorPoint: "Anchor-4" 190 310 basechar 0
AnchorPoint: "Anchor-3" 313 10 basechar 0
AnchorPoint: "Anchor-2" 234 620 basechar 0
AnchorPoint: "Anchor-1" 190 0 basechar 0
AnchorPoint: "Anchor-0" 190 771 basechar 0
LayerCount: 2
Fore
SplineSet
187 772 m 0,0,1
 242 772 242 772 265 745 c 128,-1,2
 288 718 288 718 288 680 c 1,3,-1
 256 680 l 1,4,5
 255 707 255 707 240 725.5 c 128,-1,6
 225 744 225 744 188 744 c 0,7,8
 153 744 153 744 138.5 724.5 c 128,-1,9
 124 705 124 705 124 680 c 1,10,-1
 92 680 l 1,11,12
 92 701 92 701 100 722 c 128,-1,13
 108 743 108 743 128.5 757.5 c 128,-1,14
 149 772 149 772 187 772 c 0,0,1
189 -3 m 0,15,16
 120 -3 120 -3 84.5 22 c 128,-1,17
 49 47 49 47 49 93 c 2,18,-1
 49 534 l 2,19,20
 49 575 49 575 81.5 602 c 128,-1,21
 114 629 114 629 189 628 c 256,22,23
 264 627 264 627 297.5 601 c 128,-1,24
 331 575 331 575 331 533 c 2,25,-1
 331 94 l 2,26,27
 331 48 331 48 295.5 22.5 c 128,-1,28
 260 -3 260 -3 189 -3 c 0,15,16
189 39 m 0,29,30
 237 39 237 39 259 58 c 128,-1,31
 281 77 281 77 281 106 c 2,32,-1
 281 522 l 2,33,34
 281 547 281 547 261.5 566.5 c 128,-1,35
 242 586 242 586 187 586 c 0,36,37
 137 586 137 586 118 567 c 128,-1,38
 99 548 99 548 99 523 c 2,39,-1
 99 105 l 2,40,41
 99 76 99 76 120.5 57.5 c 128,-1,42
 142 39 142 39 189 39 c 0,29,30
EndSplineSet
EndChar

StartChar: uni03A9
Encoding: 937 937 140
Width: 598
GlyphClass: 1
Flags: W
LayerCount: 2
Fore
SplineSet
36 41 m 1,0,-1
 175 41 l 1,1,2
 139 70 139 70 110 116.5 c 128,-1,3
 81 163 81 163 64 222.5 c 128,-1,4
 47 282 47 282 47 350 c 0,5,6
 47 411 47 411 54 460.5 c 128,-1,7
 61 510 61 510 86 546 c 128,-1,8
 111 582 111 582 162.5 601 c 128,-1,9
 214 620 214 620 302 620 c 0,10,11
 372 620 372 620 418.5 607 c 128,-1,12
 465 594 465 594 492 570.5 c 128,-1,13
 519 547 519 547 532.5 513.5 c 128,-1,14
 546 480 546 480 550 439 c 128,-1,15
 554 398 554 398 554 352 c 0,16,17
 554 283 554 283 535.5 223.5 c 128,-1,18
 517 164 517 164 486.5 117.5 c 128,-1,19
 456 71 456 71 421 41 c 1,20,-1
 563 41 l 1,21,-1
 563 0 l 1,22,-1
 386 0 l 1,23,-1
 380 42 l 1,24,25
 399 57 399 57 419 86 c 128,-1,26
 439 115 439 115 456 156 c 128,-1,27
 473 197 473 197 483.5 244 c 128,-1,28
 494 291 494 291 494 342 c 0,29,30
 494 389 494 389 489.5 432 c 128,-1,31
 485 475 485 475 468 509.5 c 128,-1,32
 451 544 451 544 412 564 c 128,-1,33
 373 584 373 584 301 584 c 0,34,35
 232 584 232 584 192 565 c 128,-1,36
 152 546 152 546 133.5 513.5 c 128,-1,37
 115 481 115 481 110 438 c 128,-1,38
 105 395 105 395 105 346 c 0,39,40
 105 301 105 301 113.5 255 c 128,-1,41
 122 209 122 209 137.5 167.5 c 128,-1,42
 153 126 153 126 173.5 93 c 128,-1,43
 194 60 194 60 218 42 c 1,44,-1
 212 0 l 1,45,-1
 36 0 l 1,46,-1
 36 41 l 1,0,-1
EndSplineSet
EndChar

StartChar: Oslash
Encoding: 216 216 142
Width: 379
GlyphClass: 2
Flags: W
AnchorPoint: "Anchor-1" 190 0 basechar 0
AnchorPoint: "Anchor-0" 190 620 basechar 0
LayerCount: 2
Fore
SplineSet
189 -3 m 0,0,1
 120 -3 120 -3 84 22 c 128,-1,2
 48 47 48 47 48 93 c 2,3,-1
 48 530 l 2,4,5
 48 577 48 577 81 602.5 c 128,-1,6
 114 628 114 628 187 628 c 0,7,8
 262 627 262 627 296 601.5 c 128,-1,9
 330 576 330 576 330 529 c 2,10,-1
 330 94 l 2,11,12
 330 48 330 48 293 22.5 c 128,-1,13
 256 -3 256 -3 189 -3 c 0,0,1
187 39 m 0,14,15
 237 39 237 39 258.5 58 c 128,-1,16
 280 77 280 77 280 105 c 2,17,-1
 280 517 l 2,18,19
 280 535 280 535 272 551 c 128,-1,20
 264 567 264 567 243.5 576 c 128,-1,21
 223 585 223 585 186 585 c 0,22,23
 134 585 134 585 116 564 c 128,-1,24
 98 543 98 543 98 518 c 2,25,-1
 98 104 l 2,26,27
 98 77 98 77 119.5 58 c 128,-1,28
 141 39 141 39 187 39 c 0,14,15
61 -44 m 1,29,-1
 284 634 l 1,30,-1
 309 634 l 1,31,-1
 84 -44 l 1,32,-1
 61 -44 l 1,29,-1
EndSplineSet
EndChar

StartChar: P
Encoding: 80 80 146
Width: 372
GlyphClass: 1
Flags: W
LayerCount: 2
Fore
SplineSet
58 620 m 1,0,-1
 246 620 l 2,1,2
 289 620 289 620 309.5 609.5 c 128,-1,3
 330 599 330 599 336.5 577.5 c 128,-1,4
 343 556 343 556 343 524 c 2,5,-1
 343 368 l 2,6,7
 343 332 343 332 337 300.5 c 128,-1,8
 331 269 331 269 306 249.5 c 128,-1,9
 281 230 281 230 224 230 c 2,10,-1
 109 230 l 1,11,-1
 109 0 l 1,12,-1
 58 0 l 1,13,-1
 58 620 l 1,0,-1
211 271 m 2,14,15
 251 271 251 271 271.5 291.5 c 128,-1,16
 292 312 292 312 292 359 c 2,17,-1
 292 504 l 2,18,19
 292 547 292 547 277.5 563 c 128,-1,20
 263 579 263 579 224 579 c 2,21,-1
 109 579 l 1,22,-1
 109 271 l 1,23,-1
 211 271 l 2,14,15
EndSplineSet
EndChar

StartChar: Q
Encoding: 81 81 147
Width: 376
GlyphClass: 1
Flags: W
LayerCount: 2
Fore
SplineSet
190 -6 m 0,0,1
 121 -6 121 -6 85 20 c 128,-1,2
 49 46 49 46 49 98 c 2,3,-1
 49 516 l 2,4,5
 49 573 49 573 82.5 600.5 c 128,-1,6
 116 628 116 628 189 628 c 0,7,8
 262 627 262 627 296.5 600 c 128,-1,9
 331 573 331 573 331 515 c 2,10,-1
 331 98 l 2,11,12
 331 46 331 46 293.5 20 c 128,-1,13
 256 -6 256 -6 190 -6 c 0,0,1
189 36 m 0,14,15
 237 36 237 36 258.5 55.5 c 128,-1,16
 280 75 280 75 280 107 c 2,17,-1
 280 505 l 2,18,19
 280 543 280 543 261.5 564 c 128,-1,20
 243 585 243 585 189 585 c 0,21,22
 137 585 137 585 118.5 563.5 c 128,-1,23
 100 542 100 542 100 506 c 2,24,-1
 100 104 l 2,25,26
 100 73 100 73 121.5 54.5 c 128,-1,27
 143 36 143 36 189 36 c 0,14,15
328 -116 m 1,28,-1
 216 0 l 1,29,-1
 250 35 l 1,30,-1
 365 -81 l 1,31,-1
 328 -116 l 1,28,-1
EndSplineSet
EndChar

StartChar: R
Encoding: 82 82 148
Width: 390
GlyphClass: 2
Flags: W
AnchorPoint: "Anchor-1" 189 0 basechar 0
AnchorPoint: "Anchor-0" 186 620 basechar 0
LayerCount: 2
Fore
SplineSet
58 620 m 1,0,-1
 246 620 l 2,1,2
 289 620 289 620 309.5 609.5 c 128,-1,3
 330 599 330 599 336.5 577.5 c 128,-1,4
 343 556 343 556 343 524 c 2,5,-1
 343 412 l 2,6,7
 343 376 343 376 337 344.5 c 128,-1,8
 331 313 331 313 306 293.5 c 128,-1,9
 281 274 281 274 224 274 c 2,10,-1
 109 274 l 1,11,-1
 109 0 l 1,12,-1
 58 0 l 1,13,-1
 58 620 l 1,0,-1
318 -13 m 1,14,-1
 203 277 l 1,15,-1
 239 281 l 1,16,-1
 253 277 l 1,17,-1
 256 270 l 1,18,-1
 365 5 l 1,19,-1
 318 -13 l 1,14,-1
211 315 m 2,20,21
 251 315 251 315 271.5 335 c 128,-1,22
 292 355 292 355 292 403 c 2,23,-1
 292 504 l 2,24,25
 292 547 292 547 277.5 563 c 128,-1,26
 263 579 263 579 224 579 c 2,27,-1
 109 579 l 1,28,-1
 109 315 l 1,29,-1
 211 315 l 2,20,21
EndSplineSet
EndChar

StartChar: Rcaron
Encoding: 344 344 150
Width: 390
GlyphClass: 2
Flags: W
AnchorPoint: "Anchor-1" 189 0 basechar 0
AnchorPoint: "Anchor-0" 186 779 basechar 0
LayerCount: 2
Fore
SplineSet
75 773 m 1,0,-1
 112 773 l 1,1,-1
 186 710 l 1,2,-1
 259 773 l 1,3,-1
 294 773 l 1,4,-1
 210 684 l 1,5,-1
 160 684 l 1,6,-1
 75 773 l 1,0,-1
58 620 m 1,7,-1
 246 620 l 2,8,9
 289 620 289 620 309.5 609.5 c 128,-1,10
 330 599 330 599 336.5 577.5 c 128,-1,11
 343 556 343 556 343 524 c 2,12,-1
 343 412 l 2,13,14
 343 376 343 376 337 344.5 c 128,-1,15
 331 313 331 313 306 293.5 c 128,-1,16
 281 274 281 274 224 274 c 2,17,-1
 109 274 l 1,18,-1
 109 0 l 1,19,-1
 58 0 l 1,20,-1
 58 620 l 1,7,-1
318 -13 m 1,21,-1
 203 277 l 1,22,-1
 239 281 l 1,23,-1
 253 277 l 1,24,-1
 256 270 l 1,25,-1
 365 5 l 1,26,-1
 318 -13 l 1,21,-1
211 315 m 2,27,28
 251 315 251 315 271.5 335 c 128,-1,29
 292 355 292 355 292 403 c 2,30,-1
 292 504 l 2,31,32
 292 547 292 547 277.5 563 c 128,-1,33
 263 579 263 579 224 579 c 2,34,-1
 109 579 l 1,35,-1
 109 315 l 1,36,-1
 211 315 l 2,27,28
EndSplineSet
EndChar

StartChar: uni0212
Encoding: 530 530 153
Width: 390
GlyphClass: 2
Flags: W
AnchorPoint: "Anchor-1" 189 0 basechar 0
AnchorPoint: "Anchor-0" 186 771 basechar 0
LayerCount: 2
Fore
SplineSet
183 772 m 0,0,1
 238 772 238 772 261 745 c 128,-1,2
 284 718 284 718 284 680 c 1,3,-1
 252 680 l 1,4,5
 251 707 251 707 236 725.5 c 128,-1,6
 221 744 221 744 184 744 c 0,7,8
 149 744 149 744 134.5 724.5 c 128,-1,9
 120 705 120 705 120 680 c 1,10,-1
 88 680 l 1,11,12
 88 701 88 701 96 722 c 128,-1,13
 104 743 104 743 124.5 757.5 c 128,-1,14
 145 772 145 772 183 772 c 0,0,1
58 620 m 1,15,-1
 246 620 l 2,16,17
 289 620 289 620 309.5 609.5 c 128,-1,18
 330 599 330 599 336.5 577.5 c 128,-1,19
 343 556 343 556 343 524 c 2,20,-1
 343 412 l 2,21,22
 343 376 343 376 337 344.5 c 128,-1,23
 331 313 331 313 306 293.5 c 128,-1,24
 281 274 281 274 224 274 c 2,25,-1
 109 274 l 1,26,-1
 109 0 l 1,27,-1
 58 0 l 1,28,-1
 58 620 l 1,15,-1
318 -13 m 1,29,-1
 203 277 l 1,30,-1
 239 281 l 1,31,-1
 253 277 l 1,32,-1
 256 270 l 1,33,-1
 365 5 l 1,34,-1
 318 -13 l 1,29,-1
211 315 m 2,35,36
 251 315 251 315 271.5 335 c 128,-1,37
 292 355 292 355 292 403 c 2,38,-1
 292 504 l 2,39,40
 292 547 292 547 277.5 563 c 128,-1,41
 263 579 263 579 224 579 c 2,42,-1
 109 579 l 1,43,-1
 109 315 l 1,44,-1
 211 315 l 2,35,36
EndSplineSet
EndChar

StartChar: S
Encoding: 83 83 154
Width: 368
GlyphClass: 2
Flags: W
AnchorPoint: "Anchor-1" 184 0 basechar 0
AnchorPoint: "Anchor-0" 184 620 basechar 0
LayerCount: 2
Fore
SplineSet
190 -4 m 0,0,1
 147 -3 147 -3 114 3.5 c 128,-1,2
 81 10 81 10 61.5 27 c 128,-1,3
 42 44 42 44 42 76 c 2,4,-1
 42 205 l 1,5,-1
 93 212 l 1,6,-1
 93 94 l 2,7,8
 93 67 93 67 113.5 52 c 128,-1,9
 134 37 134 37 187 37 c 0,10,11
 223 37 223 37 241.5 44.5 c 128,-1,12
 260 52 260 52 266.5 68.5 c 128,-1,13
 273 85 273 85 273 111 c 2,14,-1
 273 202 l 2,15,16
 273 239 273 239 255.5 260.5 c 128,-1,17
 238 282 238 282 204 292 c 2,18,-1
 126 313 l 2,19,20
 82 327 82 327 62 348 c 128,-1,21
 42 369 42 369 42 414 c 2,22,-1
 42 524 l 2,23,24
 42 568 42 568 61 589 c 128,-1,25
 80 610 80 610 113 616.5 c 128,-1,26
 146 623 146 623 189 623 c 256,27,28
 232 623 232 623 261.5 616 c 128,-1,29
 291 609 291 609 307.5 592 c 128,-1,30
 324 575 324 575 324 543 c 2,31,-1
 324 414 l 1,32,-1
 273 405 l 1,33,-1
 273 521 l 2,34,35
 273 555 273 555 256 569.5 c 128,-1,36
 239 584 239 584 187 584 c 0,37,38
 134 584 134 584 113.5 567 c 128,-1,39
 93 550 93 550 93 507 c 2,40,-1
 93 423 l 2,41,42
 93 391 93 391 111.5 372.5 c 128,-1,43
 130 354 130 354 158 346 c 2,44,-1
 239 323 l 2,45,46
 285 310 285 310 304.5 286 c 128,-1,47
 324 262 324 262 324 216 c 2,48,-1
 324 98 l 2,49,50
 324 55 324 55 308 33 c 128,-1,51
 292 11 292 11 262.5 4 c 128,-1,52
 233 -3 233 -3 190 -4 c 0,0,1
EndSplineSet
EndChar

StartChar: Scaron
Encoding: 352 352 156
Width: 368
GlyphClass: 2
Flags: W
AnchorPoint: "Anchor-1" 184 0 basechar 0
AnchorPoint: "Anchor-0" 184 779 basechar 0
LayerCount: 2
Fore
SplineSet
74 773 m 1,0,-1
 111 773 l 1,1,-1
 184 710 l 1,2,-1
 257 773 l 1,3,-1
 293 773 l 1,4,-1
 209 684 l 1,5,-1
 158 684 l 1,6,-1
 74 773 l 1,0,-1
190 -4 m 0,7,8
 147 -3 147 -3 114 3.5 c 128,-1,9
 81 10 81 10 61.5 27 c 128,-1,10
 42 44 42 44 42 76 c 2,11,-1
 42 205 l 1,12,-1
 93 212 l 1,13,-1
 93 94 l 2,14,15
 93 67 93 67 113.5 52 c 128,-1,16
 134 37 134 37 187 37 c 0,17,18
 223 37 223 37 241.5 44.5 c 128,-1,19
 260 52 260 52 266.5 68.5 c 128,-1,20
 273 85 273 85 273 111 c 2,21,-1
 273 202 l 2,22,23
 273 239 273 239 255.5 260.5 c 128,-1,24
 238 282 238 282 204 292 c 2,25,-1
 126 313 l 2,26,27
 82 327 82 327 62 348 c 128,-1,28
 42 369 42 369 42 414 c 2,29,-1
 42 524 l 2,30,31
 42 568 42 568 61 589 c 128,-1,32
 80 610 80 610 113 616.5 c 128,-1,33
 146 623 146 623 189 623 c 256,34,35
 232 623 232 623 261.5 616 c 128,-1,36
 291 609 291 609 307.5 592 c 128,-1,37
 324 575 324 575 324 543 c 2,38,-1
 324 414 l 1,39,-1
 273 405 l 1,40,-1
 273 521 l 2,41,42
 273 555 273 555 256 569.5 c 128,-1,43
 239 584 239 584 187 584 c 0,44,45
 134 584 134 584 113.5 567 c 128,-1,46
 93 550 93 550 93 507 c 2,47,-1
 93 423 l 2,48,49
 93 391 93 391 111.5 372.5 c 128,-1,50
 130 354 130 354 158 346 c 2,51,-1
 239 323 l 2,52,53
 285 310 285 310 304.5 286 c 128,-1,54
 324 262 324 262 324 216 c 2,55,-1
 324 98 l 2,56,57
 324 55 324 55 308 33 c 128,-1,58
 292 11 292 11 262.5 4 c 128,-1,59
 233 -3 233 -3 190 -4 c 0,7,8
EndSplineSet
EndChar

StartChar: uni018F
Encoding: 399 399 158
Width: 350
GlyphClass: 1
Flags: W
LayerCount: 2
Fore
SplineSet
176 -4 m 0,0,1
 119 -4 119 -4 88.5 17 c 128,-1,2
 58 38 58 38 46 70 c 128,-1,3
 34 102 34 102 34 137 c 2,4,-1
 34 318 l 1,5,-1
 266 318 l 1,6,-1
 266 482 l 2,7,8
 266 533 266 533 241.5 557.5 c 128,-1,9
 217 582 217 582 178 582 c 0,10,11
 136 582 136 582 110 556 c 128,-1,12
 84 530 84 530 84 473 c 2,13,-1
 84 397 l 1,14,-1
 34 391 l 1,15,-1
 34 469 l 2,16,17
 34 512 34 512 46 547 c 128,-1,18
 58 582 58 582 89.5 603 c 128,-1,19
 121 624 121 624 178 624 c 0,20,21
 236 624 236 624 266 603.5 c 128,-1,22
 296 583 296 583 306 551 c 128,-1,23
 316 519 316 519 316 486 c 2,24,-1
 316 137 l 2,25,26
 316 104 316 104 305.5 71 c 128,-1,27
 295 38 295 38 265 17 c 128,-1,28
 235 -4 235 -4 176 -4 c 0,0,1
176 38 m 0,29,30
 204 38 204 38 224 49.5 c 128,-1,31
 244 61 244 61 255 84 c 128,-1,32
 266 107 266 107 266 140 c 2,33,-1
 266 283 l 1,34,-1
 84 283 l 1,35,-1
 84 140 l 2,36,37
 84 107 84 107 95 84 c 128,-1,38
 106 61 106 61 126.5 49.5 c 128,-1,39
 147 38 147 38 176 38 c 0,29,30
EndSplineSet
EndChar

StartChar: T
Encoding: 84 84 161
Width: 311
GlyphClass: 2
Flags: W
AnchorPoint: "Anchor-4" 155 424 basechar 0
AnchorPoint: "Anchor-1" 155 0 basechar 0
AnchorPoint: "Anchor-0" 155 620 basechar 0
LayerCount: 2
Fore
SplineSet
129 579 m 1,0,-1
 19 579 l 1,1,-1
 19 620 l 1,2,-1
 292 620 l 1,3,-1
 292 579 l 1,4,-1
 180 579 l 1,5,-1
 180 0 l 1,6,-1
 129 0 l 1,7,-1
 129 579 l 1,0,-1
EndSplineSet
EndChar

StartChar: Tcaron
Encoding: 356 356 163
Width: 311
GlyphClass: 2
Flags: W
AnchorPoint: "Anchor-4" 155 424 basechar 0
AnchorPoint: "Anchor-1" 155 0 basechar 0
AnchorPoint: "Anchor-0" 155 779 basechar 0
LayerCount: 2
Fore
SplineSet
45 773 m 1,0,-1
 82 773 l 1,1,-1
 155 710 l 1,2,-1
 228 773 l 1,3,-1
 264 773 l 1,4,-1
 179 684 l 1,5,-1
 129 684 l 1,6,-1
 45 773 l 1,0,-1
129 579 m 1,7,-1
 19 579 l 1,8,-1
 19 620 l 1,9,-1
 292 620 l 1,10,-1
 292 579 l 1,11,-1
 180 579 l 1,12,-1
 180 0 l 1,13,-1
 129 0 l 1,14,-1
 129 579 l 1,7,-1
EndSplineSet
EndChar

StartChar: Thorn
Encoding: 222 222 166
Width: 383
GlyphClass: 1
Flags: W
LayerCount: 2
Fore
SplineSet
33 679 m 1,0,-1
 83 679 l 1,1,-1
 83 581 l 1,2,-1
 220 581 l 2,3,4
 263 581 263 581 283.5 570.5 c 128,-1,5
 304 560 304 560 310.5 538.5 c 128,-1,6
 317 517 317 517 317 485 c 2,7,-1
 317 329 l 2,8,9
 317 293 317 293 311 261.5 c 128,-1,10
 305 230 305 230 280 210.5 c 128,-1,11
 255 191 255 191 198 191 c 2,12,-1
 84 191 l 1,13,-1
 84 0 l 1,14,-1
 33 0 l 1,15,-1
 33 679 l 1,0,-1
186 232 m 2,16,17
 226 232 226 232 246 252 c 128,-1,18
 266 272 266 272 266 320 c 2,19,-1
 266 465 l 2,20,21
 266 508 266 508 252.5 524 c 128,-1,22
 239 540 239 540 198 540 c 2,23,-1
 84 540 l 1,24,-1
 84 232 l 1,25,-1
 186 232 l 2,16,17
EndSplineSet
EndChar

StartChar: U
Encoding: 85 85 167
Width: 389
GlyphClass: 2
Flags: W
AnchorPoint: "Anchor-3" 299 5 basechar 0
AnchorPoint: "Anchor-2" 286 620 basechar 0
AnchorPoint: "Anchor-1" 195 0 basechar 0
AnchorPoint: "Anchor-0" 195 620 basechar 0
LayerCount: 2
Fore
SplineSet
194 -5 m 0,0,1
 156 -5 156 -5 124 4 c 128,-1,2
 92 13 92 13 73 33.5 c 128,-1,3
 54 54 54 54 54 89 c 2,4,-1
 54 620 l 1,5,-1
 105 620 l 1,6,-1
 105 106 l 2,7,8
 105 88 105 88 112.5 72 c 128,-1,9
 120 56 120 56 139 46 c 128,-1,10
 158 36 158 36 194 36 c 0,11,12
 233 36 233 36 252 46 c 128,-1,13
 271 56 271 56 277.5 72 c 128,-1,14
 284 88 284 88 284 106 c 2,15,-1
 284 620 l 1,16,-1
 335 620 l 1,17,-1
 335 89 l 2,18,19
 335 54 335 54 317 33.5 c 128,-1,20
 299 13 299 13 267 4 c 128,-1,21
 235 -5 235 -5 194 -5 c 0,0,1
EndSplineSet
EndChar

StartChar: uni01D3
Encoding: 467 467 170
Width: 389
GlyphClass: 2
Flags: W
AnchorPoint: "Anchor-3" 299 5 basechar 0
AnchorPoint: "Anchor-2" 286 620 basechar 0
AnchorPoint: "Anchor-1" 195 0 basechar 0
AnchorPoint: "Anchor-0" 195 779 basechar 0
LayerCount: 2
Fore
SplineSet
84 773 m 1,0,-1
 121 773 l 1,1,-1
 195 710 l 1,2,-1
 268 773 l 1,3,-1
 303 773 l 1,4,-1
 219 684 l 1,5,-1
 169 684 l 1,6,-1
 84 773 l 1,0,-1
194 -5 m 0,7,8
 156 -5 156 -5 124 4 c 128,-1,9
 92 13 92 13 73 33.5 c 128,-1,10
 54 54 54 54 54 89 c 2,11,-1
 54 620 l 1,12,-1
 105 620 l 1,13,-1
 105 106 l 2,14,15
 105 88 105 88 112.5 72 c 128,-1,16
 120 56 120 56 139 46 c 128,-1,17
 158 36 158 36 194 36 c 0,18,19
 233 36 233 36 252 46 c 128,-1,20
 271 56 271 56 277.5 72 c 128,-1,21
 284 88 284 88 284 106 c 2,22,-1
 284 620 l 1,23,-1
 335 620 l 1,24,-1
 335 89 l 2,25,26
 335 54 335 54 317 33.5 c 128,-1,27
 299 13 299 13 267 4 c 128,-1,28
 235 -5 235 -5 194 -5 c 0,7,8
EndSplineSet
EndChar

StartChar: uni01D9
Encoding: 473 473 175
Width: 389
GlyphClass: 2
Flags: W
AnchorPoint: "Anchor-3" 299 5 basechar 0
AnchorPoint: "Anchor-2" 286 620 basechar 0
AnchorPoint: "Anchor-1" 195 0 basechar 0
AnchorPoint: "Anchor-0" 195 843 basechar 0
LayerCount: 2
Fore
SplineSet
84 838 m 1,0,-1
 121 838 l 1,1,-1
 195 774 l 1,2,-1
 268 838 l 1,3,-1
 303 838 l 1,4,-1
 219 748 l 1,5,-1
 169 748 l 1,6,-1
 84 838 l 1,0,-1
194 -5 m 0,7,8
 156 -5 156 -5 124 4 c 128,-1,9
 92 13 92 13 73 33.5 c 128,-1,10
 54 54 54 54 54 89 c 2,11,-1
 54 620 l 1,12,-1
 105 620 l 1,13,-1
 105 106 l 2,14,15
 105 88 105 88 112.5 72 c 128,-1,16
 120 56 120 56 139 46 c 128,-1,17
 158 36 158 36 194 36 c 0,18,19
 233 36 233 36 252 46 c 128,-1,20
 271 56 271 56 277.5 72 c 128,-1,21
 284 88 284 88 284 106 c 2,22,-1
 284 620 l 1,23,-1
 335 620 l 1,24,-1
 335 89 l 2,25,26
 335 54 335 54 317 33.5 c 128,-1,27
 299 13 299 13 267 4 c 128,-1,28
 235 -5 235 -5 194 -5 c 0,7,8
243 680 m 0,29,30
 226 680 226 680 223 686.5 c 128,-1,31
 220 693 220 693 220 704 c 0,32,33
 220 718 220 718 223 723.5 c 128,-1,34
 226 729 226 729 243 729 c 0,35,36
 261 729 261 729 264 723.5 c 128,-1,37
 267 718 267 718 267 704 c 0,38,39
 267 693 267 693 264 686.5 c 128,-1,40
 261 680 261 680 243 680 c 0,29,30
144 680 m 0,41,42
 127 680 127 680 124 686.5 c 128,-1,43
 121 693 121 693 121 704 c 0,44,45
 121 718 121 718 124 723.5 c 128,-1,46
 127 729 127 729 144 729 c 0,47,48
 162 729 162 729 165 723.5 c 128,-1,49
 168 718 168 718 168 704 c 0,50,51
 168 693 168 693 165 686.5 c 128,-1,52
 162 680 162 680 144 680 c 0,41,42
EndSplineSet
EndChar

StartChar: uni0216
Encoding: 534 534 188
Width: 389
GlyphClass: 2
Flags: W
AnchorPoint: "Anchor-3" 299 5 basechar 0
AnchorPoint: "Anchor-2" 286 620 basechar 0
AnchorPoint: "Anchor-1" 195 0 basechar 0
AnchorPoint: "Anchor-0" 195 771 basechar 0
LayerCount: 2
Fore
SplineSet
192 772 m 0,0,1
 246 772 246 772 269.5 745 c 128,-1,2
 293 718 293 718 293 680 c 1,3,-1
 260 680 l 1,4,5
 260 707 260 707 245 725.5 c 128,-1,6
 230 744 230 744 193 744 c 0,7,8
 157 744 157 744 143 724.5 c 128,-1,9
 129 705 129 705 129 680 c 1,10,-1
 97 680 l 1,11,12
 97 701 97 701 104.5 722 c 128,-1,13
 112 743 112 743 133 757.5 c 128,-1,14
 154 772 154 772 192 772 c 0,0,1
194 -5 m 0,15,16
 156 -5 156 -5 124 4 c 128,-1,17
 92 13 92 13 73 33.5 c 128,-1,18
 54 54 54 54 54 89 c 2,19,-1
 54 620 l 1,20,-1
 105 620 l 1,21,-1
 105 106 l 2,22,23
 105 88 105 88 112.5 72 c 128,-1,24
 120 56 120 56 139 46 c 128,-1,25
 158 36 158 36 194 36 c 0,26,27
 233 36 233 36 252 46 c 128,-1,28
 271 56 271 56 277.5 72 c 128,-1,29
 284 88 284 88 284 106 c 2,30,-1
 284 620 l 1,31,-1
 335 620 l 1,32,-1
 335 89 l 2,33,34
 335 54 335 54 317 33.5 c 128,-1,35
 299 13 299 13 267 4 c 128,-1,36
 235 -5 235 -5 194 -5 c 0,15,16
EndSplineSet
EndChar

StartChar: V
Encoding: 86 86 193
Width: 359
GlyphClass: 1
Flags: W
LayerCount: 2
Fore
SplineSet
152 0 m 1,0,-1
 21 620 l 1,1,-1
 72 620 l 1,2,-1
 178 80 l 1,3,-1
 179 66 l 1,4,-1
 180 66 l 1,5,-1
 181 80 l 1,6,-1
 285 620 l 1,7,-1
 338 620 l 1,8,-1
 207 0 l 1,9,-1
 152 0 l 1,0,-1
EndSplineSet
EndChar

StartChar: W
Encoding: 87 87 194
Width: 559
GlyphClass: 2
Flags: W
AnchorPoint: "Anchor-1" 281 0 basechar 0
AnchorPoint: "Anchor-0" 285 620 basechar 0
LayerCount: 2
Fore
SplineSet
140 0 m 1,0,-1
 22 620 l 1,1,-1
 73 620 l 1,2,-1
 166 103 l 1,3,-1
 167 89 l 1,4,-1
 168 89 l 1,5,-1
 168 103 l 1,6,-1
 264 588 l 1,7,-1
 304 588 l 1,8,-1
 392 103 l 1,9,-1
 393 89 l 1,10,-1
 394 89 l 1,11,-1
 395 103 l 1,12,-1
 485 620 l 1,13,-1
 537 620 l 1,14,-1
 421 0 l 1,15,-1
 369 0 l 1,16,-1
 286 467 l 1,17,-1
 286 478 l 1,18,-1
 285 478 l 1,19,-1
 284 467 l 1,20,-1
 192 0 l 1,21,-1
 140 0 l 1,0,-1
EndSplineSet
EndChar

StartChar: X
Encoding: 88 88 199
Width: 365
GlyphClass: 1
Flags: W
LayerCount: 2
Fore
SplineSet
20 0 m 1,0,-1
 146 325 l 1,1,-1
 26 620 l 1,2,-1
 78 620 l 1,3,-1
 180 364 l 1,4,-1
 182 347 l 1,5,-1
 183 347 l 1,6,-1
 186 364 l 1,7,-1
 287 620 l 1,8,-1
 339 620 l 1,9,-1
 219 325 l 1,10,-1
 346 0 l 1,11,-1
 292 0 l 1,12,-1
 185 277 l 1,13,-1
 183 297 l 1,14,-1
 182 297 l 1,15,-1
 179 277 l 1,16,-1
 72 0 l 1,17,-1
 20 0 l 1,0,-1
EndSplineSet
EndChar

StartChar: Y
Encoding: 89 89 200
Width: 345
GlyphClass: 2
Flags: W
AnchorPoint: "Anchor-1" 172 0 basechar 0
AnchorPoint: "Anchor-0" 172 620 basechar 0
LayerCount: 2
Fore
SplineSet
147 0 m 1,0,-1
 147 253 l 1,1,-1
 11 620 l 1,2,-1
 58 620 l 1,3,-1
 171 319 l 1,4,-1
 173 305 l 1,5,-1
 174 305 l 1,6,-1
 175 319 l 1,7,-1
 286 620 l 1,8,-1
 334 620 l 1,9,-1
 197 253 l 1,10,-1
 197 0 l 1,11,-1
 147 0 l 1,0,-1
EndSplineSet
EndChar

StartChar: Z
Encoding: 90 90 209
Width: 297
GlyphClass: 2
Flags: W
AnchorPoint: "Anchor-4" 149 310 basechar 0
AnchorPoint: "Anchor-1" 149 0 basechar 0
AnchorPoint: "Anchor-0" 149 620 basechar 0
LayerCount: 2
Fore
SplineSet
11 0 m 1,0,-1
 208 579 l 1,1,-1
 27 579 l 1,2,-1
 27 620 l 1,3,-1
 273 620 l 1,4,-1
 75 41 l 1,5,-1
 278 41 l 1,6,-1
 278 0 l 1,7,-1
 11 0 l 1,0,-1
EndSplineSet
EndChar

StartChar: Zcaron
Encoding: 381 381 211
Width: 297
GlyphClass: 2
Flags: W
AnchorPoint: "Anchor-4" 149 310 basechar 0
AnchorPoint: "Anchor-1" 149 0 basechar 0
AnchorPoint: "Anchor-0" 149 779 basechar 0
LayerCount: 2
Fore
SplineSet
39 773 m 1,0,-1
 76 773 l 1,1,-1
 149 710 l 1,2,-1
 222 773 l 1,3,-1
 258 773 l 1,4,-1
 173 684 l 1,5,-1
 123 684 l 1,6,-1
 39 773 l 1,0,-1
11 0 m 1,7,-1
 208 579 l 1,8,-1
 27 579 l 1,9,-1
 27 620 l 1,10,-1
 273 620 l 1,11,-1
 75 41 l 1,12,-1
 278 41 l 1,13,-1
 278 0 l 1,14,-1
 11 0 l 1,7,-1
EndSplineSet
EndChar

StartChar: a
Encoding: 97 97 213
Width: 396
GlyphClass: 2
Flags: W
AnchorPoint: "Anchor-3" 396 10 basechar 0
AnchorPoint: "Anchor-1" 198 0 basechar 0
AnchorPoint: "Anchor-0" 201 470 basechar 0
LayerCount: 2
Fore
SplineSet
128 0 m 2,0,1
 93 0 93 0 77 10 c 128,-1,2
 61 20 61 20 58 47.5 c 128,-1,3
 55 75 55 75 55 127 c 2,4,-1
 55 377 l 2,5,6
 55 416 55 416 63 436 c 128,-1,7
 71 456 71 456 94 463 c 128,-1,8
 117 470 117 470 162 470 c 2,9,-1
 336 470 l 1,10,-1
 336 0 l 1,11,-1
 286 0 l 1,12,-1
 286 429 l 1,13,-1
 159 429 l 2,14,15
 131 429 131 429 119.5 422 c 128,-1,16
 108 415 108 415 106.5 398.5 c 128,-1,17
 105 382 105 382 105 353 c 2,18,-1
 105 115 l 2,19,20
 105 84 105 84 108 68 c 128,-1,21
 111 52 111 52 121 46.5 c 128,-1,22
 131 41 131 41 152 41 c 2,23,-1
 255 41 l 1,24,-1
 248 0 l 1,25,-1
 128 0 l 2,0,1
EndSplineSet
Substitution2: "Single Substitution lookup 23 subtable" ordfeminine
Substitution2: "'aalt' Access All Alternates in Latin lookup 0 subtable" ordfeminine
EndChar

StartChar: uni01CE
Encoding: 462 462 221
Width: 396
GlyphClass: 2
Flags: W
AnchorPoint: "Anchor-3" 396 10 basechar 0
AnchorPoint: "Anchor-1" 198 0 basechar 0
AnchorPoint: "Anchor-0" 201 629 basechar 0
LayerCount: 2
Fore
SplineSet
90 623 m 1,0,-1
 127 623 l 1,1,-1
 201 560 l 1,2,-1
 274 623 l 1,3,-1
 309 623 l 1,4,-1
 225 534 l 1,5,-1
 175 534 l 1,6,-1
 90 623 l 1,0,-1
128 0 m 2,7,8
 93 0 93 0 77 10 c 128,-1,9
 61 20 61 20 58 47.5 c 128,-1,10
 55 75 55 75 55 127 c 2,11,-1
 55 377 l 2,12,13
 55 416 55 416 63 436 c 128,-1,14
 71 456 71 456 94 463 c 128,-1,15
 117 470 117 470 162 470 c 2,16,-1
 336 470 l 1,17,-1
 336 0 l 1,18,-1
 286 0 l 1,19,-1
 286 429 l 1,20,-1
 159 429 l 2,21,22
 131 429 131 429 119.5 422 c 128,-1,23
 108 415 108 415 106.5 398.5 c 128,-1,24
 105 382 105 382 105 353 c 2,25,-1
 105 115 l 2,26,27
 105 84 105 84 108 68 c 128,-1,28
 111 52 111 52 121 46.5 c 128,-1,29
 131 41 131 41 152 41 c 2,30,-1
 255 41 l 1,31,-1
 248 0 l 1,32,-1
 128 0 l 2,7,8
EndSplineSet
EndChar

StartChar: acutecomb
Encoding: 769 769 229
Width: 0
GlyphClass: 4
Flags: W
AnchorPoint: "Anchor-6" 69 629 basemark 0
AnchorPoint: "Anchor-6" 49 470 mark 0
AnchorPoint: "Anchor-0" 49 470 mark 0
LayerCount: 2
Fore
SplineSet
0 534 m 1,0,-1
 87 629 l 1,1,-1
 136 629 l 1,2,-1
 33 534 l 1,3,-1
 0 534 l 1,0,-1
EndSplineSet
Substitution2: "'case' Case-Sensitive Forms in Latin lookup 25 subtable" acutecomb.case
Substitution2: "Single Substitution lookup 7 subtable" acutecomb.case
Substitution2: "Single Substitution lookup 6 subtable" acutecomb.case
Substitution2: "Single Substitution lookup 4 subtable" acutecomb.case
Substitution2: "Single Substitution lookup 3 subtable" acutecomb.case
Substitution2: "'aalt' Access All Alternates in Latin lookup 0 subtable" acutecomb.case
EndChar

StartChar: acutecomb.case
Encoding: 65538 -1 230
Width: 0
GlyphClass: 4
Flags: W
AnchorPoint: "Anchor-6" 69 629 basemark 0
AnchorPoint: "Anchor-6" 49 470 mark 0
AnchorPoint: "Anchor-0" 49 470 mark 0
LayerCount: 2
Fore
SplineSet
0 534 m 1,0,-1
 94 621 l 1,1,-1
 144 621 l 1,2,-1
 33 534 l 1,3,-1
 0 534 l 1,0,-1
EndSplineSet
EndChar

StartChar: uni0203
Encoding: 515 515 238
Width: 396
GlyphClass: 2
Flags: W
AnchorPoint: "Anchor-3" 396 10 basechar 0
AnchorPoint: "Anchor-1" 198 0 basechar 0
AnchorPoint: "Anchor-0" 201 621 basechar 0
LayerCount: 2
Fore
SplineSet
198 622 m 0,0,1
 253 622 253 622 276 595 c 128,-1,2
 299 568 299 568 299 530 c 1,3,-1
 267 530 l 1,4,5
 266 557 266 557 251 575.5 c 128,-1,6
 236 594 236 594 199 594 c 0,7,8
 164 594 164 594 149.5 574.5 c 128,-1,9
 135 555 135 555 135 530 c 1,10,-1
 103 530 l 1,11,12
 103 551 103 551 111 572 c 128,-1,13
 119 593 119 593 139.5 607.5 c 128,-1,14
 160 622 160 622 198 622 c 0,0,1
128 0 m 2,15,16
 93 0 93 0 77 10 c 128,-1,17
 61 20 61 20 58 47.5 c 128,-1,18
 55 75 55 75 55 127 c 2,19,-1
 55 377 l 2,20,21
 55 416 55 416 63 436 c 128,-1,22
 71 456 71 456 94 463 c 128,-1,23
 117 470 117 470 162 470 c 2,24,-1
 336 470 l 1,25,-1
 336 0 l 1,26,-1
 286 0 l 1,27,-1
 286 429 l 1,28,-1
 159 429 l 2,29,30
 131 429 131 429 119.5 422 c 128,-1,31
 108 415 108 415 106.5 398.5 c 128,-1,32
 105 382 105 382 105 353 c 2,33,-1
 105 115 l 2,34,35
 105 84 105 84 108 68 c 128,-1,36
 111 52 111 52 121 46.5 c 128,-1,37
 131 41 131 41 152 41 c 2,38,-1
 255 41 l 1,39,-1
 248 0 l 1,40,-1
 128 0 l 2,15,16
EndSplineSet
EndChar

StartChar: ampersand
Encoding: 38 38 240
Width: 477
GlyphClass: 1
Flags: W
LayerCount: 2
Fore
SplineSet
222 3 m 0,0,1
 156 3 156 3 125.5 18.5 c 128,-1,2
 95 34 95 34 86.5 60.5 c 128,-1,3
 78 87 78 87 78 120 c 2,4,-1
 78 232 l 2,5,6
 78 265 78 265 85 289.5 c 128,-1,7
 92 314 92 314 116.5 328 c 128,-1,8
 141 342 141 342 193 343 c 1,9,10
 145 345 145 345 121 356 c 128,-1,11
 97 367 97 367 89 389 c 128,-1,12
 81 411 81 411 81 444 c 2,13,-1
 81 531 l 2,14,15
 81 573 81 573 93 594 c 128,-1,16
 105 615 105 615 135.5 622 c 128,-1,17
 166 629 166 629 221 629 c 0,18,19
 278 629 278 629 308 621.5 c 128,-1,20
 338 614 338 614 349 593 c 128,-1,21
 360 572 360 572 360 531 c 2,22,-1
 360 426 l 1,23,-1
 310 410 l 1,24,-1
 310 517 l 2,25,26
 310 542 310 542 304 556 c 128,-1,27
 298 570 298 570 278.5 576 c 128,-1,28
 259 582 259 582 218 582 c 0,29,30
 181 582 181 582 162 576 c 128,-1,31
 143 570 143 570 137 557 c 128,-1,32
 131 544 131 544 131 521 c 2,33,-1
 131 448 l 2,34,35
 131 411 131 411 137.5 391 c 128,-1,36
 144 371 144 371 168 363 c 128,-1,37
 192 355 192 355 241 355 c 2,38,-1
 306 355 l 1,39,-1
 306 333 l 1,40,-1
 241 333 l 2,41,42
 193 333 193 333 169 323 c 128,-1,43
 145 313 145 313 137 291.5 c 128,-1,44
 129 270 129 270 128 233 c 2,45,-1
 128 128 l 2,46,47
 128 114 128 114 129.5 99 c 128,-1,48
 131 84 131 84 138 72 c 128,-1,49
 145 60 145 60 163.5 52.5 c 128,-1,50
 182 45 182 45 217 45 c 0,51,52
 254 45 254 45 273.5 52.5 c 128,-1,53
 293 60 293 60 300.5 72.5 c 128,-1,54
 308 85 308 85 309 99.5 c 128,-1,55
 310 114 310 114 310 128 c 2,56,-1
 310 312 l 1,57,-1
 434 312 l 1,58,-1
 421 273 l 1,59,-1
 361 273 l 1,60,-1
 361 140 l 2,61,62
 361 111 361 111 358 86 c 128,-1,63
 355 61 355 61 342 42.5 c 128,-1,64
 329 24 329 24 300.5 13.5 c 128,-1,65
 272 3 272 3 222 3 c 0,0,1
EndSplineSet
EndChar

StartChar: uni02BC
Encoding: 700 700 242
Width: 70
GlyphClass: 1
Flags: W
LayerCount: 2
Fore
SplineSet
0 425 m 1,0,1
 14 452 14 452 22.5 479 c 128,-1,2
 31 506 31 506 31 533 c 1,3,4
 17 533 17 533 14 539 c 128,-1,5
 11 545 11 545 11 553 c 0,6,7
 11 562 11 562 12 567.5 c 128,-1,8
 13 573 13 573 18.5 576 c 128,-1,9
 24 579 24 579 36 579 c 0,10,11
 52 579 52 579 55 573 c 128,-1,12
 58 567 58 567 58 555 c 0,13,14
 58 533 58 533 53 508 c 128,-1,15
 48 483 48 483 41 461 c 128,-1,16
 34 439 34 439 25 425 c 1,17,-1
 0 425 l 1,0,1
EndSplineSet
EndChar

StartChar: uniF8FF
Encoding: 63743 63743 243
Width: 427
GlyphClass: 1
Flags: W
LayerCount: 2
Fore
SplineSet
147 -15 m 1,0,1
 148 -15 148 -15 148 -13 c 0,2,3
 148 -12 148 -12 147.5 -11 c 128,-1,4
 147 -10 147 -10 147 -9 c 256,5,6
 147 -8 147 -8 149 -6 c 2,7,-1
 149 -1 l 2,8,9
 147 0 147 0 147 3 c 128,-1,10
 147 6 147 6 137 6 c 0,11,12
 133 5 133 5 130 4.5 c 128,-1,13
 127 4 127 4 124 4 c 1,14,-1
 124 7 l 1,15,-1
 123 7 l 1,16,-1
 123 18 l 2,17,18
 122 21 122 21 118.5 23.5 c 128,-1,19
 115 26 115 26 113 27 c 2,20,-1
 113 30 l 1,21,-1
 112 30 l 1,22,-1
 112 32 l 1,23,-1
 102 41 l 1,24,-1
 86 41 l 2,25,26
 85 44 85 44 82 47 c 128,-1,27
 79 50 79 50 79 54 c 2,28,-1
 79 58 l 1,29,-1
 68 66 l 1,30,-1
 68 90 l 2,31,32
 70 95 70 95 70.5 99.5 c 128,-1,33
 71 104 71 104 75 110 c 2,34,-1
 79 116 l 1,35,-1
 79 129 l 2,36,37
 79 135 79 135 79 140 c 128,-1,38
 79 145 79 145 78 149 c 2,39,-1
 73 166 l 1,40,-1
 73 176 l 2,41,42
 72 180 72 180 71 181 c 128,-1,43
 70 182 70 182 70 185 c 2,44,-1
 70 199 l 1,45,-1
 71 199 l 1,46,-1
 71 204 l 1,47,-1
 70 204 l 1,48,-1
 70 211 l 1,49,-1
 67 211 l 1,50,-1
 62 213 l 1,51,52
 62 213 62 213 62.5 211.5 c 128,-1,53
 63 210 63 210 61 211 c 2,54,-1
 58 211 l 1,55,-1
 58 220 l 1,56,-1
 62 220 l 1,57,58
 62 222 62 222 62.5 222.5 c 128,-1,59
 63 223 63 223 63 227 c 1,60,-1
 67 227 l 1,61,62
 67 225 67 225 68 225 c 1,63,-1
 68 226 l 1,64,65
 68 226 68 226 68.5 226 c 128,-1,66
 69 226 69 226 70 225 c 2,67,-1
 70 222 l 1,68,-1
 77 222 l 1,69,-1
 77 227 l 1,70,71
 78 227 78 227 78.5 227.5 c 128,-1,72
 79 228 79 228 79 228 c 1,73,-1
 79 231 l 1,74,-1
 80 231 l 1,75,-1
 80 234 l 1,76,77
 85 234 85 234 85 238 c 2,78,-1
 85 248 l 1,79,80
 85 247 85 247 84 249 c 128,-1,81
 83 251 83 251 79 252 c 1,82,-1
 79 261 l 2,83,84
 80 262 80 262 80 261 c 128,-1,85
 80 260 80 260 81 263 c 2,86,-1
 84 274 l 2,87,88
 84 275 84 275 84.5 275.5 c 128,-1,89
 85 276 85 276 85 277 c 0,90,91
 85 280 85 280 82.5 280 c 128,-1,92
 80 280 80 280 80 283 c 1,93,-1
 70 283 l 1,94,-1
 70 280 l 1,95,-1
 61 280 l 1,96,-1
 61 285 l 1,97,98
 62 285 62 285 62 284.5 c 128,-1,99
 62 284 62 284 62 284 c 1,100,101
 63 284 63 284 64 286 c 128,-1,102
 65 288 65 288 65 288 c 1,103,-1
 70 288 l 1,104,-1
 70 289 l 1,105,-1
 73 289 l 1,106,-1
 73 294 l 1,107,-1
 76 294 l 1,108,-1
 76 310 l 1,109,-1
 73 310 l 1,110,111
 71 315 71 315 67 315 c 1,112,-1
 67 318 l 1,113,-1
 63 318 l 1,114,-1
 63 325 l 1,115,-1
 61 325 l 1,116,117
 61 328 61 328 59.5 328 c 128,-1,118
 58 328 58 328 57 329 c 2,119,-1
 57 332 l 2,120,121
 56 333 56 333 52 333 c 2,122,-1
 47 333 l 1,123,-1
 47 351 l 2,124,125
 47 355 47 355 48 355.5 c 128,-1,126
 49 356 49 356 49 361 c 2,127,-1
 43 381 l 2,128,129
 40 392 40 392 40 401 c 2,130,-1
 40 417 l 2,131,132
 40 422 40 422 43 425.5 c 128,-1,133
 46 429 46 429 47 432 c 2,134,-1
 47 451 l 2,135,136
 49 452 49 452 50 454 c 128,-1,137
 51 456 51 456 53 456 c 1,138,-1
 53 459 l 2,139,140
 53 461 53 461 55 462 c 2,141,-1
 70 478 l 1,142,-1
 70 479 l 1,143,-1
 73 479 l 2,144,145
 74 478 74 478 76 478 c 2,146,-1
 82 481 l 1,147,-1
 85 485 l 1,148,-1
 85 488 l 1,149,-1
 89 488 l 1,150,-1
 91 490 l 2,151,152
 92 490 92 490 92.5 491 c 128,-1,153
 93 492 93 492 93 492 c 1,154,-1
 100 499 l 2,155,156
 101 500 101 500 104 503 c 128,-1,157
 107 506 107 506 108 506 c 2,158,-1
 109 505 l 1,159,160
 109 505 109 505 110 505.5 c 128,-1,161
 111 506 111 506 112 506 c 1,162,-1
 112 508 l 1,163,164
 112 508 112 508 115.5 515 c 128,-1,165
 119 522 119 522 121 522 c 1,166,-1
 121 525 l 2,167,168
 121 528 121 528 123 528 c 1,169,-1
 123 527 l 1,170,171
 125 527 125 527 129 532.5 c 128,-1,172
 133 538 133 538 140 538 c 1,173,-1
 140 541 l 1,174,-1
 168 541 l 1,175,-1
 176 545 l 2,176,177
 178 547 178 547 184.5 552 c 128,-1,178
 191 557 191 557 198 557 c 0,179,180
 201 557 201 557 202 556 c 2,181,-1
 206 554 l 2,182,183
 209 553 209 553 212.5 550 c 128,-1,184
 216 547 216 547 217 547 c 0,185,186
 219 547 219 547 223.5 548 c 128,-1,187
 228 549 228 549 230 550 c 0,188,189
 233 550 233 550 234 549 c 0,190,191
 236 549 236 549 241 551.5 c 128,-1,192
 246 554 246 554 260 554 c 0,193,194
 266 554 266 554 269 551 c 2,195,-1
 280 541 l 1,196,-1
 298 541 l 1,197,-1
 314 533 l 1,198,-1
 314 531 l 1,199,200
 318 529 318 529 327.5 526 c 128,-1,201
 337 523 337 523 337 523 c 1,202,-1
 337 515 l 2,203,204
 338 513 338 513 342 511.5 c 128,-1,205
 346 510 346 510 348 508 c 0,206,207
 348 502 348 502 353.5 502 c 128,-1,208
 359 502 359 502 364 498.5 c 128,-1,209
 369 495 369 495 369 478 c 1,210,-1
 374 470 l 2,211,212
 374 469 374 469 376 466 c 128,-1,213
 378 463 378 463 378 463 c 1,214,-1
 380 456 l 2,215,216
 380 450 380 450 378 450 c 1,217,-1
 378 439 l 1,218,219
 375 439 375 439 375 436 c 2,220,-1
 375 423 l 1,221,-1
 381 415 l 2,222,223
 386 409 386 409 386.5 399 c 128,-1,224
 387 389 387 389 387 378 c 2,225,-1
 387 366 l 1,226,-1
 383 366 l 1,227,-1
 383 356 l 1,228,-1
 381 356 l 1,229,230
 382 356 382 356 382 355.5 c 128,-1,231
 382 355 382 355 382 355 c 1,232,-1
 379 355 l 1,233,-1
 379 351 l 2,234,235
 377 349 377 349 377 347 c 256,236,237
 377 345 377 345 378 340.5 c 128,-1,238
 379 336 379 336 380 334 c 0,239,240
 380 333 380 333 379 331.5 c 128,-1,241
 378 330 378 330 378 330 c 1,242,-1
 378 289 l 1,243,-1
 379 289 l 1,244,-1
 379 284 l 1,245,-1
 381 284 l 1,246,247
 378 278 378 278 378 275 c 1,248,-1
 375 275 l 1,249,250
 372 271 372 271 371 266 c 2,251,-1
 371 257 l 1,252,-1
 369 257 l 1,253,254
 369 254 369 254 368.5 253.5 c 128,-1,255
 368 253 368 253 368 250 c 2,256,-1
 368 247 l 2,257,258
 367 246 367 246 366 245.5 c 128,-1,259
 365 245 365 245 365 244 c 2,260,-1
 365 240 l 2,261,262
 365 239 365 239 363 239 c 2,263,-1
 360 239 l 1,264,265
 358 235 358 235 358 234 c 1,266,267
 357 236 357 236 357 235.5 c 128,-1,268
 357 235 357 235 355 238 c 1,269,-1
 356 238 l 1,270,271
 356 239 356 239 355 239 c 2,272,-1
 352 239 l 1,273,-1
 355 243 l 1,274,275
 352 243 352 243 351 244 c 0,276,277
 351 246 351 246 351 246.5 c 128,-1,278
 351 247 351 247 355 248 c 0,279,280
 355 249 355 249 354 249.5 c 128,-1,281
 353 250 353 250 353 250 c 2,282,283
 353 251 353 251 354.5 251.5 c 128,-1,284
 356 252 356 252 356 255 c 2,285,-1
 356 257 l 1,286,-1
 360 257 l 1,287,288
 360 261 360 261 358 261 c 1,289,290
 358 263 358 263 361 263 c 1,291,-1
 361 339 l 2,292,293
 361 344 361 344 362.5 348 c 128,-1,294
 364 352 364 352 365 352 c 1,295,-1
 365 355 l 1,296,297
 366 355 366 355 366.5 355.5 c 128,-1,298
 367 356 367 356 368 356 c 1,299,-1
 368 361 l 1,300,-1
 369 361 l 1,301,-1
 369 381 l 1,302,303
 368 381 368 381 368 384 c 2,304,-1
 368 391 l 1,305,-1
 365 391 l 1,306,-1
 365 394 l 1,307,308
 364 393 364 393 363 394.5 c 128,-1,309
 362 396 362 396 361 396 c 2,310,-1
 358 396 l 1,311,-1
 358 398 l 1,312,-1
 356 398 l 1,313,-1
 356 400 l 1,314,-1
 355 400 l 1,315,-1
 355 405 l 1,316,-1
 352 405 l 1,317,-1
 352 412 l 1,318,-1
 351 412 l 1,319,-1
 351 415 l 1,320,321
 348 415 348 415 348 419 c 1,322,323
 347 417 347 417 345 417 c 2,324,-1
 338 417 l 1,325,326
 338 419 338 419 337 421 c 2,327,-1
 334 423 l 1,328,329
 335 423 335 423 335 424 c 1,330,-1
 334 423 l 1,331,-1
 334 424 l 1,332,-1
 332 428 l 1,333,-1
 321 428 l 1,334,-1
 314 438 l 1,335,-1
 313 438 l 1,336,-1
 313 437 l 1,337,338
 311 437 311 437 310 438.5 c 128,-1,339
 309 440 309 440 307 440 c 256,340,341
 305 440 305 440 302.5 439.5 c 128,-1,342
 300 439 300 439 301 438 c 1,343,-1
 297 438 l 1,344,-1
 297 436 l 1,345,-1
 293 436 l 1,346,347
 293 435 293 435 292 434 c 128,-1,348
 291 433 291 433 286 433 c 256,349,350
 281 433 281 433 277 433.5 c 128,-1,351
 273 434 273 434 270 434 c 1,352,-1
 270 436 l 1,353,354
 269 435 269 435 269 437 c 128,-1,355
 269 439 269 439 267 439 c 2,356,-1
 265 439 l 1,357,-1
 265 442 l 1,358,-1
 258 442 l 1,359,-1
 258 443 l 1,360,-1
 256 443 l 1,361,-1
 256 447 l 1,362,-1
 253 447 l 1,363,364
 253 450 253 450 254.5 450.5 c 128,-1,365
 256 451 256 451 256 452 c 0,366,367
 253 455 253 455 252 459 c 128,-1,368
 251 463 251 463 247 462 c 1,369,-1
 247 465 l 1,370,371
 241 465 241 465 231 463.5 c 128,-1,372
 221 462 221 462 221 457 c 2,373,-1
 221 456 l 1,374,-1
 220 456 l 1,375,376
 220 456 220 456 219.5 454.5 c 128,-1,377
 219 453 219 453 218 453 c 0,378,379
 216 453 216 453 216 455 c 1,380,-1
 216 451 l 1,381,-1
 204 451 l 1,382,-1
 202 454 l 1,383,-1
 202 456 l 1,384,-1
 197 456 l 2,385,386
 193 456 193 456 192 453.5 c 128,-1,387
 191 451 191 451 188 450 c 2,388,-1
 188 447 l 1,389,390
 186 447 186 447 184 450 c 1,391,-1
 184 445 l 1,392,393
 179 445 179 445 176.5 443 c 128,-1,394
 174 441 174 441 170 438 c 2,395,-1
 167 438 l 1,396,-1
 167 436 l 1,397,-1
 147 436 l 2,398,399
 146 435 146 435 143.5 431 c 128,-1,400
 141 427 141 427 141 425 c 0,401,402
 141 424 141 424 141.5 424 c 128,-1,403
 142 424 142 424 142 423 c 2,404,-1
 140 421 l 1,405,-1
 138 418 l 1,406,407
 138 418 138 418 137 418 c 128,-1,408
 136 418 136 418 135 417 c 1,409,410
 135 418 135 418 134.5 418.5 c 128,-1,411
 134 419 134 419 134 420 c 1,412,413
 129 420 129 420 129 417 c 1,414,415
 126 417 126 417 126 419 c 1,416,-1
 123 417 l 1,417,-1
 117 417 l 2,418,419
 116 417 116 417 115.5 418 c 128,-1,420
 115 419 115 419 113 419 c 0,421,422
 110 419 110 419 108.5 416 c 128,-1,423
 107 413 107 413 107 413 c 1,424,-1
 107 412 l 1,425,-1
 113 406 l 1,426,427
 113 406 113 406 113 406.5 c 128,-1,428
 113 407 113 407 114 407 c 2,429,-1
 116 407 l 1,430,431
 116 406 116 406 117 404.5 c 128,-1,432
 118 403 118 403 118 401 c 0,433,434
 118 400 118 400 116 400 c 1,435,-1
 116 387 l 2,436,437
 116 386 116 386 116.5 385.5 c 128,-1,438
 117 385 117 385 117 384 c 2,439,-1
 117 381 l 1,440,-1
 123 377 l 2,441,442
 123 375 123 375 130 375 c 0,443,444
 131 377 131 377 133 377 c 128,-1,445
 135 377 135 377 135 381 c 2,446,-1
 135 384 l 1,447,-1
 138 387 l 2,448,449
 141 390 141 390 141 391 c 2,450,-1
 140 392 l 1,451,-1
 145 392 l 1,452,-1
 145 389 l 1,453,-1
 147 389 l 1,454,-1
 147 378 l 1,455,456
 148 378 148 378 148.5 375.5 c 128,-1,457
 149 373 149 373 149 371 c 1,458,-1
 152 371 l 1,459,460
 152 370 152 370 154 365 c 128,-1,461
 156 360 156 360 156 358 c 0,462,463
 153 357 153 357 153 355 c 2,464,-1
 154 351 l 2,465,466
 154 350 154 350 153.5 350 c 128,-1,467
 153 350 153 350 153 348 c 2,468,-1
 151 346 l 2,469,470
 150 346 150 346 149.5 345.5 c 128,-1,471
 149 345 149 345 149 345 c 1,472,-1
 145 345 l 1,473,-1
 145 343 l 1,474,-1
 144 343 l 1,475,-1
 144 324 l 1,476,-1
 145 325 l 1,477,-1
 145 322 l 1,478,-1
 156 322 l 1,479,-1
 156 321 l 1,480,481
 158 324 158 324 164.5 324.5 c 128,-1,482
 171 325 171 325 178 325 c 0,483,484
 196 325 196 325 204.5 325 c 128,-1,485
 213 325 213 325 222 324 c 1,486,-1
 224 322 l 1,487,-1
 230 322 l 1,488,489
 232 317 232 317 237.5 310.5 c 128,-1,490
 243 304 243 304 244 299 c 2,491,492
 244 299 244 299 241.5 295 c 128,-1,493
 239 291 239 291 237 292 c 1,494,-1
 235 287 l 1,495,496
 235 276 235 276 224 276 c 2,497,-1
 198 276 l 1,498,-1
 191 271 l 1,499,-1
 191 270 l 1,500,-1
 180 270 l 1,501,-1
 180 271 l 1,502,-1
 176 271 l 1,503,504
 176 272 176 272 175 272 c 1,505,-1
 175 274 l 1,506,507
 174 274 174 274 174 275 c 1,508,-1
 171 275 l 1,509,510
 171 276 171 276 170 276 c 2,511,-1
 161 276 l 1,512,513
 161 278 161 278 157.5 278.5 c 128,-1,514
 154 279 154 279 156 281 c 2,515,-1
 156 283 l 1,516,-1
 153 283 l 2,517,518
 152 283 152 283 152 285 c 2,519,-1
 152 288 l 1,520,-1
 140 288 l 1,521,522
 140 289 140 289 139.5 290 c 128,-1,523
 139 291 139 291 138 293 c 2,524,-1
 135 298 l 1,525,-1
 126 298 l 2,526,527
 123 295 123 295 123 295 c 2,528,529
 122 295 122 295 122 295.5 c 128,-1,530
 122 296 122 296 117 296 c 1,531,532
 114 291 114 291 111.5 289.5 c 128,-1,533
 109 288 109 288 109 283 c 0,534,535
 109 279 109 279 110.5 278.5 c 128,-1,536
 112 278 112 278 112 276 c 1,537,-1
 116 276 l 1,538,539
 121 272 121 272 123 273 c 128,-1,540
 125 274 125 274 125 269 c 0,541,542
 125 262 125 262 118.5 264 c 128,-1,543
 112 266 112 266 112 258 c 0,544,545
 112 255 112 255 112.5 252.5 c 128,-1,546
 113 250 113 250 113 247 c 2,547,-1
 116 239 l 2,548,549
 118 234 118 234 118 232.5 c 128,-1,550
 118 231 118 231 120 228 c 2,551,-1
 123 225 l 2,552,553
 125 225 125 225 127 224.5 c 128,-1,554
 129 224 129 224 130 224 c 256,555,556
 131 224 131 224 133 224 c 128,-1,557
 135 224 135 224 135 225 c 1,558,-1
 138 225 l 1,559,-1
 141 222 l 2,560,561
 145 221 145 221 151 221 c 0,562,563
 156 221 156 221 161 222.5 c 128,-1,564
 166 224 166 224 169 224 c 2,565,-1
 171 224 l 1,566,-1
 178 225 l 1,567,-1
 178 227 l 1,568,-1
 181 227 l 2,569,570
 184 230 184 230 185.5 232 c 128,-1,571
 187 234 187 234 192 238 c 1,572,-1
 192 239 l 1,573,-1
 193 239 l 2,574,575
 194 240 194 240 194 239 c 128,-1,576
 194 238 194 238 195 238 c 256,577,578
 196 238 196 238 197 238.5 c 128,-1,579
 198 239 198 239 198 239 c 1,580,581
 201 236 201 236 201 231 c 2,582,-1
 201 217 l 1,583,584
 202 217 202 217 202.5 216.5 c 128,-1,585
 203 216 203 216 204 216 c 2,586,-1
 217 216 l 1,587,-1
 224 217 l 1,588,-1
 224 216 l 1,589,-1
 230 216 l 1,590,-1
 230 215 l 1,591,-1
 234 215 l 1,592,-1
 234 211 l 1,593,-1
 240 211 l 1,594,-1
 242 208 l 1,595,-1
 261 208 l 2,596,597
 264 208 264 208 266.5 209.5 c 128,-1,598
 269 211 269 211 274 211 c 1,599,-1
 274 207 l 1,600,-1
 276 207 l 1,601,-1
 276 199 l 1,602,603
 275 199 275 199 274.5 198.5 c 128,-1,604
 274 198 274 198 274 198 c 1,605,-1
 274 194 l 1,606,607
 273 195 273 195 272 195 c 0,608,609
 265 194 265 194 263.5 194 c 128,-1,610
 262 194 262 194 260 188 c 1,611,-1
 256 188 l 1,612,-1
 256 185 l 1,613,614
 252 187 252 187 250 187 c 256,615,616
 248 187 248 187 246.5 185.5 c 128,-1,617
 245 184 245 184 240 184 c 1,618,-1
 240 180 l 2,619,620
 240 179 240 179 242 177 c 2,621,-1
 247 174 l 1,622,-1
 247 172 l 1,623,-1
 242 172 l 2,624,625
 240 172 240 172 239.5 171.5 c 128,-1,626
 239 171 239 171 238 171 c 1,627,-1
 238 172 l 1,628,629
 233 172 233 172 227.5 171.5 c 128,-1,630
 222 171 222 171 217 171 c 0,631,632
 216 172 216 172 216 173 c 128,-1,633
 216 174 216 174 214 175 c 2,634,-1
 212 178 l 1,635,-1
 207 178 l 1,636,-1
 207 180 l 1,637,-1
 197 180 l 1,638,-1
 197 178 l 2,639,640
 196 177 196 177 194.5 177.5 c 128,-1,641
 193 178 193 178 193 176 c 2,642,-1
 193 166 l 1,643,-1
 196 163 l 2,644,645
 196 162 196 162 196.5 161 c 128,-1,646
 197 160 197 160 197 158 c 1,647,-1
 212 158 l 2,648,649
 213 158 213 158 213 157.5 c 128,-1,650
 213 157 213 157 214 157 c 1,651,-1
 214 155 l 2,652,653
 213 154 213 154 210 154 c 2,654,-1
 202 154 l 2,655,656
 193 154 193 154 189.5 157.5 c 128,-1,657
 186 161 186 161 182.5 164.5 c 128,-1,658
 179 168 179 168 170 168 c 1,659,-1
 170 166 l 1,660,661
 169 166 169 166 168.5 165 c 128,-1,662
 168 164 168 164 167 165 c 1,663,-1
 167 161 l 1,664,-1
 165 158 l 2,665,666
 165 157 165 157 163 155 c 1,667,668
 161 157 161 157 157 157 c 1,669,-1
 157 155 l 1,670,-1
 153 155 l 1,671,672
 153 152 153 152 149 148 c 1,673,-1
 152 145 l 1,674,-1
 152 116 l 1,675,-1
 149 116 l 1,676,677
 149 112 149 112 151.5 111 c 128,-1,678
 154 110 154 110 153 110 c 2,679,-1
 152 109 l 1,680,681
 152 109 152 109 153 108.5 c 128,-1,682
 154 108 154 108 156 108 c 2,683,-1
 161 108 l 2,684,685
 163 110 163 110 165 110 c 2,686,-1
 167 106 l 2,687,688
 168 105 168 105 168 104 c 128,-1,689
 168 103 168 103 168 103 c 2,690,691
 167 101 167 101 167 96 c 2,692,-1
 167 89 l 1,693,694
 168 89 168 89 168.5 87 c 128,-1,695
 169 85 169 85 170 85 c 256,696,697
 171 85 171 85 171 84 c 2,698,-1
 181 76 l 2,699,700
 181 74 181 74 182 74 c 256,701,702
 183 74 183 74 184 75 c 128,-1,703
 185 76 185 76 185 76 c 1,704,-1
 188 76 l 1,705,-1
 188 73 l 1,706,-1
 193 73 l 2,707,708
 194 73 194 73 198 71 c 0,709,710
 200 71 200 71 202.5 72.5 c 128,-1,711
 205 74 205 74 206 74 c 256,712,713
 207 74 207 74 207 73 c 2,714,-1
 207 71 l 1,715,-1
 214 71 l 1,716,-1
 216 67 l 1,717,-1
 240 67 l 1,718,719
 239 67 239 67 240.5 66.5 c 128,-1,720
 242 66 242 66 242 64 c 1,721,-1
 243 65 l 1,722,723
 244 64 244 64 247 61.5 c 128,-1,724
 250 59 250 59 251 58 c 2,725,-1
 265 58 l 1,726,-1
 268 60 l 1,727,728
 267 60 267 60 267 60.5 c 128,-1,729
 267 61 267 61 267 61 c 2,730,731
 267 63 267 63 270 63 c 0,732,733
 274 60 274 60 274 54 c 1,734,-1
 273 54 l 1,735,736
 274 53 274 53 274 50 c 1,737,738
 267 50 267 50 266.5 45 c 128,-1,739
 266 40 266 40 256 40 c 1,740,741
 257 39 257 39 257 38.5 c 128,-1,742
 257 38 257 38 257 38 c 257,743,744
 257 38 257 38 257 37.5 c 128,-1,745
 257 37 257 37 256 37 c 2,746,-1
 253 37 l 1,747,748
 253 36 253 36 251 32 c 1,749,-1
 247 32 l 1,750,-1
 247 27 l 1,751,-1
 244 27 l 1,752,-1
 244 22 l 1,753,754
 243 22 243 22 242.5 22.5 c 128,-1,755
 242 23 242 23 241 23 c 1,756,757
 241 24 241 24 238.5 20.5 c 128,-1,758
 236 17 236 17 236 13 c 2,759,-1
 230 4 l 1,760,-1
 221 4 l 1,761,-1
 221 2 l 2,762,763
 220 1 220 1 217.5 0.5 c 128,-1,764
 215 0 215 0 213 -2 c 0,765,766
 213 -5 213 -5 214 -6 c 1,767,-1
 212 -8 l 1,768,-1
 207 -8 l 1,769,-1
 207 -10 l 1,770,-1
 204 -10 l 1,771,-1
 204 -11 l 1,772,-1
 202 -11 l 1,773,-1
 202 -18 l 1,774,-1
 147 -18 l 1,775,-1
 147 -15 l 1,0,1
61 240 m 1,776,777
 58 243 58 243 58 245 c 2,778,-1
 58 248 l 1,779,-1
 55 250 l 1,780,781
 55 250 55 250 54.5 250.5 c 128,-1,782
 54 251 54 251 54 252 c 2,783,-1
 54 255 l 1,784,-1
 52 255 l 1,785,-1
 52 257 l 2,786,787
 51 258 51 258 51 263 c 1,788,-1
 52 263 l 1,789,-1
 52 264 l 1,790,-1
 55 264 l 2,791,792
 57 262 57 262 57 261 c 2,793,-1
 58 260 l 1,794,-1
 60 260 l 1,795,-1
 60 257 l 2,796,797
 61 255 61 255 62 253 c 128,-1,798
 63 251 63 251 63 250 c 2,799,-1
 63 247 l 1,800,-1
 62 247 l 1,801,802
 62 246 62 246 62.5 245.5 c 128,-1,803
 63 245 63 245 63 244 c 1,804,-1
 68 244 l 1,805,806
 66 243 66 243 64.5 242.5 c 128,-1,807
 63 242 63 242 61 240 c 1,776,777
54 283 m 2,808,809
 51 285 51 285 51 287 c 0,810,811
 54 289 54 289 54 291 c 1,812,-1
 53 291 l 1,813,-1
 53 297 l 1,814,-1
 51 297 l 1,815,-1
 51 305 l 1,816,-1
 52 305 l 1,817,-1
 53 306 l 1,818,-1
 53 305 l 1,819,-1
 54 305 l 1,820,-1
 54 301 l 2,821,822
 54 300 54 300 54.5 300 c 128,-1,823
 55 300 55 300 55 299 c 256,824,825
 55 298 55 298 57 298 c 1,826,-1
 57 296 l 1,827,-1
 58 295 l 2,828,829
 59 295 59 295 59 294.5 c 128,-1,830
 59 294 59 294 60 294 c 1,831,-1
 60 286 l 1,832,-1
 59 286 l 1,833,834
 59 286 59 286 57 284 c 2,835,-1
 57 283 l 1,836,-1
 54 283 l 2,808,809
221 126 m 0,837,838
 216 129 216 129 216 130 c 1,839,840
 215 130 215 130 214.5 129.5 c 128,-1,841
 214 129 214 129 214 129 c 2,842,843
 213 129 213 129 213 131 c 1,844,-1
 207 131 l 1,845,-1
 204 133 l 2,846,847
 204 136 204 136 205 136 c 1,848,-1
 205 140 l 1,849,-1
 206 140 l 2,850,851
 208 140 208 140 209 139.5 c 128,-1,852
 210 139 210 139 215 139 c 1,853,854
 215 142 215 142 217 142 c 2,855,-1
 220 142 l 2,856,857
 221 142 221 142 221 142.5 c 128,-1,858
 221 143 221 143 223 143 c 2,859,-1
 226 143 l 1,860,861
 223 145 223 145 221 144.5 c 128,-1,862
 219 144 219 144 219 147 c 1,863,-1
 216 147 l 2,864,865
 215 146 215 146 214 147 c 128,-1,866
 213 148 213 148 213 149 c 2,867,-1
 214 150 l 1,868,-1
 214 153 l 1,869,-1
 225 153 l 2,870,871
 226 153 226 153 225.5 154 c 128,-1,872
 225 155 225 155 226 155 c 0,873,874
 229 153 229 153 229 153 c 1,875,-1
 234 153 l 1,876,877
 234 155 234 155 237 155 c 0,878,879
 239 155 239 155 241.5 152.5 c 128,-1,880
 244 150 244 150 244 148 c 2,881,-1
 244 147 l 1,882,-1
 236 147 l 1,883,884
 236 145 236 145 232 145 c 1,885,-1
 232 142 l 1,886,887
 233 142 233 142 234 143 c 2,888,-1
 238 143 l 2,889,890
 239 143 239 143 240 144 c 1,891,892
 240 143 240 143 244 141 c 128,-1,893
 248 139 248 139 248 135 c 1,894,895
 250 135 250 135 244.5 132.5 c 128,-1,896
 239 130 239 130 234 130 c 2,897,-1
 231 130 l 2,898,899
 230 129 230 129 225 129 c 1,900,-1
 225 127 l 1,901,902
 222 127 222 127 221 126 c 0,837,838
238 158 m 2,903,904
 237 158 237 158 237 162 c 1,905,-1
 239 162 l 1,906,907
 239 162 239 162 239.5 162 c 128,-1,908
 240 162 240 162 241 161 c 1,909,-1
 241 163 l 1,910,-1
 251 163 l 2,911,912
 252 162 252 162 252 161.5 c 128,-1,913
 252 161 252 161 252 161 c 2,914,915
 249 158 249 158 241 158 c 2,916,-1
 238 158 l 2,903,904
287 74 m 2,917,918
 287 74 287 74 285 74.5 c 128,-1,919
 283 75 283 75 283 77 c 2,920,-1
 285 81 l 1,921,922
 284 81 284 81 285 82.5 c 128,-1,923
 286 84 286 84 284 85 c 1,924,-1
 288 85 l 1,925,-1
 288 87 l 1,926,-1
 289 87 l 1,927,-1
 289 89 l 1,928,-1
 291 89 l 1,929,930
 291 89 291 89 294.5 94 c 128,-1,931
 298 99 298 99 302 100 c 1,932,-1
 298 103 l 1,933,934
 298 103 298 103 298.5 103.5 c 128,-1,935
 299 104 299 104 300 104 c 2,936,-1
 302 104 l 1,937,-1
 302 111 l 1,938,-1
 304 114 l 2,939,940
 302 116 302 116 302 116 c 1,941,-1
 303 116 l 1,942,943
 303 116 303 116 304 116.5 c 128,-1,944
 305 117 305 117 305 120 c 2,945,-1
 305 122 l 1,946,-1
 307 122 l 1,947,-1
 307 127 l 1,948,-1
 309 127 l 1,949,950
 309 129 309 129 310.5 128.5 c 128,-1,951
 312 128 312 128 312 129 c 2,952,-1
 312 131 l 1,953,-1
 316 131 l 1,954,-1
 316 132 l 1,955,-1
 321 132 l 2,956,957
 323 133 323 133 325 138.5 c 128,-1,958
 327 144 327 144 334 144 c 0,959,960
 338 144 338 144 338 139 c 2,961,-1
 338 136 l 2,962,963
 338 135 338 135 337.5 135 c 128,-1,964
 337 135 337 135 337 134 c 1,965,-1
 338 134 l 1,966,967
 338 133 338 133 337 132 c 2,968,-1
 335 132 l 1,969,-1
 335 129 l 2,970,971
 334 127 334 127 332 127 c 128,-1,972
 330 127 330 127 328 125 c 2,973,-1
 322 121 l 2,974,975
 319 116 319 116 316 116 c 2,976,-1
 314 114 l 2,977,978
 313 112 313 112 312 110 c 128,-1,979
 311 108 311 108 309 106 c 2,980,-1
 309 103 l 1,981,-1
 307 100 l 2,982,983
 306 100 306 100 306 100.5 c 128,-1,984
 306 101 306 101 305 101 c 0,985,986
 301 101 301 101 301 96 c 0,987,988
 302 94 302 94 302 90.5 c 128,-1,989
 302 87 302 87 302 87 c 1,990,-1
 302 80 l 1,991,-1
 297 80 l 1,992,-1
 297 77 l 1,993,-1
 291 77 l 2,994,995
 290 77 290 77 289.5 75.5 c 128,-1,996
 289 74 289 74 287 74 c 2,917,918
297 260 m 1,997,998
 296 260 296 260 292.5 265 c 128,-1,999
 289 270 289 270 287 270 c 2,1000,-1
 270 270 l 1,1001,1002
 270 271 270 271 269 271 c 1,1003,1004
 269 274 269 274 270 275 c 128,-1,1005
 271 276 271 276 271 278 c 2,1006,1007
 271 278 271 278 271 279 c 128,-1,1008
 271 280 271 280 270 281 c 2,1009,-1
 265 285 l 1,1010,1011
 266 286 266 286 266 287 c 128,-1,1012
 266 288 266 288 266 288 c 1,1013,-1
 265 294 l 1,1014,1015
 267 294 267 294 267 296 c 2,1016,-1
 267 297 l 1,1017,1018
 267 297 267 297 268.5 298 c 128,-1,1019
 270 299 270 299 269 300 c 2,1020,-1
 269 303 l 1,1021,-1
 270 303 l 1,1022,-1
 274 307 l 1,1023,1024
 274 307 274 307 277 308.5 c 128,-1,1025
 280 310 280 310 283 310 c 1,1026,-1
 283 312 l 2,1027,1028
 283 314 283 314 284 315 c 2,1029,-1
 291 315 l 1,1030,-1
 291 317 l 1,1031,-1
 298 318 l 1,1032,-1
 302 315 l 1,1033,-1
 311 315 l 1,1034,-1
 314 310 l 1,1035,-1
 319 310 l 1,1036,1037
 319 306 319 306 323 306 c 0,1038,1039
 325 306 325 306 328 308 c 128,-1,1040
 331 310 331 310 332 310 c 1,1041,1042
 332 307 332 307 334 305.5 c 128,-1,1043
 336 304 336 304 336 304 c 1,1044,-1
 337 305 l 1,1045,-1
 337 301 l 1,1046,-1
 341 301 l 1,1047,-1
 341 299 l 1,1048,1049
 345 299 345 299 345 297 c 2,1050,-1
 345 294 l 1,1051,-1
 343 292 l 1,1052,-1
 344 292 l 1,1053,1054
 344 291 344 291 342 289 c 128,-1,1055
 340 287 340 287 340 285 c 0,1056,1057
 340 284 340 284 341 284 c 128,-1,1058
 342 284 342 284 342 283 c 0,1059,1060
 342 276 342 276 332.5 276.5 c 128,-1,1061
 323 277 323 277 319 273 c 1,1062,-1
 319 271 l 1,1063,1064
 318 271 318 271 317 270.5 c 128,-1,1065
 316 270 316 270 314 270 c 1,1066,-1
 314 267 l 2,1067,1068
 313 266 313 266 311 264.5 c 128,-1,1069
 309 263 309 263 309 261 c 1,1070,-1
 297 261 l 1,1071,-1
 297 260 l 1,997,998
EndSplineSet
EndChar

StartChar: approxequal
Encoding: 8776 8776 244
Width: 460
GlyphClass: 1
Flags: W
LayerCount: 2
Fore
SplineSet
52 329 m 1,0,1
 52 371 52 371 78 390 c 128,-1,2
 104 409 104 409 145 409 c 0,3,4
 179 409 179 409 204 398.5 c 128,-1,5
 229 388 229 388 251 376.5 c 128,-1,6
 273 365 273 365 298 365 c 0,7,8
 330 365 330 365 344 379.5 c 128,-1,9
 358 394 358 394 358 409 c 1,10,-1
 398 409 l 1,11,12
 398 381 398 381 385 363.5 c 128,-1,13
 372 346 372 346 351 338.5 c 128,-1,14
 330 331 330 331 306 331 c 0,15,16
 280 331 280 331 260.5 338 c 128,-1,17
 241 345 241 345 224.5 354 c 128,-1,18
 208 363 208 363 191 369.5 c 128,-1,19
 174 376 174 376 154 376 c 0,20,21
 128 376 128 376 112 363.5 c 128,-1,22
 96 351 96 351 96 329 c 1,23,-1
 52 329 l 1,0,1
62 142 m 1,24,25
 62 184 62 184 88 203 c 128,-1,26
 114 222 114 222 155 222 c 0,27,28
 189 222 189 222 214 211 c 128,-1,29
 239 200 239 200 261 189 c 128,-1,30
 283 178 283 178 308 178 c 0,31,32
 340 178 340 178 354 192.5 c 128,-1,33
 368 207 368 207 368 222 c 1,34,-1
 408 222 l 1,35,36
 408 194 408 194 395 176.5 c 128,-1,37
 382 159 382 159 361 151.5 c 128,-1,38
 340 144 340 144 316 144 c 0,39,40
 290 144 290 144 270.5 151 c 128,-1,41
 251 158 251 158 234.5 167 c 128,-1,42
 218 176 218 176 201 182.5 c 128,-1,43
 184 189 184 189 164 189 c 0,44,45
 138 189 138 189 122 176.5 c 128,-1,46
 106 164 106 164 106 142 c 1,47,-1
 62 142 l 1,24,25
EndSplineSet
EndChar

StartChar: asciicircum
Encoding: 94 94 247
Width: 301
GlyphClass: 1
Flags: W
LayerCount: 2
Fore
SplineSet
38 648 m 1,0,-1
 126 741 l 1,1,-1
 176 741 l 1,2,-1
 264 648 l 1,3,-1
 230 648 l 1,4,-1
 151 721 l 1,5,-1
 72 648 l 1,6,-1
 38 648 l 1,0,-1
EndSplineSet
EndChar

StartChar: asciitilde
Encoding: 126 126 248
Width: 417
GlyphClass: 1
Flags: W
LayerCount: 2
Fore
SplineSet
52 621 m 1,0,1
 52 663 52 663 75.5 682.5 c 128,-1,2
 99 702 99 702 136 702 c 0,3,4
 167 702 167 702 189.5 691 c 128,-1,5
 212 680 212 680 232.5 669 c 128,-1,6
 253 658 253 658 277 658 c 0,7,8
 307 658 307 658 319.5 672.5 c 128,-1,9
 332 687 332 687 332 701 c 1,10,-1
 366 701 l 1,11,12
 366 659 366 659 340.5 641.5 c 128,-1,13
 315 624 315 624 282 624 c 0,14,15
 251 624 251 624 229 635.5 c 128,-1,16
 207 647 207 647 187 658.5 c 128,-1,17
 167 670 167 670 143 670 c 0,18,19
 118 670 118 670 103 656.5 c 128,-1,20
 88 643 88 643 88 621 c 1,21,-1
 52 621 l 1,0,1
EndSplineSet
EndChar

StartChar: asterisk
Encoding: 42 42 249
Width: 429
GlyphClass: 1
Flags: W
LayerCount: 2
Fore
SplineSet
134 315 m 1,0,-1
 105 336 l 1,1,-1
 204 451 l 1,2,-1
 58 486 l 1,3,-1
 67 516 l 1,4,-1
 210 465 l 1,5,-1
 198 613 l 1,6,-1
 233 613 l 1,7,-1
 223 465 l 1,8,-1
 362 520 l 1,9,-1
 372 491 l 1,10,-1
 228 451 l 1,11,-1
 325 336 l 1,12,-1
 297 316 l 1,13,-1
 216 444 l 1,14,-1
 134 315 l 1,0,-1
EndSplineSet
EndChar

StartChar: at
Encoding: 64 64 250
Width: 591
GlyphClass: 1
Flags: W
LayerCount: 2
Fore
SplineSet
296 -73 m 0,0,1
 208 -72 208 -72 151 -42.5 c 128,-1,2
 94 -13 94 -13 66.5 54 c 128,-1,3
 39 121 39 121 39 231 c 0,4,5
 39 321 39 321 55 379.5 c 128,-1,6
 71 438 71 438 103 471.5 c 128,-1,7
 135 505 135 505 184 518.5 c 128,-1,8
 233 532 233 532 299 532 c 0,9,10
 378 532 378 532 434.5 507 c 128,-1,11
 491 482 491 482 521.5 424.5 c 128,-1,12
 552 367 552 367 552 268 c 0,13,14
 552 241 552 241 550 209.5 c 128,-1,15
 548 178 548 178 541 147.5 c 128,-1,16
 534 117 534 117 520 91.5 c 128,-1,17
 506 66 506 66 483 50.5 c 128,-1,18
 460 35 460 35 426 35 c 0,19,20
 394 35 394 35 379 52 c 128,-1,21
 364 69 364 69 364 117 c 1,22,23
 358 100 358 100 345.5 91 c 128,-1,24
 333 82 333 82 309 82 c 2,25,-1
 272 82 l 2,26,27
 241 82 241 82 226 93 c 128,-1,28
 211 104 211 104 206 123.5 c 128,-1,29
 201 143 201 143 201 167 c 2,30,-1
 201 187 l 2,31,32
 201 229 201 229 212.5 251.5 c 128,-1,33
 224 274 224 274 259 274 c 2,34,-1
 349 274 l 1,35,-1
 349 326 l 2,36,37
 348 351 348 351 340.5 364.5 c 128,-1,38
 333 378 333 378 307 378 c 2,39,-1
 285 378 l 2,40,41
 246 378 246 378 246 326 c 2,42,-1
 246 302 l 1,43,-1
 209 302 l 1,44,-1
 209 328 l 2,45,46
 209 363 209 363 225.5 381.5 c 128,-1,47
 242 400 242 400 274 400 c 2,48,-1
 304 400 l 2,49,50
 338 400 338 400 356 391 c 128,-1,51
 374 382 374 382 381 365 c 128,-1,52
 388 348 388 348 388 322 c 2,53,-1
 388 160 l 2,54,55
 388 118 388 118 391 97.5 c 128,-1,56
 394 77 394 77 402 70.5 c 128,-1,57
 410 64 410 64 425 64 c 0,58,59
 447 64 447 64 462 80 c 128,-1,60
 477 96 477 96 486 124.5 c 128,-1,61
 495 153 495 153 498.5 188 c 128,-1,62
 502 223 502 223 502 261 c 0,63,64
 502 308 502 308 494 352 c 128,-1,65
 486 396 486 396 465 429.5 c 128,-1,66
 444 463 444 463 404.5 482.5 c 128,-1,67
 365 502 365 502 300 502 c 0,68,69
 224 502 224 502 177.5 476 c 128,-1,70
 131 450 131 450 110 391 c 128,-1,71
 89 332 89 332 89 231 c 0,72,73
 89 145 89 145 106.5 83.5 c 128,-1,74
 124 22 124 22 169.5 -10.5 c 128,-1,75
 215 -43 215 -43 300 -43 c 0,76,77
 321 -43 321 -43 346 -39.5 c 128,-1,78
 371 -36 371 -36 393.5 -29.5 c 128,-1,79
 416 -23 416 -23 426 -17 c 1,80,-1
 437 -38 l 1,81,82
 416 -54 416 -54 376 -63.5 c 128,-1,83
 336 -73 336 -73 296 -73 c 0,0,1
304 106 m 2,84,85
 325 106 325 106 337 119 c 128,-1,86
 349 132 349 132 349 158 c 2,87,-1
 349 251 l 1,88,-1
 278 251 l 2,89,90
 257 251 257 251 248 239.5 c 128,-1,91
 239 228 239 228 239 197 c 2,92,-1
 239 163 l 2,93,94
 239 129 239 129 251 117.5 c 128,-1,95
 263 106 263 106 285 106 c 2,96,-1
 304 106 l 2,84,85
EndSplineSet
EndChar

StartChar: b
Encoding: 98 98 252
Width: 395
GlyphClass: 1
Flags: W
LayerCount: 2
Fore
SplineSet
60 0 m 1,0,-1
 60 629 l 1,1,-1
 110 629 l 1,2,-1
 110 470 l 1,3,-1
 234 470 l 2,4,5
 279 470 279 470 302 463 c 128,-1,6
 325 456 325 456 333 436 c 128,-1,7
 341 416 341 416 341 377 c 2,8,-1
 341 131 l 2,9,10
 341 77 341 77 337.5 48.5 c 128,-1,11
 334 20 334 20 318 10 c 128,-1,12
 302 0 302 0 263 0 c 2,13,-1
 60 0 l 1,0,-1
110 41 m 1,14,-1
 242 41 l 2,15,16
 264 41 264 41 274 46.5 c 128,-1,17
 284 52 284 52 287.5 68 c 128,-1,18
 291 84 291 84 291 115 c 2,19,-1
 291 353 l 2,20,21
 291 382 291 382 289 398.5 c 128,-1,22
 287 415 287 415 276 422 c 128,-1,23
 265 429 265 429 237 429 c 2,24,-1
 110 429 l 1,25,-1
 110 41 l 1,14,-1
EndSplineSet
EndChar

StartChar: backslash
Encoding: 92 92 253
Width: 450
GlyphClass: 1
Flags: W
LayerCount: 2
Fore
SplineSet
380 -44 m 1,0,-1
 38 630 l 1,1,-1
 72 630 l 1,2,-1
 412 -44 l 1,3,-1
 380 -44 l 1,0,-1
EndSplineSet
EndChar

StartChar: bar
Encoding: 124 124 254
Width: 218
GlyphClass: 1
Flags: W
LayerCount: 2
Fore
SplineSet
88 649 m 1,0,-1
 130 649 l 1,1,-1
 130 -73 l 1,2,-1
 88 -73 l 1,3,-1
 88 649 l 1,0,-1
EndSplineSet
EndChar

StartChar: braceleft
Encoding: 123 123 255
Width: 313
GlyphClass: 1
Flags: W
LayerCount: 2
Fore
SplineSet
259 -135 m 1,0,1
 194 -135 194 -135 155.5 -121 c 128,-1,2
 117 -107 117 -107 97 -86 c 128,-1,3
 77 -65 77 -65 70 -43.5 c 128,-1,4
 63 -22 63 -22 63 -7 c 0,5,6
 63 30 63 30 71 62 c 128,-1,7
 79 94 79 94 86.5 123.5 c 128,-1,8
 94 153 94 153 94 182 c 0,9,10
 94 220 94 220 78.5 240.5 c 128,-1,11
 63 261 63 261 34 261 c 1,12,-1
 34 269 l 1,13,14
 63 269 63 269 78.5 290 c 128,-1,15
 94 311 94 311 94 348 c 0,16,17
 94 380 94 380 86.5 408.5 c 128,-1,18
 79 437 79 437 71 467.5 c 128,-1,19
 63 498 63 498 63 537 c 0,20,21
 63 552 63 552 70 573.5 c 128,-1,22
 77 595 77 595 97 616 c 128,-1,23
 117 637 117 637 155.5 651 c 128,-1,24
 194 665 194 665 259 665 c 1,25,-1
 259 633 l 1,26,27
 213 633 213 633 185 622 c 128,-1,28
 157 611 157 611 142 595 c 128,-1,29
 127 579 127 579 121 561 c 128,-1,30
 115 543 115 543 115 528 c 0,31,32
 115 500 115 500 122 473.5 c 128,-1,33
 129 447 129 447 135.5 419.5 c 128,-1,34
 142 392 142 392 142 359 c 0,35,36
 142 321 142 321 126 297 c 128,-1,37
 110 273 110 273 73 265 c 1,38,39
 110 258 110 258 126 234 c 128,-1,40
 142 210 142 210 142 171 c 0,41,42
 142 140 142 140 135.5 113 c 128,-1,43
 129 86 129 86 122 59.5 c 128,-1,44
 115 33 115 33 115 2 c 0,45,46
 115 -13 115 -13 121 -31 c 128,-1,47
 127 -49 127 -49 142 -65 c 128,-1,48
 157 -81 157 -81 185 -92 c 128,-1,49
 213 -103 213 -103 259 -103 c 1,50,-1
 259 -135 l 1,0,1
EndSplineSet
EndChar

StartChar: braceright
Encoding: 125 125 256
Width: 313
GlyphClass: 1
Flags: W
LayerCount: 2
Fore
SplineSet
54 -135 m 1,0,-1
 54 -103 l 1,1,2
 100 -103 100 -103 128 -92 c 128,-1,3
 156 -81 156 -81 171 -65 c 128,-1,4
 186 -49 186 -49 191.5 -31 c 128,-1,5
 197 -13 197 -13 197 2 c 0,6,7
 197 33 197 33 190.5 59.5 c 128,-1,8
 184 86 184 86 177 113 c 128,-1,9
 170 140 170 140 170 171 c 0,10,11
 170 210 170 210 186.5 234 c 128,-1,12
 203 258 203 258 240 265 c 1,13,14
 203 273 203 273 186.5 297 c 128,-1,15
 170 321 170 321 170 359 c 0,16,17
 170 392 170 392 177 419.5 c 128,-1,18
 184 447 184 447 190.5 473.5 c 128,-1,19
 197 500 197 500 197 528 c 0,20,21
 197 543 197 543 191.5 561 c 128,-1,22
 186 579 186 579 171 595 c 128,-1,23
 156 611 156 611 128 622 c 128,-1,24
 100 633 100 633 54 633 c 1,25,-1
 54 665 l 1,26,27
 119 665 119 665 157.5 651 c 128,-1,28
 196 637 196 637 216 616 c 128,-1,29
 236 595 236 595 243 573.5 c 128,-1,30
 250 552 250 552 250 537 c 0,31,32
 250 498 250 498 242.5 467.5 c 128,-1,33
 235 437 235 437 227 408.5 c 128,-1,34
 219 380 219 380 219 348 c 0,35,36
 219 311 219 311 234.5 290 c 128,-1,37
 250 269 250 269 279 269 c 1,38,-1
 279 261 l 1,39,40
 250 261 250 261 234.5 240.5 c 128,-1,41
 219 220 219 220 219 182 c 0,42,43
 219 153 219 153 227 123.5 c 128,-1,44
 235 94 235 94 242.5 62 c 128,-1,45
 250 30 250 30 250 -7 c 0,46,47
 250 -22 250 -22 243 -43.5 c 128,-1,48
 236 -65 236 -65 216 -86 c 128,-1,49
 196 -107 196 -107 157.5 -121 c 128,-1,50
 119 -135 119 -135 54 -135 c 1,0,-1
EndSplineSet
EndChar

StartChar: bracketleft
Encoding: 91 91 257
Width: 217
GlyphClass: 1
Flags: W
LayerCount: 2
Fore
SplineSet
36 630 m 1,0,-1
 178 630 l 1,1,-1
 178 608 l 1,2,-1
 86 608 l 1,3,-1
 86 -35 l 1,4,-1
 178 -35 l 1,5,-1
 178 -57 l 1,6,-1
 36 -57 l 1,7,-1
 36 630 l 1,0,-1
EndSplineSet
EndChar

StartChar: bracketright
Encoding: 93 93 258
Width: 217
GlyphClass: 1
Flags: W
LayerCount: 2
Fore
SplineSet
39 -35 m 1,0,-1
 130 -35 l 1,1,-1
 130 608 l 1,2,-1
 39 608 l 1,3,-1
 39 630 l 1,4,-1
 180 630 l 1,5,-1
 180 -57 l 1,6,-1
 39 -57 l 1,7,-1
 39 -35 l 1,0,-1
EndSplineSet
EndChar

StartChar: uni0306
Encoding: 774 774 261
Width: 0
GlyphClass: 4
Flags: W
AnchorPoint: "Anchor-6" 104 581 basemark 0
AnchorPoint: "Anchor-6" 104 470 mark 0
AnchorPoint: "Anchor-0" 104 470 mark 0
LayerCount: 2
Fore
SplineSet
102 528 m 0,0,1
 64 528 64 528 43 542 c 128,-1,2
 22 556 22 556 14 577.5 c 128,-1,3
 6 599 6 599 6 620 c 1,4,-1
 39 620 l 1,5,6
 39 595 39 595 53 575.5 c 128,-1,7
 67 556 67 556 102 556 c 0,8,9
 140 556 140 556 155 575 c 128,-1,10
 170 594 170 594 170 620 c 1,11,-1
 202 620 l 1,12,13
 202 582 202 582 179 555 c 128,-1,14
 156 528 156 528 102 528 c 0,0,1
EndSplineSet
Substitution2: "'case' Case-Sensitive Forms in Latin lookup 25 subtable" uni0306.case
Substitution2: "Single Substitution lookup 7 subtable" uni0306.case
Substitution2: "Single Substitution lookup 6 subtable" uni0306.case
Substitution2: "Single Substitution lookup 4 subtable" uni0306.case
Substitution2: "Single Substitution lookup 3 subtable" uni0306.case
Substitution2: "'aalt' Access All Alternates in Latin lookup 0 subtable" uni0306.case
EndChar

StartChar: uni0306.case
Encoding: 65539 -1 262
Width: 0
GlyphClass: 4
Flags: W
AnchorPoint: "Anchor-6" 104 581 basemark 0
AnchorPoint: "Anchor-6" 104 470 mark 0
AnchorPoint: "Anchor-0" 104 470 mark 0
LayerCount: 2
Fore
SplineSet
102 528 m 0,0,1
 64 528 64 528 43 542 c 128,-1,2
 22 556 22 556 14 577.5 c 128,-1,3
 6 599 6 599 6 620 c 1,4,-1
 39 620 l 1,5,6
 39 597 39 597 53 576 c 128,-1,7
 67 555 67 555 102 555 c 0,8,9
 140 555 140 555 154.5 576 c 128,-1,10
 169 597 169 597 170 620 c 1,11,-1
 202 620 l 1,12,13
 202 580 202 580 179 554 c 128,-1,14
 156 528 156 528 102 528 c 0,0,1
EndSplineSet
EndChar

StartChar: uni03060301.case
Encoding: 65541 -1 264
Width: 0
GlyphClass: 4
Flags: W
AnchorPoint: "Anchor-6" 105 594 basemark 0
AnchorPoint: "Anchor-6" 89 376 mark 0
AnchorPoint: "Anchor-0" 89 376 mark 0
LayerCount: 2
Fore
SplineSet
88 420 m 0,0,1
 57 420 57 420 39 431.5 c 128,-1,2
 21 443 21 443 14 460.5 c 128,-1,3
 7 478 7 478 7 496 c 1,4,-1
 40 496 l 1,5,6
 40 478 40 478 51 462.5 c 128,-1,7
 62 447 62 447 88 447 c 0,8,9
 116 447 116 447 127.5 462.5 c 128,-1,10
 139 478 139 478 140 496 c 1,11,-1
 172 496 l 1,12,13
 172 463 172 463 152.5 441.5 c 128,-1,14
 133 420 133 420 88 420 c 0,0,1
45 517 m 1,15,-1
 117 594 l 1,16,-1
 164 594 l 1,17,-1
 79 517 l 1,18,-1
 45 517 l 1,15,-1
EndSplineSet
Ligature2: "'ccmp' Glyph Composition/Decomposition in Latin lookup 9 subtable" uni0306.case acutecomb.case
EndChar

StartChar: uni03060300.case
Encoding: 65543 -1 266
Width: 0
GlyphClass: 4
Flags: W
AnchorPoint: "Anchor-6" 67 594 basemark 0
AnchorPoint: "Anchor-6" 95 376 mark 0
AnchorPoint: "Anchor-0" 95 376 mark 0
LayerCount: 2
Fore
SplineSet
92 420 m 0,0,1
 62 420 62 420 44 431.5 c 128,-1,2
 26 443 26 443 19 461 c 128,-1,3
 12 479 12 479 12 496 c 1,4,-1
 44 496 l 1,5,6
 44 478 44 478 56 462.5 c 128,-1,7
 68 447 68 447 94 447 c 0,8,9
 121 447 121 447 132.5 462.5 c 128,-1,10
 144 478 144 478 144 496 c 1,11,-1
 178 496 l 1,12,13
 178 463 178 463 158 441.5 c 128,-1,14
 138 420 138 420 92 420 c 0,0,1
93 517 m 1,15,-1
 7 594 l 1,16,-1
 56 594 l 1,17,-1
 125 517 l 1,18,-1
 93 517 l 1,15,-1
EndSplineSet
Ligature2: "'ccmp' Glyph Composition/Decomposition in Latin lookup 9 subtable" uni0306.case gravecomb.case
EndChar

StartChar: uni03060309.case
Encoding: 65545 -1 268
Width: 0
GlyphClass: 4
Flags: W
AnchorPoint: "Anchor-6" 89 628 basemark 0
AnchorPoint: "Anchor-6" 89 376 mark 0
AnchorPoint: "Anchor-0" 89 376 mark 0
LayerCount: 2
Fore
SplineSet
88 420 m 0,0,1
 57 420 57 420 39 431.5 c 128,-1,2
 21 443 21 443 14 460.5 c 128,-1,3
 7 478 7 478 7 496 c 1,4,-1
 40 496 l 1,5,6
 40 478 40 478 51 462.5 c 128,-1,7
 62 447 62 447 88 447 c 0,8,9
 116 447 116 447 127.5 462.5 c 128,-1,10
 139 478 139 478 140 496 c 1,11,-1
 172 496 l 1,12,13
 172 463 172 463 152.5 441.5 c 128,-1,14
 133 420 133 420 88 420 c 0,0,1
75 517 m 1,15,16
 75 531 75 531 85 539 c 128,-1,17
 95 547 95 547 105.5 555.5 c 128,-1,18
 116 564 116 564 116 578 c 0,19,20
 116 589 116 589 107.5 596 c 128,-1,21
 99 603 99 603 88 603 c 0,22,23
 71 603 71 603 63 593.5 c 128,-1,24
 55 584 55 584 52 573 c 1,25,-1
 30 581 l 1,26,27
 33 603 33 603 49.5 615.5 c 128,-1,28
 66 628 66 628 94 628 c 0,29,30
 119 628 119 628 134 616 c 128,-1,31
 149 604 149 604 149 583 c 256,32,33
 149 562 149 562 139 552 c 128,-1,34
 129 542 129 542 118 536 c 128,-1,35
 107 530 107 530 107 517 c 1,36,-1
 75 517 l 1,15,16
EndSplineSet
Ligature2: "'ccmp' Glyph Composition/Decomposition in Latin lookup 9 subtable" uni0306.case hookabovecomb.case
EndChar

StartChar: uni03060303.case
Encoding: 65547 -1 270
Width: 0
GlyphClass: 4
Flags: W
AnchorPoint: "Anchor-6" 89 553 basemark 0
AnchorPoint: "Anchor-6" 89 376 mark 0
AnchorPoint: "Anchor-0" 89 376 mark 0
LayerCount: 2
Fore
SplineSet
88 420 m 0,0,1
 57 420 57 420 39 431.5 c 128,-1,2
 21 443 21 443 14 461 c 128,-1,3
 7 479 7 479 7 496 c 1,4,-1
 40 496 l 1,5,6
 40 479 40 479 51 463 c 128,-1,7
 62 447 62 447 88 447 c 0,8,9
 116 447 116 447 127.5 462.5 c 128,-1,10
 139 478 139 478 139 496 c 1,11,-1
 172 496 l 1,12,13
 172 464 172 464 152.5 442 c 128,-1,14
 133 420 133 420 88 420 c 0,0,1
3 514 m 1,15,16
 3 548 3 548 16 564 c 128,-1,17
 29 580 29 580 49 580 c 0,18,19
 66 580 66 580 78.5 572 c 128,-1,20
 91 564 91 564 101.5 556 c 128,-1,21
 112 548 112 548 124 548 c 0,22,23
 140 548 140 548 145 558.5 c 128,-1,24
 150 569 150 569 150 581 c 1,25,-1
 175 581 l 1,26,27
 175 545 175 545 161 530.5 c 128,-1,28
 147 516 147 516 129 516 c 0,29,30
 113 516 113 516 101 524.5 c 128,-1,31
 89 533 89 533 79 541.5 c 128,-1,32
 69 550 69 550 56 550 c 0,33,34
 44 550 44 550 37 540 c 128,-1,35
 30 530 30 530 30 514 c 1,36,-1
 3 514 l 1,15,16
EndSplineSet
Ligature2: "'ccmp' Glyph Composition/Decomposition in Latin lookup 9 subtable" uni0306.case tildecomb.case
EndChar

StartChar: uni0311
Encoding: 785 785 271
Width: 0
GlyphClass: 4
Flags: W
AnchorPoint: "Anchor-6" 104 621 basemark 0
AnchorPoint: "Anchor-6" 104 470 mark 0
AnchorPoint: "Anchor-0" 104 470 mark 0
LayerCount: 2
Fore
SplineSet
102 622 m 0,0,1
 156 622 156 622 179 595 c 128,-1,2
 202 568 202 568 202 530 c 1,3,-1
 170 530 l 1,4,5
 170 557 170 557 155 575.5 c 128,-1,6
 140 594 140 594 102 594 c 0,7,8
 67 594 67 594 53 574.5 c 128,-1,9
 39 555 39 555 39 530 c 1,10,-1
 6 530 l 1,11,12
 6 551 6 551 14 572 c 128,-1,13
 22 593 22 593 43 607.5 c 128,-1,14
 64 622 64 622 102 622 c 0,0,1
EndSplineSet
Substitution2: "'case' Case-Sensitive Forms in Latin lookup 25 subtable" uni0311.case
Substitution2: "Single Substitution lookup 7 subtable" uni0311.case
Substitution2: "Single Substitution lookup 6 subtable" uni0311.case
Substitution2: "Single Substitution lookup 4 subtable" uni0311.case
Substitution2: "Single Substitution lookup 3 subtable" uni0311.case
Substitution2: "'aalt' Access All Alternates in Latin lookup 0 subtable" uni0311.case
EndChar

StartChar: uni0311.case
Encoding: 65548 -1 272
Width: 0
GlyphClass: 4
Flags: W
AnchorPoint: "Anchor-6" 104 621 basemark 0
AnchorPoint: "Anchor-6" 104 470 mark 0
AnchorPoint: "Anchor-0" 104 470 mark 0
LayerCount: 2
Fore
SplineSet
102 622 m 0,0,1
 156 622 156 622 179 595 c 128,-1,2
 202 568 202 568 202 530 c 1,3,-1
 170 530 l 1,4,5
 170 557 170 557 155 575.5 c 128,-1,6
 140 594 140 594 102 594 c 0,7,8
 67 594 67 594 53 574.5 c 128,-1,9
 39 555 39 555 39 530 c 1,10,-1
 6 530 l 1,11,12
 6 551 6 551 14 572 c 128,-1,13
 22 593 22 593 43 607.5 c 128,-1,14
 64 622 64 622 102 622 c 0,0,1
EndSplineSet
EndChar

StartChar: brokenbar
Encoding: 166 166 273
Width: 218
GlyphClass: 1
Flags: W
LayerCount: 2
Fore
SplineSet
88 -73 m 1,0,-1
 88 243 l 1,1,-1
 130 243 l 1,2,-1
 130 -73 l 1,3,-1
 88 -73 l 1,0,-1
88 349 m 1,4,-1
 88 649 l 1,5,-1
 130 649 l 1,6,-1
 130 349 l 1,7,-1
 88 349 l 1,4,-1
EndSplineSet
EndChar

StartChar: bullet
Encoding: 8226 8226 274
Width: 305
GlyphClass: 1
Flags: W
LayerCount: 2
Fore
SplineSet
151 176 m 0,0,1
 112 176 112 176 85 204 c 128,-1,2
 58 232 58 232 58 273 c 0,3,4
 58 313 58 313 85.5 339.5 c 128,-1,5
 113 366 113 366 152 366 c 256,6,7
 191 366 191 366 218.5 338.5 c 128,-1,8
 246 311 246 311 246 271 c 256,9,10
 246 231 246 231 219 203.5 c 128,-1,11
 192 176 192 176 151 176 c 0,0,1
EndSplineSet
EndChar

StartChar: uni2219
Encoding: 8729 8729 275
Width: 356
GlyphClass: 1
Flags: W
LayerCount: 2
Fore
SplineSet
168 220 m 0,0,1
 144 220 144 220 128 237 c 128,-1,2
 112 254 112 254 112 279 c 0,3,4
 112 302 112 302 128.5 318 c 128,-1,5
 145 334 145 334 168 334 c 256,6,7
 191 334 191 334 207.5 317 c 128,-1,8
 224 300 224 300 224 278 c 0,9,10
 224 253 224 253 207.5 236.5 c 128,-1,11
 191 220 191 220 168 220 c 0,0,1
EndSplineSet
EndChar

StartChar: c
Encoding: 99 99 276
Width: 379
GlyphClass: 2
Flags: W
AnchorPoint: "Anchor-1" 189 0 basechar 0
AnchorPoint: "Anchor-0" 189 470 basechar 0
LayerCount: 2
Fore
SplineSet
185 -4 m 0,0,1
 129 -4 129 -4 100 12 c 128,-1,2
 71 28 71 28 61 53 c 128,-1,3
 51 78 51 78 51 103 c 2,4,-1
 51 368 l 2,5,6
 51 394 51 394 61 418.5 c 128,-1,7
 71 443 71 443 101.5 459 c 128,-1,8
 132 475 132 475 192 475 c 0,9,10
 249 475 249 475 279 459.5 c 128,-1,11
 309 444 309 444 320.5 419.5 c 128,-1,12
 332 395 332 395 332 368 c 2,13,-1
 332 300 l 1,14,-1
 282 293 l 1,15,-1
 282 360 l 2,16,17
 282 398 282 398 257.5 417 c 128,-1,18
 233 436 233 436 191 436 c 0,19,20
 150 436 150 436 125.5 417 c 128,-1,21
 101 398 101 398 101 360 c 2,22,-1
 101 112 l 2,23,24
 101 74 101 74 125 55.5 c 128,-1,25
 149 37 149 37 185 37 c 0,26,27
 232 37 232 37 257 56.5 c 128,-1,28
 282 76 282 76 282 119 c 2,29,-1
 282 178 l 1,30,-1
 332 184 l 1,31,-1
 332 115 l 2,32,33
 332 83 332 83 320 56 c 128,-1,34
 308 29 308 29 276.5 12.5 c 128,-1,35
 245 -4 245 -4 185 -4 c 0,0,1
EndSplineSet
EndChar

StartChar: caron
Encoding: 711 711 278
Width: 224
GlyphClass: 1
Flags: W
LayerCount: 2
Fore
SplineSet
2 623 m 1,0,-1
 39 623 l 1,1,-1
 113 560 l 1,2,-1
 186 623 l 1,3,-1
 221 623 l 1,4,-1
 137 534 l 1,5,-1
 87 534 l 1,6,-1
 2 623 l 1,0,-1
EndSplineSet
EndChar

StartChar: uni030C
Encoding: 780 780 279
Width: 0
GlyphClass: 4
Flags: W
AnchorPoint: "Anchor-6" 113 629 basemark 0
AnchorPoint: "Anchor-6" 113 470 mark 0
AnchorPoint: "Anchor-0" 113 470 mark 0
LayerCount: 2
Fore
SplineSet
2 623 m 1,0,-1
 39 623 l 1,1,-1
 113 560 l 1,2,-1
 186 623 l 1,3,-1
 221 623 l 1,4,-1
 137 534 l 1,5,-1
 87 534 l 1,6,-1
 2 623 l 1,0,-1
EndSplineSet
Substitution2: "'case' Case-Sensitive Forms in Latin lookup 25 subtable" uni030C.case
Substitution2: "Single Substitution lookup 7 subtable" uni030C.case
Substitution2: "Single Substitution lookup 6 subtable" uni030C.case
Substitution2: "Single Substitution lookup 4 subtable" uni030C.case
Substitution2: "Single Substitution lookup 3 subtable" uni030C.case
Substitution2: "'aalt' Access All Alternates in Latin lookup 0 subtable" uni030C.case
EndChar

StartChar: uni030C.alt
Encoding: 65549 -1 280
Width: 0
GlyphClass: 1
Flags: W
LayerCount: 2
Fore
SplineSet
-25 328 m 1,0,-1
 0 470 l 1,1,-1
 34 470 l 1,2,-1
 -1 328 l 1,3,-1
 -25 328 l 1,0,-1
EndSplineSet
EndChar

StartChar: uni030C.alt.case
Encoding: 65550 -1 281
Width: 0
GlyphClass: 1
Flags: W
LayerCount: 2
Fore
SplineSet
-25 328 m 1,0,-1
 0 470 l 1,1,-1
 34 470 l 1,2,-1
 -1 328 l 1,3,-1
 -25 328 l 1,0,-1
EndSplineSet
EndChar

StartChar: uni030C.case
Encoding: 65551 -1 282
Width: 0
GlyphClass: 4
Flags: W
AnchorPoint: "Anchor-6" 113 629 basemark 0
AnchorPoint: "Anchor-6" 113 470 mark 0
AnchorPoint: "Anchor-0" 113 470 mark 0
LayerCount: 2
Fore
SplineSet
2 623 m 1,0,-1
 39 623 l 1,1,-1
 113 560 l 1,2,-1
 186 623 l 1,3,-1
 221 623 l 1,4,-1
 137 534 l 1,5,-1
 87 534 l 1,6,-1
 2 623 l 1,0,-1
EndSplineSet
EndChar

StartChar: ccaron
Encoding: 269 269 283
Width: 379
GlyphClass: 2
Flags: W
AnchorPoint: "Anchor-1" 189 0 basechar 0
AnchorPoint: "Anchor-0" 189 629 basechar 0
LayerCount: 2
Fore
SplineSet
79 623 m 1,0,-1
 116 623 l 1,1,-1
 189 560 l 1,2,-1
 263 623 l 1,3,-1
 298 623 l 1,4,-1
 214 534 l 1,5,-1
 163 534 l 1,6,-1
 79 623 l 1,0,-1
185 -4 m 0,7,8
 129 -4 129 -4 100 12 c 128,-1,9
 71 28 71 28 61 53 c 128,-1,10
 51 78 51 78 51 103 c 2,11,-1
 51 368 l 2,12,13
 51 394 51 394 61 418.5 c 128,-1,14
 71 443 71 443 101.5 459 c 128,-1,15
 132 475 132 475 192 475 c 0,16,17
 249 475 249 475 279 459.5 c 128,-1,18
 309 444 309 444 320.5 419.5 c 128,-1,19
 332 395 332 395 332 368 c 2,20,-1
 332 300 l 1,21,-1
 282 293 l 1,22,-1
 282 360 l 2,23,24
 282 398 282 398 257.5 417 c 128,-1,25
 233 436 233 436 191 436 c 0,26,27
 150 436 150 436 125.5 417 c 128,-1,28
 101 398 101 398 101 360 c 2,29,-1
 101 112 l 2,30,31
 101 74 101 74 125 55.5 c 128,-1,32
 149 37 149 37 185 37 c 0,33,34
 232 37 232 37 257 56.5 c 128,-1,35
 282 76 282 76 282 119 c 2,36,-1
 282 178 l 1,37,-1
 332 184 l 1,38,-1
 332 115 l 2,39,40
 332 83 332 83 320 56 c 128,-1,41
 308 29 308 29 276.5 12.5 c 128,-1,42
 245 -4 245 -4 185 -4 c 0,7,8
EndSplineSet
EndChar

StartChar: uni20B5
Encoding: 8373 8373 287
Width: 344
GlyphClass: 1
Flags: W
LayerCount: 2
Fore
SplineSet
172 -6 m 0,0,1
 103 -6 103 -6 68 20 c 128,-1,2
 33 46 33 46 33 98 c 2,3,-1
 33 516 l 2,4,5
 33 572 33 572 65 600 c 128,-1,6
 97 628 97 628 169 628 c 0,7,8
 242 628 242 628 277 601 c 128,-1,9
 312 574 312 574 311 515 c 2,10,-1
 311 383 l 1,11,-1
 267 375 l 1,12,-1
 267 504 l 2,13,14
 267 541 267 541 248 563 c 128,-1,15
 229 585 229 585 171 585 c 0,16,17
 118 585 118 585 100 562.5 c 128,-1,18
 82 540 82 540 82 505 c 2,19,-1
 82 108 l 2,20,21
 82 77 82 77 102.5 56.5 c 128,-1,22
 123 36 123 36 171 36 c 0,23,24
 223 36 223 36 245 56.5 c 128,-1,25
 267 77 267 77 267 109 c 2,26,-1
 267 231 l 1,27,-1
 311 239 l 1,28,-1
 311 98 l 2,29,30
 311 46 311 46 275 20 c 128,-1,31
 239 -6 239 -6 172 -6 c 0,0,1
142 -85 m 1,32,-1
 192 680 l 1,33,-1
 207 680 l 1,34,-1
 159 -85 l 1,35,-1
 142 -85 l 1,32,-1
EndSplineSet
EndChar

StartChar: uni0327
Encoding: 807 807 289
Width: 0
GlyphClass: 4
Flags: W
AnchorPoint: "Anchor-5" 85 -232 basemark 0
AnchorPoint: "Anchor-5" 64 0 mark 0
AnchorPoint: "Anchor-1" 64 0 mark 0
LayerCount: 2
Fore
SplineSet
70 -176 m 0,0,1
 49 -176 49 -176 32.5 -168 c 128,-1,2
 16 -160 16 -160 5 -152 c 1,3,-1
 20 -131 l 1,4,5
 25 -138 25 -138 38.5 -145.5 c 128,-1,6
 52 -153 52 -153 67 -153 c 0,7,8
 91 -153 91 -153 104.5 -136.5 c 128,-1,9
 118 -120 118 -120 118 -102 c 0,10,11
 118 -87 118 -87 107 -72.5 c 128,-1,12
 96 -58 96 -58 72 -58 c 0,13,14
 56 -58 56 -58 43 -64.5 c 128,-1,15
 30 -71 30 -71 22 -81 c 1,16,-1
 3 -65 l 1,17,-1
 55 0 l 1,18,-1
 79 0 l 1,19,-1
 37 -52 l 1,20,21
 58 -38 58 -38 81 -38 c 0,22,23
 118 -38 118 -38 134.5 -57.5 c 128,-1,24
 151 -77 151 -77 151 -100 c 0,25,26
 151 -126 151 -126 130 -151 c 128,-1,27
 109 -176 109 -176 70 -176 c 0,0,1
EndSplineSet
EndChar

StartChar: cent
Encoding: 162 162 290
Width: 347
GlyphClass: 1
Flags: W
LayerCount: 2
Fore
SplineSet
167 92 m 0,0,1
 111 92 111 92 82.5 108 c 128,-1,2
 54 124 54 124 43.5 149 c 128,-1,3
 33 174 33 174 33 199 c 2,4,-1
 33 462 l 2,5,6
 33 489 33 489 43.5 513.5 c 128,-1,7
 54 538 54 538 84.5 554 c 128,-1,8
 115 570 115 570 175 570 c 0,9,10
 231 570 231 570 261 554 c 128,-1,11
 291 538 291 538 303 513.5 c 128,-1,12
 315 489 315 489 315 463 c 2,13,-1
 315 393 l 1,14,-1
 265 387 l 1,15,-1
 265 454 l 2,16,17
 265 492 265 492 240 511 c 128,-1,18
 215 530 215 530 174 530 c 256,19,20
 133 530 133 530 108 511 c 128,-1,21
 83 492 83 492 83 454 c 2,22,-1
 83 208 l 2,23,24
 83 169 83 169 107.5 151 c 128,-1,25
 132 133 132 133 167 133 c 0,26,27
 214 133 214 133 239.5 152.5 c 128,-1,28
 265 172 265 172 265 215 c 2,29,-1
 265 274 l 1,30,-1
 315 279 l 1,31,-1
 315 211 l 2,32,33
 315 179 315 179 303 151.5 c 128,-1,34
 291 124 291 124 259.5 108 c 128,-1,35
 228 92 228 92 167 92 c 0,0,1
137 -85 m 1,36,-1
 186 680 l 1,37,-1
 202 680 l 1,38,-1
 152 -85 l 1,39,-1
 137 -85 l 1,36,-1
EndSplineSet
EndChar

StartChar: uni0302
Encoding: 770 770 292
Width: 0
GlyphClass: 4
Flags: W
AnchorPoint: "Anchor-6" 262 544 basemark 0
AnchorPoint: "Anchor-6" 113 470 mark 0
AnchorPoint: "Anchor-0" 113 470 mark 0
LayerCount: 2
Fore
SplineSet
2 534 m 1,0,-1
 87 623 l 1,1,-1
 137 623 l 1,2,-1
 221 534 l 1,3,-1
 186 534 l 1,4,-1
 113 598 l 1,5,-1
 39 534 l 1,6,-1
 2 534 l 1,0,-1
EndSplineSet
Substitution2: "'case' Case-Sensitive Forms in Latin lookup 25 subtable" uni0302.case
Substitution2: "Single Substitution lookup 7 subtable" uni0302.case
Substitution2: "Single Substitution lookup 6 subtable" uni0302.case
Substitution2: "Single Substitution lookup 4 subtable" uni0302.case
Substitution2: "Single Substitution lookup 3 subtable" uni0302.case
Substitution2: "'aalt' Access All Alternates in Latin lookup 0 subtable" uni0302.case
EndChar

StartChar: uni0302.case
Encoding: 65552 -1 293
Width: 0
GlyphClass: 4
Flags: W
AnchorPoint: "Anchor-6" 262 544 basemark 0
AnchorPoint: "Anchor-6" 113 470 mark 0
AnchorPoint: "Anchor-0" 113 470 mark 0
LayerCount: 2
Fore
SplineSet
2 534 m 1,0,-1
 87 623 l 1,1,-1
 137 623 l 1,2,-1
 221 534 l 1,3,-1
 186 534 l 1,4,-1
 113 598 l 1,5,-1
 39 534 l 1,6,-1
 2 534 l 1,0,-1
EndSplineSet
EndChar

StartChar: uni03020301.case
Encoding: 65554 -1 295
Width: 0
GlyphClass: 4
Flags: W
AnchorPoint: "Anchor-6" 240 561 basemark 0
AnchorPoint: "Anchor-6" 96 376 mark 0
AnchorPoint: "Anchor-0" 96 376 mark 0
LayerCount: 2
Fore
SplineSet
2 426 m 1,0,-1
 70 498 l 1,1,-1
 119 498 l 1,2,-1
 186 426 l 1,3,-1
 151 426 l 1,4,-1
 96 474 l 1,5,-1
 40 426 l 1,6,-1
 2 426 l 1,0,-1
180 484 m 1,7,-1
 250 561 l 1,8,-1
 299 561 l 1,9,-1
 214 484 l 1,10,-1
 180 484 l 1,7,-1
EndSplineSet
Ligature2: "'ccmp' Glyph Composition/Decomposition in Latin lookup 9 subtable" uni0302.case acutecomb.case
EndChar

StartChar: uni03020300.case
Encoding: 65556 -1 297
Width: 0
GlyphClass: 4
Flags: W
AnchorPoint: "Anchor-6" 177 561 basemark 0
AnchorPoint: "Anchor-6" 96 376 mark 0
AnchorPoint: "Anchor-0" 96 376 mark 0
LayerCount: 2
Fore
SplineSet
2 426 m 1,0,-1
 70 498 l 1,1,-1
 119 498 l 1,2,-1
 186 426 l 1,3,-1
 151 426 l 1,4,-1
 96 474 l 1,5,-1
 40 426 l 1,6,-1
 2 426 l 1,0,-1
203 484 m 1,7,-1
 118 561 l 1,8,-1
 165 561 l 1,9,-1
 237 484 l 1,10,-1
 203 484 l 1,7,-1
EndSplineSet
Ligature2: "'ccmp' Glyph Composition/Decomposition in Latin lookup 9 subtable" uni0302.case gravecomb.case
EndChar

StartChar: uni03020309.case
Encoding: 65558 -1 299
Width: 0
GlyphClass: 4
Flags: W
AnchorPoint: "Anchor-6" 206 594 basemark 0
AnchorPoint: "Anchor-6" 96 376 mark 0
AnchorPoint: "Anchor-0" 96 376 mark 0
LayerCount: 2
Fore
SplineSet
2 426 m 1,0,-1
 70 498 l 1,1,-1
 119 498 l 1,2,-1
 186 426 l 1,3,-1
 151 426 l 1,4,-1
 96 474 l 1,5,-1
 40 426 l 1,6,-1
 2 426 l 1,0,-1
192 484 m 1,7,8
 192 498 192 498 202.5 506 c 128,-1,9
 213 514 213 514 223 522.5 c 128,-1,10
 233 531 233 531 233 545 c 0,11,12
 233 556 233 556 224.5 563 c 128,-1,13
 216 570 216 570 204 570 c 0,14,15
 189 570 189 570 180.5 561 c 128,-1,16
 172 552 172 552 169 540 c 1,17,-1
 147 549 l 1,18,19
 150 570 150 570 166.5 582 c 128,-1,20
 183 594 183 594 210 594 c 0,21,22
 235 594 235 594 251 582.5 c 128,-1,23
 267 571 267 571 267 550 c 0,24,25
 267 534 267 534 260.5 524.5 c 128,-1,26
 254 515 254 515 245.5 509 c 128,-1,27
 237 503 237 503 230.5 498 c 128,-1,28
 224 493 224 493 224 484 c 1,29,-1
 192 484 l 1,7,8
EndSplineSet
Ligature2: "'ccmp' Glyph Composition/Decomposition in Latin lookup 9 subtable" uni0302.case hookabovecomb.case
EndChar

StartChar: uni03020303.case
Encoding: 65560 -1 301
Width: 0
GlyphClass: 4
Flags: W
AnchorPoint: "Anchor-6" 94 556 basemark 0
AnchorPoint: "Anchor-6" 96 376 mark 0
AnchorPoint: "Anchor-0" 96 376 mark 0
LayerCount: 2
Fore
SplineSet
2 426 m 1,0,-1
 70 498 l 1,1,-1
 119 498 l 1,2,-1
 186 426 l 1,3,-1
 151 426 l 1,4,-1
 96 474 l 1,5,-1
 40 426 l 1,6,-1
 2 426 l 1,0,-1
7 518 m 1,7,8
 7 552 7 552 20.5 569 c 128,-1,9
 34 586 34 586 54 586 c 0,10,11
 71 586 71 586 83.5 577.5 c 128,-1,12
 96 569 96 569 106.5 560.5 c 128,-1,13
 117 552 117 552 129 552 c 0,14,15
 144 552 144 552 149.5 563 c 128,-1,16
 155 574 155 574 155 585 c 1,17,-1
 180 585 l 1,18,19
 180 550 180 550 165.5 535 c 128,-1,20
 151 520 151 520 133 520 c 0,21,22
 117 520 117 520 105 529 c 128,-1,23
 93 538 93 538 83 546 c 128,-1,24
 73 554 73 554 60 554 c 0,25,26
 48 554 48 554 41 544.5 c 128,-1,27
 34 535 34 535 34 518 c 1,28,-1
 7 518 l 1,7,8
EndSplineSet
Ligature2: "'ccmp' Glyph Composition/Decomposition in Latin lookup 9 subtable" uni0302.case tildecomb.case
EndChar

StartChar: colonmonetary
Encoding: 8353 8353 303
Width: 344
GlyphClass: 1
Flags: W
LayerCount: 2
Fore
SplineSet
172 -6 m 0,0,1
 103 -6 103 -6 68 20 c 128,-1,2
 33 46 33 46 33 98 c 2,3,-1
 33 516 l 2,4,5
 33 572 33 572 65 600 c 128,-1,6
 97 628 97 628 169 628 c 0,7,8
 242 628 242 628 277 601 c 128,-1,9
 312 574 312 574 311 515 c 2,10,-1
 311 383 l 1,11,-1
 269 375 l 1,12,-1
 269 504 l 2,13,14
 269 541 269 541 249.5 563 c 128,-1,15
 230 585 230 585 171 585 c 0,16,17
 115 585 115 585 96.5 562.5 c 128,-1,18
 78 540 78 540 78 505 c 2,19,-1
 78 108 l 2,20,21
 78 77 78 77 99.5 56.5 c 128,-1,22
 121 36 121 36 171 36 c 0,23,24
 225 36 225 36 247 56.5 c 128,-1,25
 269 77 269 77 269 109 c 2,26,-1
 269 231 l 1,27,-1
 311 239 l 1,28,-1
 311 98 l 2,29,30
 311 46 311 46 275 20 c 128,-1,31
 239 -6 239 -6 172 -6 c 0,0,1
106 -85 m 1,32,-1
 156 680 l 1,33,-1
 172 680 l 1,34,-1
 121 -85 l 1,35,-1
 106 -85 l 1,32,-1
171 -85 m 1,36,-1
 221 680 l 1,37,-1
 237 680 l 1,38,-1
 187 -85 l 1,39,-1
 171 -85 l 1,36,-1
EndSplineSet
EndChar

StartChar: comma
Encoding: 44 44 304
Width: 191
GlyphClass: 1
Flags: W
LayerCount: 2
Fore
SplineSet
42 -109 m 1,0,1
 58 -79 58 -79 66 -51 c 128,-1,2
 74 -23 74 -23 74 6 c 1,3,4
 60 6 60 6 57 12 c 128,-1,5
 54 18 54 18 54 27 c 256,6,7
 54 36 54 36 55 42 c 128,-1,8
 56 48 56 48 61.5 51 c 128,-1,9
 67 54 67 54 80 54 c 0,10,11
 97 54 97 54 100.5 47.5 c 128,-1,12
 104 41 104 41 104 28 c 0,13,14
 104 5 104 5 98.5 -21 c 128,-1,15
 93 -47 93 -47 85.5 -70.5 c 128,-1,16
 78 -94 78 -94 68 -109 c 1,17,-1
 42 -109 l 1,0,1
EndSplineSet
EndChar

StartChar: uni0326
Encoding: 806 806 305
Width: 0
GlyphClass: 4
Flags: W
AnchorPoint: "Anchor-5" 30 -161 basemark 0
AnchorPoint: "Anchor-5" 33 0 mark 0
AnchorPoint: "Anchor-1" 33 0 mark 0
LayerCount: 2
Fore
SplineSet
0 -161 m 1,0,1
 14 -140 14 -140 23 -120 c 128,-1,2
 32 -100 32 -100 32 -78 c 1,3,4
 18 -78 18 -78 15 -74 c 128,-1,5
 12 -70 12 -70 12 -63 c 0,6,7
 12 -53 12 -53 15 -48.5 c 128,-1,8
 18 -44 18 -44 36 -44 c 0,9,10
 53 -44 53 -44 56 -48.5 c 128,-1,11
 59 -53 59 -53 59 -63 c 0,12,13
 59 -79 59 -79 54.5 -98 c 128,-1,14
 50 -117 50 -117 42 -133.5 c 128,-1,15
 34 -150 34 -150 25 -161 c 1,16,-1
 0 -161 l 1,0,1
EndSplineSet
EndChar

StartChar: uni0312
Encoding: 786 786 306
Width: 0
GlyphClass: 4
Flags: W
AnchorPoint: "Anchor-6" 31 650 basemark 0
AnchorPoint: "Anchor-6" 26 470 mark 0
AnchorPoint: "Anchor-0" 26 470 mark 0
LayerCount: 2
Fore
SplineSet
22 534 m 0,0,1
 9 534 9 534 4.5 538 c 128,-1,2
 0 542 0 542 0 551 c 0,3,4
 0 566 0 566 5 585 c 128,-1,5
 10 604 10 604 19 622 c 128,-1,6
 28 640 28 640 36 650 c 1,7,-1
 63 650 l 1,8,9
 48 629 48 629 39 609 c 128,-1,10
 30 589 30 589 29 568 c 1,11,12
 42 568 42 568 45 565 c 128,-1,13
 48 562 48 562 48 556 c 0,14,15
 48 545 48 545 43.5 539.5 c 128,-1,16
 39 534 39 534 22 534 c 0,0,1
EndSplineSet
EndChar

StartChar: uni2052
Encoding: 8274 8274 307
Width: 595
GlyphClass: 1
Flags: W
LayerCount: 2
Fore
SplineSet
96 367 m 256,0,1
 72 367 72 367 56.5 384 c 128,-1,2
 41 401 41 401 41 426 c 0,3,4
 41 449 41 449 57 465 c 128,-1,5
 73 481 73 481 96 481 c 0,6,7
 120 481 120 481 136 464 c 128,-1,8
 152 447 152 447 152 425 c 0,9,10
 152 400 152 400 136 383.5 c 128,-1,11
 120 367 120 367 96 367 c 256,0,1
478 163 m 256,12,13
 454 163 454 163 438.5 180 c 128,-1,14
 423 197 423 197 423 222 c 0,15,16
 423 245 423 245 439 261 c 128,-1,17
 455 277 455 277 478 277 c 0,18,19
 502 277 502 277 518 260 c 128,-1,20
 534 243 534 243 534 221 c 0,21,22
 534 196 534 196 518 179.5 c 128,-1,23
 502 163 502 163 478 163 c 256,12,13
108 13 m 1,24,-1
 441 643 l 1,25,-1
 465 639 l 1,26,-1
 130 10 l 1,27,-1
 108 13 l 1,24,-1
EndSplineSet
EndChar

StartChar: copyright
Encoding: 169 169 308
Width: 767
GlyphClass: 1
Flags: W
LayerCount: 2
Fore
SplineSet
386 -3 m 0,0,1
 313 -3 313 -3 252 21.5 c 128,-1,2
 191 46 191 46 145.5 89 c 128,-1,3
 100 132 100 132 75 188 c 128,-1,4
 50 244 50 244 50 307 c 0,5,6
 50 374 50 374 75 432 c 128,-1,7
 100 490 100 490 145.5 534 c 128,-1,8
 191 578 191 578 252 602.5 c 128,-1,9
 313 627 313 627 386 627 c 0,10,11
 453 627 453 627 513 602.5 c 128,-1,12
 573 578 573 578 619 534 c 128,-1,13
 665 490 665 490 691 432 c 128,-1,14
 717 374 717 374 717 307 c 0,15,16
 717 244 717 244 691 188 c 128,-1,17
 665 132 665 132 619 89 c 128,-1,18
 573 46 573 46 513 21.5 c 128,-1,19
 453 -3 453 -3 386 -3 c 0,0,1
386 24 m 0,20,21
 445 24 445 24 499 46.5 c 128,-1,22
 553 69 553 69 595.5 108 c 128,-1,23
 638 147 638 147 662.5 198 c 128,-1,24
 687 249 687 249 687 306 c 0,25,26
 687 367 687 367 662.5 420 c 128,-1,27
 638 473 638 473 595.5 513 c 128,-1,28
 553 553 553 553 499 576 c 128,-1,29
 445 599 445 599 386 599 c 0,30,31
 323 599 323 599 268 576 c 128,-1,32
 213 553 213 553 170.5 513 c 128,-1,33
 128 473 128 473 104.5 420 c 128,-1,34
 81 367 81 367 81 306 c 0,35,36
 81 249 81 249 104.5 198 c 128,-1,37
 128 147 128 147 170.5 108 c 128,-1,38
 213 69 213 69 268 46.5 c 128,-1,39
 323 24 323 24 386 24 c 0,20,21
378 121 m 0,40,41
 334 121 334 121 311 133.5 c 128,-1,42
 288 146 288 146 279.5 165.5 c 128,-1,43
 271 185 271 185 271 205 c 2,44,-1
 271 411 l 2,45,46
 271 432 271 432 280 451 c 128,-1,47
 289 470 289 470 313 482.5 c 128,-1,48
 337 495 337 495 385 495 c 0,49,50
 429 495 429 495 453 483 c 128,-1,51
 477 471 477 471 486 451.5 c 128,-1,52
 495 432 495 432 495 412 c 2,53,-1
 495 358 l 1,54,-1
 455 353 l 1,55,-1
 455 404 l 2,56,57
 455 434 455 434 436 449.5 c 128,-1,58
 417 465 417 465 384 465 c 0,59,60
 352 465 352 465 332 450 c 128,-1,61
 312 435 312 435 312 404 c 2,62,-1
 312 213 l 2,63,64
 312 183 312 183 331 168.5 c 128,-1,65
 350 154 350 154 378 154 c 0,66,67
 415 154 415 154 435 169 c 128,-1,68
 455 184 455 184 455 217 c 2,69,-1
 455 264 l 1,70,-1
 495 268 l 1,71,-1
 495 214 l 2,72,73
 495 189 495 189 486 167.5 c 128,-1,74
 477 146 477 146 451.5 133.5 c 128,-1,75
 426 121 426 121 378 121 c 0,40,41
EndSplineSet
EndChar

StartChar: currency
Encoding: 164 164 309
Width: 350
GlyphClass: 1
Flags: W
LayerCount: 2
Fore
SplineSet
178 235 m 0,0,1
 143 235 143 235 115 252 c 128,-1,2
 87 269 87 269 70 297.5 c 128,-1,3
 53 326 53 326 53 360 c 0,4,5
 53 395 53 395 70 423 c 128,-1,6
 87 451 87 451 115 468 c 128,-1,7
 143 485 143 485 178 485 c 0,8,9
 212 485 212 485 240 468 c 128,-1,10
 268 451 268 451 285 423 c 128,-1,11
 302 395 302 395 302 360 c 0,12,13
 302 326 302 326 285 297.5 c 128,-1,14
 268 269 268 269 240 252 c 128,-1,15
 212 235 212 235 178 235 c 0,0,1
177 272 m 0,16,17
 212 273 212 273 238 298.5 c 128,-1,18
 264 324 264 324 264 360 c 256,19,20
 264 396 264 396 238.5 422 c 128,-1,21
 213 448 213 448 177 448 c 0,22,23
 140 448 140 448 114.5 422 c 128,-1,24
 89 396 89 396 89 360 c 256,25,26
 89 324 89 324 114.5 298 c 128,-1,27
 140 272 140 272 177 272 c 0,16,17
53 214 m 1,28,-1
 32 235 l 1,29,-1
 90 293 l 1,30,-1
 112 275 l 1,31,-1
 53 214 l 1,28,-1
298 217 m 1,32,-1
 240 276 l 1,33,-1
 262 295 l 1,34,-1
 320 239 l 1,35,-1
 298 217 l 1,32,-1
262 425 m 1,36,-1
 242 446 l 1,37,-1
 302 504 l 1,38,-1
 323 483 l 1,39,-1
 262 425 l 1,36,-1
93 423 m 1,40,-1
 29 485 l 1,41,-1
 50 507 l 1,42,-1
 112 446 l 1,43,-1
 93 423 l 1,40,-1
EndSplineSet
EndChar

StartChar: d
Encoding: 100 100 310
Width: 396
GlyphClass: 2
Flags: W
AnchorPoint: "Anchor-4" 258 540 basechar 0
AnchorPoint: "Anchor-2" 364 648 basechar 0
AnchorPoint: "Anchor-1" 198 0 basechar 0
AnchorPoint: "Anchor-0" 198 630 basechar 0
LayerCount: 2
Fore
SplineSet
131 0 m 2,0,1
 100 0 100 0 83 6.5 c 128,-1,2
 66 13 66 13 60.5 36 c 128,-1,3
 55 59 55 59 55 106 c 2,4,-1
 55 379 l 2,5,6
 55 416 55 416 63 436 c 128,-1,7
 71 456 71 456 92.5 463 c 128,-1,8
 114 470 114 470 156 470 c 2,9,-1
 286 470 l 1,10,-1
 286 629 l 1,11,-1
 336 629 l 1,12,-1
 336 0 l 1,13,-1
 131 0 l 2,0,1
286 41 m 1,14,-1
 286 429 l 1,15,-1
 161 429 l 2,16,17
 126 429 126 429 115.5 419 c 128,-1,18
 105 409 105 409 105 374 c 2,19,-1
 105 99 l 2,20,21
 105 61 105 61 115 51 c 128,-1,22
 125 41 125 41 153 41 c 2,23,-1
 286 41 l 1,14,-1
EndSplineSet
EndChar

StartChar: daggerdbl
Encoding: 8225 8225 312
Width: 329
GlyphClass: 1
Flags: W
LayerCount: 2
Fore
SplineSet
143 649 m 1,0,-1
 185 649 l 1,1,-1
 185 -73 l 1,2,-1
 143 -73 l 1,3,-1
 143 649 l 1,0,-1
40 294 m 1,4,-1
 40 329 l 1,5,-1
 289 329 l 1,6,-1
 289 294 l 1,7,-1
 40 294 l 1,4,-1
40 442 m 1,8,-1
 40 478 l 1,9,-1
 289 478 l 1,10,-1
 289 442 l 1,11,-1
 40 442 l 1,8,-1
EndSplineSet
EndChar

StartChar: degree
Encoding: 176 176 317
Width: 281
GlyphClass: 1
Flags: W
LayerCount: 2
Fore
SplineSet
141 552 m 0,0,1
 112 552 112 552 90 564.5 c 128,-1,2
 68 577 68 577 55 597.5 c 128,-1,3
 42 618 42 618 42 643 c 0,4,5
 42 669 42 669 55 690.5 c 128,-1,6
 68 712 68 712 90 724.5 c 128,-1,7
 112 737 112 737 141 737 c 0,8,9
 167 737 167 737 189 724.5 c 128,-1,10
 211 712 211 712 224.5 690.5 c 128,-1,11
 238 669 238 669 238 643 c 0,12,13
 238 618 238 618 224.5 597.5 c 128,-1,14
 211 577 211 577 189 564.5 c 128,-1,15
 167 552 167 552 141 552 c 0,0,1
141 579 m 0,16,17
 168 579 168 579 187.5 597 c 128,-1,18
 207 615 207 615 207 642 c 256,19,20
 207 669 207 669 187.5 688.5 c 128,-1,21
 168 708 168 708 141 708 c 0,22,23
 112 708 112 708 93 688.5 c 128,-1,24
 74 669 74 669 74 642 c 256,25,26
 74 615 74 615 93 597 c 128,-1,27
 112 579 112 579 141 579 c 0,16,17
EndSplineSet
EndChar

StartChar: uni0308
Encoding: 776 776 320
Width: 0
GlyphClass: 4
Flags: W
AnchorPoint: "Anchor-6" 94 535 basemark 0
AnchorPoint: "Anchor-6" 94 470 mark 0
AnchorPoint: "Anchor-0" 94 470 mark 0
LayerCount: 2
Fore
SplineSet
142 530 m 0,0,1
 125 530 125 530 122 536.5 c 128,-1,2
 119 543 119 543 119 554 c 0,3,4
 119 568 119 568 122 573.5 c 128,-1,5
 125 579 125 579 142 579 c 0,6,7
 160 579 160 579 163.5 573.5 c 128,-1,8
 167 568 167 568 167 554 c 0,9,10
 167 543 167 543 163.5 536.5 c 128,-1,11
 160 530 160 530 142 530 c 0,0,1
43 530 m 0,12,13
 26 530 26 530 23 536.5 c 128,-1,14
 20 543 20 543 20 554 c 0,15,16
 20 568 20 568 23 573.5 c 128,-1,17
 26 579 26 579 43 579 c 0,18,19
 61 579 61 579 64 573.5 c 128,-1,20
 67 568 67 568 67 554 c 0,21,22
 67 543 67 543 64 536.5 c 128,-1,23
 61 530 61 530 43 530 c 0,12,13
EndSplineSet
Substitution2: "'case' Case-Sensitive Forms in Latin lookup 25 subtable" uni0308.case
Substitution2: "Single Substitution lookup 7 subtable" uni0308.case
Substitution2: "Single Substitution lookup 6 subtable" uni0308.case
Substitution2: "Single Substitution lookup 4 subtable" uni0308.case
Substitution2: "Single Substitution lookup 3 subtable" uni0308.case
Substitution2: "'aalt' Access All Alternates in Latin lookup 0 subtable" uni0308.case
EndChar

StartChar: uni0308.case
Encoding: 65562 -1 321
Width: 0
GlyphClass: 4
Flags: W
AnchorPoint: "Anchor-6" 94 535 basemark 0
AnchorPoint: "Anchor-6" 94 470 mark 0
AnchorPoint: "Anchor-0" 94 470 mark 0
LayerCount: 2
Fore
SplineSet
142 530 m 0,0,1
 125 530 125 530 122 536.5 c 128,-1,2
 119 543 119 543 119 554 c 0,3,4
 119 568 119 568 122 573.5 c 128,-1,5
 125 579 125 579 142 579 c 0,6,7
 160 579 160 579 163.5 573.5 c 128,-1,8
 167 568 167 568 167 554 c 0,9,10
 167 543 167 543 163.5 536.5 c 128,-1,11
 160 530 160 530 142 530 c 0,0,1
43 530 m 0,12,13
 26 530 26 530 23 536.5 c 128,-1,14
 20 543 20 543 20 554 c 0,15,16
 20 568 20 568 23 573.5 c 128,-1,17
 26 579 26 579 43 579 c 0,18,19
 61 579 61 579 64 573.5 c 128,-1,20
 67 568 67 568 67 554 c 0,21,22
 67 543 67 543 64 536.5 c 128,-1,23
 61 530 61 530 43 530 c 0,12,13
EndSplineSet
EndChar

StartChar: dollar
Encoding: 36 36 324
Width: 347
GlyphClass: 1
Flags: W
LayerCount: 2
Fore
SplineSet
180 -4 m 0,0,1
 137 -3 137 -3 104 3.5 c 128,-1,2
 71 10 71 10 52 27 c 128,-1,3
 33 44 33 44 33 76 c 2,4,-1
 33 205 l 1,5,-1
 84 212 l 1,6,-1
 84 94 l 2,7,8
 84 67 84 67 104.5 52 c 128,-1,9
 125 37 125 37 177 37 c 0,10,11
 213 37 213 37 231.5 44.5 c 128,-1,12
 250 52 250 52 257 68.5 c 128,-1,13
 264 85 264 85 264 111 c 2,14,-1
 264 202 l 2,15,16
 264 239 264 239 246 260.5 c 128,-1,17
 228 282 228 282 194 292 c 2,18,-1
 116 313 l 2,19,20
 72 327 72 327 52.5 348 c 128,-1,21
 33 369 33 369 33 414 c 2,22,-1
 33 524 l 2,23,24
 33 568 33 568 51.5 589 c 128,-1,25
 70 610 70 610 103 616.5 c 128,-1,26
 136 623 136 623 180 623 c 0,27,28
 222 623 222 623 252 616 c 128,-1,29
 282 609 282 609 298.5 592 c 128,-1,30
 315 575 315 575 315 543 c 2,31,-1
 315 414 l 1,32,-1
 264 405 l 1,33,-1
 264 521 l 2,34,35
 264 555 264 555 247 569.5 c 128,-1,36
 230 584 230 584 177 584 c 0,37,38
 125 584 125 584 104.5 567 c 128,-1,39
 84 550 84 550 84 507 c 2,40,-1
 84 423 l 2,41,42
 84 391 84 391 102.5 372.5 c 128,-1,43
 121 354 121 354 148 346 c 2,44,-1
 229 323 l 2,45,46
 275 310 275 310 295 286 c 128,-1,47
 315 262 315 262 315 216 c 2,48,-1
 315 98 l 2,49,50
 315 55 315 55 299 33 c 128,-1,51
 283 11 283 11 253 4 c 128,-1,52
 223 -3 223 -3 180 -4 c 0,0,1
98 -93 m 1,53,-1
 111 23 l 1,54,-1
 146 19 l 1,55,-1
 132 -93 l 1,56,-1
 98 -93 l 1,53,-1
217 599 m 1,57,-1
 184 606 l 1,58,-1
 198 717 l 1,59,-1
 233 717 l 1,60,-1
 217 599 l 1,57,-1
EndSplineSet
EndChar

StartChar: dong
Encoding: 8363 8363 325
Width: 360
GlyphClass: 2
Flags: W
AnchorPoint: "Anchor-4" 258 540 basechar 0
AnchorPoint: "Anchor-2" 374 648 basechar 0
AnchorPoint: "Anchor-1" 198 0 basechar 0
AnchorPoint: "Anchor-0" 198 630 basechar 0
LayerCount: 2
Fore
SplineSet
89 -75 m 1,0,-1
 89 -49 l 1,1,-1
 322 -49 l 1,2,-1
 322 -75 l 1,3,-1
 89 -75 l 1,0,-1
131 0 m 2,4,5
 100 0 100 0 83 6.5 c 128,-1,6
 66 13 66 13 60.5 36 c 128,-1,7
 55 59 55 59 55 106 c 2,8,-1
 55 379 l 2,9,10
 55 416 55 416 63 436 c 128,-1,11
 71 456 71 456 92.5 463 c 128,-1,12
 114 470 114 470 156 470 c 2,13,-1
 286 470 l 1,14,-1
 286 629 l 1,15,-1
 336 629 l 1,16,-1
 336 0 l 1,17,-1
 131 0 l 2,4,5
286 41 m 1,18,-1
 286 429 l 1,19,-1
 161 429 l 2,20,21
 126 429 126 429 115.5 419 c 128,-1,22
 105 409 105 409 105 374 c 2,23,-1
 105 99 l 2,24,25
 105 61 105 61 115 51 c 128,-1,26
 125 41 125 41 153 41 c 2,27,-1
 286 41 l 1,18,-1
142 526 m 1,28,-1
 142 553 l 1,29,-1
 374 553 l 1,30,-1
 374 526 l 1,31,-1
 142 526 l 1,28,-1
EndSplineSet
EndChar

StartChar: uni0307
Encoding: 775 775 327
Width: 0
GlyphClass: 4
Flags: W
AnchorPoint: "Anchor-6" 25 535 basemark 0
AnchorPoint: "Anchor-6" 25 470 mark 0
AnchorPoint: "Anchor-0" 25 470 mark 0
LayerCount: 2
Fore
SplineSet
24 532 m 0,0,1
 6 532 6 532 3 538 c 128,-1,2
 0 544 0 544 0 556 c 0,3,4
 0 569 0 569 3 575 c 128,-1,5
 6 581 6 581 23 581 c 0,6,7
 41 581 41 581 44 575 c 128,-1,8
 47 569 47 569 47 556 c 0,9,10
 47 544 47 544 44 538 c 128,-1,11
 41 532 41 532 24 532 c 0,0,1
EndSplineSet
Substitution2: "'case' Case-Sensitive Forms in Latin lookup 25 subtable" uni0307.case
Substitution2: "Single Substitution lookup 7 subtable" uni0307.case
Substitution2: "Single Substitution lookup 6 subtable" uni0307.case
Substitution2: "Single Substitution lookup 4 subtable" uni0307.case
Substitution2: "Single Substitution lookup 3 subtable" uni0307.case
Substitution2: "'aalt' Access All Alternates in Latin lookup 0 subtable" uni0307.case
EndChar

StartChar: uni0307.case
Encoding: 65563 -1 328
Width: 0
GlyphClass: 4
Flags: W
AnchorPoint: "Anchor-6" 25 535 basemark 0
AnchorPoint: "Anchor-6" 25 470 mark 0
AnchorPoint: "Anchor-0" 25 470 mark 0
LayerCount: 2
Fore
SplineSet
24 532 m 0,0,1
 6 532 6 532 3 538 c 128,-1,2
 0 544 0 544 0 556 c 0,3,4
 0 569 0 569 3 575 c 128,-1,5
 6 581 6 581 23 581 c 0,6,7
 41 581 41 581 44 575 c 128,-1,8
 47 569 47 569 47 556 c 0,9,10
 47 544 47 544 44 538 c 128,-1,11
 41 532 41 532 24 532 c 0,0,1
EndSplineSet
EndChar

StartChar: dotbelowcomb
Encoding: 803 803 329
Width: 0
GlyphClass: 4
Flags: W
AnchorPoint: "Anchor-5" 25 -94 basemark 0
AnchorPoint: "Anchor-5" 25 0 mark 0
AnchorPoint: "Anchor-1" 25 0 mark 0
LayerCount: 2
Fore
SplineSet
24 -94 m 0,0,1
 6 -94 6 -94 3 -87.5 c 128,-1,2
 0 -81 0 -81 0 -70 c 0,3,4
 0 -56 0 -56 3 -50 c 128,-1,5
 6 -44 6 -44 23 -44 c 0,6,7
 41 -44 41 -44 44 -50 c 128,-1,8
 47 -56 47 -56 47 -70 c 0,9,10
 47 -81 47 -81 44 -87.5 c 128,-1,11
 41 -94 41 -94 24 -94 c 0,0,1
EndSplineSet
EndChar

StartChar: uni02BA
Encoding: 698 698 330
Width: 152
GlyphClass: 1
Flags: W
LayerCount: 2
Fore
SplineSet
103 448 m 1,0,1
 114 472 114 472 121 494.5 c 128,-1,2
 128 517 128 517 128 540 c 1,3,4
 116 540 116 540 113.5 544.5 c 128,-1,5
 111 549 111 549 111 556 c 0,6,7
 111 568 111 568 114 573 c 128,-1,8
 117 578 117 578 132 578 c 0,9,10
 146 578 146 578 149 573 c 128,-1,11
 152 568 152 568 152 558 c 0,12,13
 152 540 152 540 147.5 518.5 c 128,-1,14
 143 497 143 497 136.5 478.5 c 128,-1,15
 130 460 130 460 123 448 c 1,16,-1
 103 448 l 1,0,1
0 448 m 1,17,18
 11 472 11 472 18 494.5 c 128,-1,19
 25 517 25 517 25 540 c 1,20,21
 14 540 14 540 11.5 544.5 c 128,-1,22
 9 549 9 549 9 556 c 0,23,24
 9 568 9 568 11.5 573 c 128,-1,25
 14 578 14 578 29 578 c 0,26,27
 43 578 43 578 46 573 c 128,-1,28
 49 568 49 568 49 558 c 0,29,30
 49 540 49 540 44.5 518.5 c 128,-1,31
 40 497 40 497 34 478.5 c 128,-1,32
 28 460 28 460 21 448 c 1,33,-1
 0 448 l 1,17,18
EndSplineSet
EndChar

StartChar: uni01C6
Encoding: 454 454 331
Width: 689
GlyphClass: 2
Flags: W
AnchorPoint: "Anchor-2" 364 648 basechar 0
LayerCount: 2
Fore
SplineSet
433 623 m 1,0,-1
 470 623 l 1,1,-1
 543 560 l 1,2,-1
 616 623 l 1,3,-1
 652 623 l 1,4,-1
 568 534 l 1,5,-1
 517 534 l 1,6,-1
 433 623 l 1,0,-1
131 0 m 2,7,8
 100 0 100 0 83 6.5 c 128,-1,9
 66 13 66 13 60.5 36 c 128,-1,10
 55 59 55 59 55 106 c 2,11,-1
 55 379 l 2,12,13
 55 416 55 416 63 436 c 128,-1,14
 71 456 71 456 92.5 463 c 128,-1,15
 114 470 114 470 156 470 c 2,16,-1
 286 470 l 1,17,-1
 286 629 l 1,18,-1
 336 629 l 1,19,-1
 336 0 l 1,20,-1
 131 0 l 2,7,8
286 41 m 1,21,-1
 286 429 l 1,22,-1
 161 429 l 2,23,24
 126 429 126 429 115.5 419 c 128,-1,25
 105 409 105 409 105 374 c 2,26,-1
 105 99 l 2,27,28
 105 61 105 61 115 51 c 128,-1,29
 125 41 125 41 153 41 c 2,30,-1
 286 41 l 1,21,-1
416 9 m 1,31,-1
 606 429 l 1,32,-1
 419 429 l 1,33,-1
 429 470 l 1,34,-1
 661 470 l 1,35,-1
 661 443 l 1,36,-1
 479 41 l 1,37,-1
 670 41 l 1,38,-1
 653 0 l 1,39,-1
 416 0 l 1,40,-1
 416 9 l 1,31,-1
EndSplineSet
EndChar

StartChar: e
Encoding: 101 101 332
Width: 383
GlyphClass: 2
Flags: W
AnchorPoint: "Anchor-3" 329 10 basechar 0
AnchorPoint: "Anchor-1" 191 0 basechar 0
AnchorPoint: "Anchor-0" 191 470 basechar 0
LayerCount: 2
Fore
SplineSet
185 -4 m 0,0,1
 129 -4 129 -4 100 12 c 128,-1,2
 71 28 71 28 61 53 c 128,-1,3
 51 78 51 78 51 103 c 2,4,-1
 51 368 l 2,5,6
 51 394 51 394 61 418.5 c 128,-1,7
 71 443 71 443 101.5 459 c 128,-1,8
 132 475 132 475 192 475 c 0,9,10
 249 475 249 475 279 459.5 c 128,-1,11
 309 444 309 444 320.5 419.5 c 128,-1,12
 332 395 332 395 332 368 c 2,13,-1
 332 254 l 1,14,-1
 282 252 l 1,15,-1
 282 360 l 2,16,17
 282 398 282 398 257.5 417 c 128,-1,18
 233 436 233 436 191 436 c 0,19,20
 150 436 150 436 125.5 417 c 128,-1,21
 101 398 101 398 101 360 c 2,22,-1
 101 112 l 2,23,24
 101 74 101 74 125 55.5 c 128,-1,25
 149 37 149 37 185 37 c 0,26,27
 232 37 232 37 257 56.5 c 128,-1,28
 282 76 282 76 282 119 c 2,29,-1
 282 169 l 1,30,-1
 332 174 l 1,31,-1
 332 115 l 2,32,33
 332 83 332 83 320 56 c 128,-1,34
 308 29 308 29 276.5 12.5 c 128,-1,35
 245 -4 245 -4 185 -4 c 0,0,1
59 230 m 1,36,-1
 59 259 l 1,37,-1
 332 259 l 1,38,-1
 332 230 l 1,39,-1
 59 230 l 1,36,-1
EndSplineSet
EndChar

StartChar: ecaron
Encoding: 283 283 335
Width: 383
GlyphClass: 2
Flags: W
AnchorPoint: "Anchor-3" 329 10 basechar 0
AnchorPoint: "Anchor-1" 191 0 basechar 0
AnchorPoint: "Anchor-0" 191 629 basechar 0
LayerCount: 2
Fore
SplineSet
81 623 m 1,0,-1
 118 623 l 1,1,-1
 191 560 l 1,2,-1
 265 623 l 1,3,-1
 300 623 l 1,4,-1
 216 534 l 1,5,-1
 165 534 l 1,6,-1
 81 623 l 1,0,-1
185 -4 m 0,7,8
 129 -4 129 -4 100 12 c 128,-1,9
 71 28 71 28 61 53 c 128,-1,10
 51 78 51 78 51 103 c 2,11,-1
 51 368 l 2,12,13
 51 394 51 394 61 418.5 c 128,-1,14
 71 443 71 443 101.5 459 c 128,-1,15
 132 475 132 475 192 475 c 0,16,17
 249 475 249 475 279 459.5 c 128,-1,18
 309 444 309 444 320.5 419.5 c 128,-1,19
 332 395 332 395 332 368 c 2,20,-1
 332 254 l 1,21,-1
 282 252 l 1,22,-1
 282 360 l 2,23,24
 282 398 282 398 257.5 417 c 128,-1,25
 233 436 233 436 191 436 c 0,26,27
 150 436 150 436 125.5 417 c 128,-1,28
 101 398 101 398 101 360 c 2,29,-1
 101 112 l 2,30,31
 101 74 101 74 125 55.5 c 128,-1,32
 149 37 149 37 185 37 c 0,33,34
 232 37 232 37 257 56.5 c 128,-1,35
 282 76 282 76 282 119 c 2,36,-1
 282 169 l 1,37,-1
 332 174 l 1,38,-1
 332 115 l 2,39,40
 332 83 332 83 320 56 c 128,-1,41
 308 29 308 29 276.5 12.5 c 128,-1,42
 245 -4 245 -4 185 -4 c 0,7,8
59 230 m 1,43,-1
 59 259 l 1,44,-1
 332 259 l 1,45,-1
 332 230 l 1,46,-1
 59 230 l 1,43,-1
EndSplineSet
EndChar

StartChar: eight
Encoding: 56 56 348
Width: 368
GlyphClass: 1
Flags: W
LayerCount: 2
Fore
SplineSet
171 -2 m 2,0,1
 126 -2 126 -2 97 12 c 128,-1,2
 68 26 68 26 54.5 58.5 c 128,-1,3
 41 91 41 91 41 146 c 2,4,-1
 41 191 l 2,5,6
 41 235 41 235 51.5 262 c 128,-1,7
 62 289 62 289 81 302.5 c 128,-1,8
 100 316 100 316 123 318 c 1,9,10
 101 325 101 325 83 338 c 128,-1,11
 65 351 65 351 54.5 376.5 c 128,-1,12
 44 402 44 402 44 446 c 2,13,-1
 44 483 l 2,14,15
 44 533 44 533 57 563.5 c 128,-1,16
 70 594 70 594 98.5 608 c 128,-1,17
 127 622 127 622 171 622 c 2,18,-1
 199 622 l 2,19,20
 264 622 264 622 294 590.5 c 128,-1,21
 324 559 324 559 324 485 c 2,22,-1
 324 446 l 2,23,24
 324 404 324 404 313 378 c 128,-1,25
 302 352 302 352 284 338.5 c 128,-1,26
 266 325 266 325 242 318 c 1,27,28
 267 316 267 316 286 302 c 128,-1,29
 305 288 305 288 316 261 c 128,-1,30
 327 234 327 234 327 191 c 2,31,-1
 327 162 l 2,32,33
 327 99 327 99 312.5 63.5 c 128,-1,34
 298 28 298 28 267.5 13 c 128,-1,35
 237 -2 237 -2 189 -2 c 2,36,-1
 171 -2 l 2,0,1
181 39 m 0,37,38
 210 39 210 39 231.5 47.5 c 128,-1,39
 253 56 253 56 264.5 82.5 c 128,-1,40
 276 109 276 109 276 162 c 2,41,-1
 276 203 l 2,42,43
 276 236 276 236 269 258 c 128,-1,44
 262 280 262 280 242.5 292 c 128,-1,45
 223 304 223 304 184 304 c 0,46,47
 146 304 146 304 126 292 c 128,-1,48
 106 280 106 280 98.5 258 c 128,-1,49
 91 236 91 236 91 203 c 2,50,-1
 91 152 l 2,51,52
 91 104 91 104 104 79.5 c 128,-1,53
 117 55 117 55 137 47 c 128,-1,54
 157 39 157 39 181 39 c 0,37,38
184 343 m 256,55,56
 213 343 213 343 233 351 c 128,-1,57
 253 359 253 359 264 381.5 c 128,-1,58
 275 404 275 404 275 445 c 2,59,-1
 275 482 l 2,60,61
 275 513 275 513 268.5 536 c 128,-1,62
 262 559 262 559 242.5 571.5 c 128,-1,63
 223 584 223 584 184 584 c 0,64,65
 146 584 146 584 126 571.5 c 128,-1,66
 106 559 106 559 99.5 536.5 c 128,-1,67
 93 514 93 514 93 485 c 2,68,-1
 93 444 l 2,69,70
 93 403 93 403 103.5 381 c 128,-1,71
 114 359 114 359 134.5 351 c 128,-1,72
 155 343 155 343 184 343 c 256,55,56
EndSplineSet
EndChar

StartChar: uni0207
Encoding: 519 519 349
Width: 383
GlyphClass: 2
Flags: W
AnchorPoint: "Anchor-3" 329 10 basechar 0
AnchorPoint: "Anchor-1" 191 0 basechar 0
AnchorPoint: "Anchor-0" 191 621 basechar 0
LayerCount: 2
Fore
SplineSet
189 622 m 0,0,1
 243 622 243 622 266.5 595 c 128,-1,2
 290 568 290 568 290 530 c 1,3,-1
 257 530 l 1,4,5
 257 557 257 557 242 575.5 c 128,-1,6
 227 594 227 594 189 594 c 0,7,8
 154 594 154 594 140 574.5 c 128,-1,9
 126 555 126 555 126 530 c 1,10,-1
 93 530 l 1,11,12
 93 551 93 551 101 572 c 128,-1,13
 109 593 109 593 130 607.5 c 128,-1,14
 151 622 151 622 189 622 c 0,0,1
185 -4 m 0,15,16
 129 -4 129 -4 100 12 c 128,-1,17
 71 28 71 28 61 53 c 128,-1,18
 51 78 51 78 51 103 c 2,19,-1
 51 368 l 2,20,21
 51 394 51 394 61 418.5 c 128,-1,22
 71 443 71 443 101.5 459 c 128,-1,23
 132 475 132 475 192 475 c 0,24,25
 249 475 249 475 279 459.5 c 128,-1,26
 309 444 309 444 320.5 419.5 c 128,-1,27
 332 395 332 395 332 368 c 2,28,-1
 332 254 l 1,29,-1
 282 252 l 1,30,-1
 282 360 l 2,31,32
 282 398 282 398 257.5 417 c 128,-1,33
 233 436 233 436 191 436 c 0,34,35
 150 436 150 436 125.5 417 c 128,-1,36
 101 398 101 398 101 360 c 2,37,-1
 101 112 l 2,38,39
 101 74 101 74 125 55.5 c 128,-1,40
 149 37 149 37 185 37 c 0,41,42
 232 37 232 37 257 56.5 c 128,-1,43
 282 76 282 76 282 119 c 2,44,-1
 282 169 l 1,45,-1
 332 174 l 1,46,-1
 332 115 l 2,47,48
 332 83 332 83 320 56 c 128,-1,49
 308 29 308 29 276.5 12.5 c 128,-1,50
 245 -4 245 -4 185 -4 c 0,15,16
59 230 m 1,51,-1
 59 259 l 1,52,-1
 332 259 l 1,53,-1
 332 230 l 1,54,-1
 59 230 l 1,51,-1
EndSplineSet
EndChar

StartChar: emdash
Encoding: 8212 8212 352
Width: 635
GlyphClass: 1
Flags: W
LayerCount: 2
Fore
SplineSet
65 283 m 1,0,-1
 65 324 l 1,1,-1
 571 324 l 1,2,-1
 571 283 l 1,3,-1
 65 283 l 1,0,-1
EndSplineSet
EndChar

StartChar: endash
Encoding: 8211 8211 353
Width: 456
GlyphClass: 1
Flags: W
LayerCount: 2
Fore
SplineSet
65 283 m 1,0,-1
 65 324 l 1,1,-1
 392 324 l 1,2,-1
 392 283 l 1,3,-1
 65 283 l 1,0,-1
EndSplineSet
EndChar

StartChar: eng
Encoding: 331 331 354
Width: 546
GlyphClass: 1
Flags: W
LayerCount: 2
Fore
SplineSet
38 470 m 1,0,-1
 78 470 l 1,1,-1
 83 421 l 1,2,3
 99 447 99 447 127 461.5 c 128,-1,4
 155 476 155 476 198 476 c 0,5,6
 250 476 250 476 275.5 459.5 c 128,-1,7
 301 443 301 443 310 419 c 128,-1,8
 319 395 319 395 319 373 c 2,9,-1
 319 0 l 1,10,-1
 269 0 l 1,11,-1
 269 356 l 2,12,13
 269 397 269 397 244.5 416 c 128,-1,14
 220 435 220 435 178 435 c 0,15,16
 141 435 141 435 120.5 420.5 c 128,-1,17
 100 406 100 406 88 384 c 1,18,-1
 88 0 l 1,19,-1
 38 0 l 1,20,-1
 38 470 l 1,0,-1
155 -182 m 1,21,-1
 148 -141 l 1,22,-1
 224 -141 l 2,23,24
 251 -141 251 -141 260 -127 c 128,-1,25
 269 -113 269 -113 269 -81 c 2,26,-1
 269 248 l 1,27,-1
 319 248 l 1,28,-1
 319 -92 l 2,29,30
 319 -139 319 -139 302 -160.5 c 128,-1,31
 285 -182 285 -182 240 -182 c 2,32,-1
 155 -182 l 1,21,-1
EndSplineSet
EndChar

StartChar: equal
Encoding: 61 61 356
Width: 384
GlyphClass: 1
Flags: W
LayerCount: 2
Fore
SplineSet
54 295 m 1,0,-1
 54 324 l 1,1,-1
 341 324 l 1,2,-1
 341 295 l 1,3,-1
 54 295 l 1,0,-1
54 103 m 1,4,-1
 54 133 l 1,5,-1
 341 133 l 1,6,-1
 341 103 l 1,7,-1
 54 103 l 1,4,-1
EndSplineSet
EndChar

StartChar: eth
Encoding: 240 240 357
Width: 390
GlyphClass: 1
Flags: W
LayerCount: 2
Fore
SplineSet
192 -1 m 0,0,1
 137 -1 137 -1 106.5 10.5 c 128,-1,2
 76 22 76 22 65 56 c 128,-1,3
 54 90 54 90 54 155 c 2,4,-1
 54 326 l 2,5,6
 54 403 54 403 81 436.5 c 128,-1,7
 108 470 108 470 181 470 c 0,8,9
 218 470 218 470 241 461 c 128,-1,10
 264 452 264 452 280 434 c 1,11,-1
 274 430 l 1,12,13
 269 498 269 498 234.5 544 c 128,-1,14
 200 590 200 590 129 590 c 2,15,-1
 66 590 l 1,16,-1
 66 620 l 1,17,-1
 151 620 l 2,18,19
 202 620 202 620 243.5 594 c 128,-1,20
 285 568 285 568 310 508.5 c 128,-1,21
 335 449 335 449 335 350 c 2,22,-1
 335 127 l 2,23,24
 335 89 335 89 329 64 c 128,-1,25
 323 39 323 39 307.5 25 c 128,-1,26
 292 11 292 11 264 5 c 128,-1,27
 236 -1 236 -1 192 -1 c 0,0,1
192 42 m 0,28,29
 247 42 247 42 266 60.5 c 128,-1,30
 285 79 285 79 285 126 c 2,31,-1
 285 361 l 2,32,33
 285 394 285 394 266 414.5 c 128,-1,34
 247 435 247 435 195 435 c 0,35,36
 166 435 166 435 145.5 427 c 128,-1,37
 125 419 125 419 114.5 396.5 c 128,-1,38
 104 374 104 374 104 330 c 2,39,-1
 104 143 l 2,40,41
 104 101 104 101 113 79 c 128,-1,42
 122 57 122 57 141.5 49.5 c 128,-1,43
 161 42 161 42 192 42 c 0,28,29
108 512 m 1,44,-1
 92 524 l 1,45,-1
 195 660 l 1,46,-1
 210 648 l 1,47,-1
 108 512 l 1,44,-1
EndSplineSet
EndChar

StartChar: Euro
Encoding: 8364 8364 359
Width: 390
GlyphClass: 1
Flags: W
LayerCount: 2
Fore
SplineSet
212 -6 m 0,0,1
 144 -6 144 -6 109 20 c 128,-1,2
 74 46 74 46 74 98 c 2,3,-1
 74 516 l 2,4,5
 74 572 74 572 106 600 c 128,-1,6
 138 628 138 628 209 628 c 0,7,8
 284 628 284 628 318.5 601 c 128,-1,9
 353 574 353 574 353 515 c 2,10,-1
 353 422 l 1,11,-1
 302 415 l 1,12,-1
 302 504 l 2,13,14
 302 541 302 541 283.5 563 c 128,-1,15
 265 585 265 585 212 585 c 0,16,17
 160 585 160 585 142.5 562.5 c 128,-1,18
 125 540 125 540 125 505 c 2,19,-1
 125 108 l 2,20,21
 125 77 125 77 145.5 56.5 c 128,-1,22
 166 36 166 36 212 36 c 0,23,24
 259 36 259 36 280.5 56.5 c 128,-1,25
 302 77 302 77 302 109 c 2,26,-1
 302 195 l 1,27,-1
 353 203 l 1,28,-1
 353 98 l 2,29,30
 353 46 353 46 316 20 c 128,-1,31
 279 -6 279 -6 212 -6 c 0,0,1
19 242 m 1,32,-1
 19 266 l 1,33,-1
 245 266 l 1,34,-1
 231 242 l 1,35,-1
 19 242 l 1,32,-1
19 340 m 1,36,-1
 19 364 l 1,37,-1
 301 364 l 1,38,-1
 287 340 l 1,39,-1
 19 340 l 1,36,-1
EndSplineSet
EndChar

StartChar: exclam
Encoding: 33 33 360
Width: 225
GlyphClass: 1
Flags: W
LayerCount: 2
Fore
SplineSet
95 188 m 1,0,-1
 80 620 l 1,1,-1
 132 620 l 1,2,-1
 117 188 l 1,3,-1
 95 188 l 1,0,-1
105 4 m 256,4,5
 87 4 87 4 84.5 10 c 128,-1,6
 82 16 82 16 82 28 c 0,7,8
 82 41 82 41 84.5 47.5 c 128,-1,9
 87 54 87 54 105 54 c 256,10,11
 123 54 123 54 126.5 47.5 c 128,-1,12
 130 41 130 41 130 28 c 0,13,14
 130 16 130 16 126.5 10 c 128,-1,15
 123 4 123 4 105 4 c 256,4,5
EndSplineSet
EndChar

StartChar: exclamdown
Encoding: 161 161 361
Width: 225
GlyphClass: 1
Flags: W
LayerCount: 2
Fore
SplineSet
114 475 m 0,0,1
 132 475 132 475 135.5 469 c 128,-1,2
 139 463 139 463 139 451 c 0,3,4
 139 437 139 437 135.5 431 c 128,-1,5
 132 425 132 425 114 425 c 0,6,7
 97 425 97 425 94 431 c 128,-1,8
 91 437 91 437 91 451 c 0,9,10
 91 463 91 463 94 469 c 128,-1,11
 97 475 97 475 114 475 c 0,0,1
104 291 m 1,12,-1
 126 291 l 1,13,-1
 141 -141 l 1,14,-1
 89 -141 l 1,15,-1
 104 291 l 1,12,-1
EndSplineSet
EndChar

StartChar: f
Encoding: 102 102 362
Width: 216
GlyphClass: 1
Flags: W
LayerCount: 2
Fore
SplineSet
70 441 m 1,0,-1
 27 441 l 1,1,-1
 27 470 l 1,2,-1
 70 470 l 1,3,-1
 70 549 l 2,4,5
 70 590 70 590 88.5 606 c 128,-1,6
 107 622 107 622 156 622 c 2,7,-1
 237 622 l 1,8,-1
 237 593 l 1,9,-1
 177 593 l 2,10,11
 144 593 144 593 132 581.5 c 128,-1,12
 120 570 120 570 120 541 c 2,13,-1
 120 470 l 1,14,-1
 207 470 l 1,15,-1
 202 441 l 1,16,-1
 120 441 l 1,17,-1
 120 0 l 1,18,-1
 70 0 l 1,19,-1
 70 441 l 1,0,-1
EndSplineSet
EndChar

StartChar: f_f
Encoding: 65564 -1 363
Width: 469
GlyphClass: 1
Flags: W
LayerCount: 2
Fore
SplineSet
70 441 m 1,0,-1
 27 441 l 1,1,-1
 27 470 l 1,2,-1
 70 470 l 1,3,-1
 70 549 l 2,4,5
 70 590 70 590 88.5 606 c 128,-1,6
 107 622 107 622 156 622 c 2,7,-1
 238 622 l 1,8,-1
 238 593 l 1,9,-1
 179 593 l 2,10,11
 146 593 146 593 134 581.5 c 128,-1,12
 122 570 122 570 122 541 c 2,13,-1
 122 470 l 1,14,-1
 286 470 l 1,15,-1
 280 441 l 1,16,-1
 122 441 l 1,17,-1
 122 0 l 1,18,-1
 70 0 l 1,19,-1
 70 441 l 1,0,-1
283 441 m 1,20,-1
 240 441 l 1,21,-1
 240 470 l 1,22,-1
 283 470 l 1,23,-1
 283 549 l 2,24,25
 283 590 283 590 302 606 c 128,-1,26
 321 622 321 622 370 622 c 2,27,-1
 453 622 l 1,28,-1
 453 593 l 1,29,-1
 393 593 l 2,30,31
 359 593 359 593 348 581.5 c 128,-1,32
 337 570 337 570 337 541 c 2,33,-1
 337 470 l 1,34,-1
 423 470 l 1,35,-1
 417 441 l 1,36,-1
 337 441 l 1,37,-1
 337 0 l 1,38,-1
 283 0 l 1,39,-1
 283 441 l 1,20,-1
EndSplineSet
Ligature2: "'liga' Standard Ligatures in Latin lookup 26 subtable" f f
EndChar

StartChar: f_f_i
Encoding: 65565 -1 364
Width: 614
GlyphClass: 1
Flags: W
LayerCount: 2
Fore
SplineSet
283 441 m 1,0,-1
 240 441 l 1,1,-1
 240 470 l 1,2,-1
 283 470 l 1,3,-1
 283 549 l 2,4,5
 283 590 283 590 302 606 c 128,-1,6
 321 622 321 622 370 622 c 2,7,-1
 453 622 l 1,8,-1
 453 593 l 1,9,-1
 393 593 l 2,10,11
 359 593 359 593 348 581.5 c 128,-1,12
 337 570 337 570 337 541 c 2,13,-1
 337 470 l 1,14,-1
 544 470 l 1,15,-1
 538 441 l 1,16,-1
 337 441 l 1,17,-1
 337 0 l 1,18,-1
 283 0 l 1,19,-1
 283 441 l 1,0,-1
70 441 m 1,20,-1
 27 441 l 1,21,-1
 27 470 l 1,22,-1
 70 470 l 1,23,-1
 70 549 l 2,24,25
 70 590 70 590 88.5 606 c 128,-1,26
 107 622 107 622 156 622 c 2,27,-1
 238 622 l 1,28,-1
 238 593 l 1,29,-1
 179 593 l 2,30,31
 146 593 146 593 134 581.5 c 128,-1,32
 122 570 122 570 122 541 c 2,33,-1
 122 470 l 1,34,-1
 286 470 l 1,35,-1
 280 441 l 1,36,-1
 122 441 l 1,37,-1
 122 0 l 1,38,-1
 70 0 l 1,39,-1
 70 441 l 1,20,-1
524 470 m 1,40,-1
 574 470 l 1,41,-1
 574 0 l 1,42,-1
 524 0 l 1,43,-1
 524 470 l 1,40,-1
EndSplineSet
Ligature2: "'liga' Standard Ligatures in Latin lookup 26 subtable" f f i
EndChar

StartChar: f_f_l
Encoding: 65566 -1 365
Width: 655
GlyphClass: 1
Flags: W
LayerCount: 2
Fore
SplineSet
70 0 m 1,0,-1
 70 441 l 1,1,-1
 27 441 l 1,2,-1
 27 470 l 1,3,-1
 70 470 l 1,4,-1
 70 549 l 2,5,6
 70 590 70 590 88.5 606 c 128,-1,7
 107 622 107 622 156 622 c 2,8,-1
 238 622 l 1,9,-1
 238 593 l 1,10,-1
 179 593 l 2,11,12
 146 593 146 593 134 581.5 c 128,-1,13
 122 570 122 570 122 541 c 2,14,-1
 122 470 l 1,15,-1
 327 470 l 1,16,-1
 323 441 l 1,17,-1
 122 441 l 1,18,-1
 122 0 l 1,19,-1
 70 0 l 1,0,-1
323 0 m 1,20,-1
 323 441 l 1,21,-1
 280 441 l 1,22,-1
 280 470 l 1,23,-1
 323 470 l 1,24,-1
 323 549 l 2,25,26
 323 590 323 590 341 606 c 128,-1,27
 359 622 359 622 409 622 c 2,28,-1
 590 620 l 1,29,-1
 567 593 l 1,30,-1
 432 593 l 2,31,32
 398 593 398 593 386.5 581.5 c 128,-1,33
 375 570 375 570 375 541 c 2,34,-1
 375 470 l 1,35,-1
 462 470 l 1,36,-1
 457 441 l 1,37,-1
 375 441 l 1,38,-1
 375 0 l 1,39,-1
 323 0 l 1,20,-1
545 0 m 1,40,-1
 545 620 l 1,41,-1
 595 620 l 1,42,-1
 595 0 l 1,43,-1
 545 0 l 1,40,-1
EndSplineSet
Ligature2: "'liga' Standard Ligatures in Latin lookup 26 subtable" f f l
EndChar

StartChar: fi
Encoding: 64257 64257 366
Width: 395
GlyphClass: 1
Flags: W
LayerCount: 2
Fore
SplineSet
70 441 m 1,0,-1
 27 441 l 1,1,-1
 27 470 l 1,2,-1
 70 470 l 1,3,-1
 70 549 l 2,4,5
 70 590 70 590 88.5 606 c 128,-1,6
 107 622 107 622 156 622 c 2,7,-1
 238 622 l 1,8,-1
 238 593 l 1,9,-1
 179 593 l 2,10,11
 146 593 146 593 134 581.5 c 128,-1,12
 122 570 122 570 122 541 c 2,13,-1
 122 470 l 1,14,-1
 321 470 l 1,15,-1
 317 441 l 1,16,-1
 122 441 l 1,17,-1
 122 0 l 1,18,-1
 70 0 l 1,19,-1
 70 441 l 1,0,-1
301 470 m 1,20,-1
 351 470 l 1,21,-1
 351 0 l 1,22,-1
 301 0 l 1,23,-1
 301 470 l 1,20,-1
EndSplineSet
Ligature2: "'liga' Standard Ligatures in Latin lookup 26 subtable" f i
EndChar

StartChar: five
Encoding: 53 53 367
Width: 364
GlyphClass: 1
Flags: W
LayerCount: 2
Fore
SplineSet
164 -2 m 2,0,1
 119 -2 119 -2 93 13 c 128,-1,2
 67 28 67 28 56 58 c 128,-1,3
 45 88 45 88 45 134 c 2,4,-1
 45 217 l 1,5,-1
 97 206 l 1,6,-1
 97 138 l 2,7,8
 97 94 97 94 111 66.5 c 128,-1,9
 125 39 125 39 167 39 c 2,10,-1
 200 39 l 2,11,12
 237 39 237 39 258 66 c 128,-1,13
 279 93 279 93 279 138 c 2,14,-1
 279 239 l 2,15,16
 279 291 279 291 270.5 318 c 128,-1,17
 262 345 262 345 245 355 c 128,-1,18
 228 365 228 365 201 365 c 2,19,-1
 182 365 l 2,20,21
 155 365 155 365 136.5 352.5 c 128,-1,22
 118 340 118 340 108.5 324.5 c 128,-1,23
 99 309 99 309 97 301 c 1,24,-1
 47 311 l 1,25,-1
 47 620 l 1,26,-1
 317 620 l 1,27,-1
 317 579 l 1,28,-1
 97 579 l 1,29,-1
 97 355 l 1,30,31
 100 359 100 359 112.5 370.5 c 128,-1,32
 125 382 125 382 146 392 c 128,-1,33
 167 402 167 402 195 402 c 2,34,-1
 221 402 l 2,35,36
 248 402 248 402 268 395 c 128,-1,37
 288 388 288 388 301.5 370 c 128,-1,38
 315 352 315 352 322 321.5 c 128,-1,39
 329 291 329 291 329 245 c 2,40,-1
 329 141 l 2,41,42
 329 97 329 97 317 69 c 128,-1,43
 305 41 305 41 286 25.5 c 128,-1,44
 267 10 267 10 246.5 4 c 128,-1,45
 226 -2 226 -2 208 -2 c 2,46,-1
 164 -2 l 2,0,1
EndSplineSet
EndChar

StartChar: fl
Encoding: 64258 64258 368
Width: 402
GlyphClass: 1
Flags: W
LayerCount: 2
Fore
SplineSet
70 441 m 1,0,-1
 27 441 l 1,1,-1
 27 470 l 1,2,-1
 70 470 l 1,3,-1
 70 549 l 2,4,5
 70 590 70 590 88.5 606 c 128,-1,6
 107 622 107 622 156 622 c 2,7,-1
 341 620 l 1,8,-1
 318 593 l 1,9,-1
 179 593 l 2,10,11
 146 593 146 593 134 581.5 c 128,-1,12
 122 570 122 570 122 541 c 2,13,-1
 122 470 l 1,14,-1
 208 470 l 1,15,-1
 204 441 l 1,16,-1
 122 441 l 1,17,-1
 122 0 l 1,18,-1
 70 0 l 1,19,-1
 70 441 l 1,0,-1
292 620 m 1,20,-1
 342 620 l 1,21,-1
 342 0 l 1,22,-1
 292 0 l 1,23,-1
 292 620 l 1,20,-1
EndSplineSet
Ligature2: "'liga' Standard Ligatures in Latin lookup 26 subtable" f l
EndChar

StartChar: florin
Encoding: 402 402 369
Width: 286
GlyphClass: 1
Flags: W
LayerCount: 2
Fore
SplineSet
-74 -173 m 1,0,-1
 -81 -133 l 1,1,-1
 -17 -133 l 2,2,3
 10 -133 10 -133 20 -118.5 c 128,-1,4
 30 -104 30 -104 34 -72 c 2,5,-1
 88 441 l 1,6,-1
 45 441 l 1,7,-1
 47 470 l 1,8,-1
 90 470 l 1,9,-1
 99 549 l 2,10,11
 102 576 102 576 111.5 592 c 128,-1,12
 121 608 121 608 140 615 c 128,-1,13
 159 622 159 622 192 622 c 2,14,-1
 273 622 l 1,15,-1
 269 593 l 1,16,-1
 210 593 l 2,17,18
 177 593 177 593 164 581.5 c 128,-1,19
 151 570 151 570 148 541 c 2,20,-1
 141 470 l 1,21,-1
 228 470 l 1,22,-1
 219 441 l 1,23,-1
 138 441 l 1,24,-1
 82 -84 l 2,25,26
 78 -130 78 -130 58.5 -151.5 c 128,-1,27
 39 -173 39 -173 -6 -173 c 2,28,-1
 -74 -173 l 1,0,-1
EndSplineSet
EndChar

StartChar: four
Encoding: 52 52 370
Width: 413
GlyphClass: 1
Flags: W
LayerCount: 2
Fore
SplineSet
255 0 m 1,0,-1
 257 128 l 1,1,-1
 26 128 l 1,2,-1
 9 154 l 1,3,-1
 249 620 l 1,4,-1
 310 620 l 1,5,-1
 309 169 l 1,6,-1
 408 169 l 1,7,-1
 397 128 l 1,8,-1
 310 128 l 1,9,-1
 310 0 l 1,10,-1
 255 0 l 1,0,-1
68 169 m 1,11,-1
 259 169 l 1,12,-1
 259 552 l 1,13,-1
 68 169 l 1,11,-1
EndSplineSet
Substitution2: "'sups' Superscript in Latin lookup 20 subtable" uni2074
Substitution2: "'aalt' Access All Alternates in Latin lookup 0 subtable" uni2074
EndChar

StartChar: uni2074
Encoding: 8308 8308 371
Width: 300
GlyphClass: 1
Flags: W
LayerCount: 2
Fore
SplineSet
187 228 m 1,0,-1
 187 308 l 1,1,-1
 26 308 l 1,2,-1
 8 338 l 1,3,-1
 180 631 l 1,4,-1
 237 631 l 1,5,-1
 236 338 l 1,6,-1
 292 338 l 1,7,-1
 285 308 l 1,8,-1
 237 308 l 1,9,-1
 237 228 l 1,10,-1
 187 228 l 1,0,-1
55 338 m 1,11,-1
 188 338 l 1,12,-1
 188 574 l 1,13,-1
 55 338 l 1,11,-1
EndSplineSet
EndChar

StartChar: fraction
Encoding: 8260 8260 372
Width: 157
GlyphClass: 1
Flags: W
LayerCount: 2
Fore
SplineSet
-123 -44 m 1,0,-1
 258 630 l 1,1,-1
 301 630 l 1,2,-1
 -82 -44 l 1,3,-1
 -123 -44 l 1,0,-1
EndSplineSet
EndChar

StartChar: franc
Encoding: 8355 8355 373
Width: 374
GlyphClass: 1
Flags: W
LayerCount: 2
Fore
SplineSet
0 158 m 1,0,-1
 0 190 l 1,1,-1
 226 190 l 1,2,-1
 226 158 l 1,3,-1
 0 158 l 1,0,-1
72 620 m 1,4,-1
 348 620 l 1,5,-1
 348 579 l 1,6,-1
 123 579 l 1,7,-1
 123 369 l 1,8,-1
 332 369 l 1,9,-1
 324 329 l 1,10,-1
 123 329 l 1,11,-1
 123 0 l 1,12,-1
 72 0 l 1,13,-1
 72 620 l 1,4,-1
EndSplineSet
EndChar

StartChar: g
Encoding: 103 103 374
Width: 396
GlyphClass: 2
Flags: W
AnchorPoint: "Anchor-1" 198 -250 basechar 0
AnchorPoint: "Anchor-0" 198 470 basechar 0
LayerCount: 2
Fore
SplineSet
108 -173 m 1,0,-1
 101 -133 l 1,1,-1
 240 -133 l 2,2,3
 269 -133 269 -133 277.5 -118.5 c 128,-1,4
 286 -104 286 -104 286 -72 c 2,5,-1
 286 429 l 1,6,-1
 159 429 l 2,7,8
 131 429 131 429 119.5 422 c 128,-1,9
 108 415 108 415 106.5 398.5 c 128,-1,10
 105 382 105 382 105 353 c 2,11,-1
 105 115 l 2,12,13
 105 84 105 84 108 68 c 128,-1,14
 111 52 111 52 121 46.5 c 128,-1,15
 131 41 131 41 152 41 c 2,16,-1
 255 41 l 1,17,-1
 248 0 l 1,18,-1
 128 0 l 2,19,20
 93 0 93 0 77 10 c 128,-1,21
 61 20 61 20 58 47.5 c 128,-1,22
 55 75 55 75 55 127 c 2,23,-1
 55 377 l 2,24,25
 55 416 55 416 63 436 c 128,-1,26
 71 456 71 456 94 463 c 128,-1,27
 117 470 117 470 162 470 c 2,28,-1
 336 470 l 1,29,-1
 336 -84 l 2,30,31
 336 -130 336 -130 319 -151.5 c 128,-1,32
 302 -173 302 -173 257 -173 c 2,33,-1
 108 -173 l 1,0,-1
EndSplineSet
EndChar

StartChar: gcaron
Encoding: 487 487 376
Width: 396
GlyphClass: 2
Flags: W
AnchorPoint: "Anchor-1" 198 -250 basechar 0
AnchorPoint: "Anchor-0" 198 629 basechar 0
LayerCount: 2
Fore
SplineSet
88 623 m 1,0,-1
 125 623 l 1,1,-1
 198 560 l 1,2,-1
 271 623 l 1,3,-1
 307 623 l 1,4,-1
 223 534 l 1,5,-1
 172 534 l 1,6,-1
 88 623 l 1,0,-1
108 -173 m 1,7,-1
 101 -133 l 1,8,-1
 240 -133 l 2,9,10
 269 -133 269 -133 277.5 -118.5 c 128,-1,11
 286 -104 286 -104 286 -72 c 2,12,-1
 286 429 l 1,13,-1
 159 429 l 2,14,15
 131 429 131 429 119.5 422 c 128,-1,16
 108 415 108 415 106.5 398.5 c 128,-1,17
 105 382 105 382 105 353 c 2,18,-1
 105 115 l 2,19,20
 105 84 105 84 108 68 c 128,-1,21
 111 52 111 52 121 46.5 c 128,-1,22
 131 41 131 41 152 41 c 2,23,-1
 255 41 l 1,24,-1
 248 0 l 1,25,-1
 128 0 l 2,26,27
 93 0 93 0 77 10 c 128,-1,28
 61 20 61 20 58 47.5 c 128,-1,29
 55 75 55 75 55 127 c 2,30,-1
 55 377 l 2,31,32
 55 416 55 416 63 436 c 128,-1,33
 71 456 71 456 94 463 c 128,-1,34
 117 470 117 470 162 470 c 2,35,-1
 336 470 l 1,36,-1
 336 -84 l 2,37,38
 336 -130 336 -130 319 -151.5 c 128,-1,39
 302 -173 302 -173 257 -173 c 2,40,-1
 108 -173 l 1,7,-1
EndSplineSet
EndChar

StartChar: germandbls
Encoding: 223 223 380
Width: 462
GlyphClass: 1
Flags: W
LayerCount: 2
Fore
SplineSet
-28 -173 m 1,0,-1
 -39 -133 l 1,1,-1
 24 -133 l 2,2,3
 52 -133 52 -133 61 -118.5 c 128,-1,4
 70 -104 70 -104 70 -72 c 2,5,-1
 70 441 l 1,6,-1
 27 441 l 1,7,-1
 27 470 l 1,8,-1
 70 470 l 1,9,-1
 70 538 l 2,10,11
 70 586 70 586 90 604 c 128,-1,12
 110 622 110 622 171 622 c 2,13,-1
 226 622 l 2,14,15
 263 622 263 622 285 614 c 128,-1,16
 307 606 307 606 316.5 586 c 128,-1,17
 326 566 326 566 326 528 c 2,18,-1
 326 478 l 2,19,20
 326 465 326 465 320.5 459.5 c 128,-1,21
 315 454 315 454 302 449 c 0,22,23
 275 446 275 446 260.5 433 c 128,-1,24
 246 420 246 420 241 400 c 128,-1,25
 236 380 236 380 236 359 c 0,26,27
 236 325 236 325 243.5 308 c 128,-1,28
 251 291 251 291 278 277 c 0,29,30
 306 261 306 261 322.5 252 c 128,-1,31
 339 243 339 243 352 236 c 0,32,33
 382 220 382 220 396.5 204 c 128,-1,34
 411 188 411 188 415.5 168 c 128,-1,35
 420 148 420 148 420 119 c 2,36,-1
 420 110 l 2,37,38
 420 53 420 53 391 23.5 c 128,-1,39
 362 -6 362 -6 282 -6 c 0,40,41
 213 -6 213 -6 182.5 23.5 c 128,-1,42
 152 53 152 53 152 106 c 2,43,-1
 152 174 l 1,44,-1
 198 181 l 1,45,-1
 198 108 l 2,46,47
 198 88 198 88 205 69.5 c 128,-1,48
 212 51 212 51 230.5 40 c 128,-1,49
 249 29 249 29 284 29 c 0,50,51
 326 29 326 29 350.5 44 c 128,-1,52
 375 59 375 59 375 108 c 0,53,54
 375 137 375 137 372 154.5 c 128,-1,55
 369 172 369 172 358 185 c 128,-1,56
 347 198 347 198 322 211 c 0,57,58
 309 219 309 219 287 230.5 c 128,-1,59
 265 242 265 242 247 252 c 0,60,61
 225 264 225 264 212.5 277 c 128,-1,62
 200 290 200 290 195 309.5 c 128,-1,63
 190 329 190 329 190 359 c 0,64,65
 190 413 190 413 210 442.5 c 128,-1,66
 230 472 230 472 276 476 c 1,67,-1
 275 530 l 2,68,69
 275 569 275 569 259.5 581 c 128,-1,70
 244 593 244 593 204 593 c 2,71,-1
 193 593 l 2,72,73
 147 593 147 593 133.5 580.5 c 128,-1,74
 120 568 120 568 120 530 c 2,75,-1
 120 -84 l 2,76,77
 120 -130 120 -130 103 -151.5 c 128,-1,78
 86 -173 86 -173 41 -173 c 2,79,-1
 -28 -173 l 1,0,-1
EndSplineSet
EndChar

StartChar: gravecomb
Encoding: 768 768 382
Width: 0
GlyphClass: 4
Flags: W
AnchorPoint: "Anchor-6" 69 629 basemark 0
AnchorPoint: "Anchor-6" 104 470 mark 0
AnchorPoint: "Anchor-0" 104 470 mark 0
LayerCount: 2
Fore
SplineSet
103 534 m 1,0,-1
 0 629 l 1,1,-1
 50 629 l 1,2,-1
 136 534 l 1,3,-1
 103 534 l 1,0,-1
EndSplineSet
Substitution2: "'case' Case-Sensitive Forms in Latin lookup 25 subtable" gravecomb.case
Substitution2: "Single Substitution lookup 7 subtable" gravecomb.case
Substitution2: "Single Substitution lookup 6 subtable" gravecomb.case
Substitution2: "Single Substitution lookup 4 subtable" gravecomb.case
Substitution2: "Single Substitution lookup 3 subtable" gravecomb.case
Substitution2: "'aalt' Access All Alternates in Latin lookup 0 subtable" gravecomb.case
EndChar

StartChar: gravecomb.case
Encoding: 65567 -1 383
Width: 0
GlyphClass: 4
Flags: W
AnchorPoint: "Anchor-6" 69 629 basemark 0
AnchorPoint: "Anchor-6" 104 470 mark 0
AnchorPoint: "Anchor-0" 104 470 mark 0
LayerCount: 2
Fore
SplineSet
103 534 m 1,0,-1
 -8 621 l 1,1,-1
 42 621 l 1,2,-1
 136 534 l 1,3,-1
 103 534 l 1,0,-1
EndSplineSet
EndChar

StartChar: greater
Encoding: 62 62 384
Width: 385
GlyphClass: 1
Flags: W
LayerCount: 2
Fore
SplineSet
92 122 m 1,0,-1
 92 164 l 1,1,-1
 308 326 l 1,2,-1
 92 490 l 1,3,-1
 92 532 l 1,4,-1
 339 343 l 1,5,-1
 339 310 l 1,6,-1
 92 122 l 1,0,-1
EndSplineSet
EndChar

StartChar: greaterequal
Encoding: 8805 8805 385
Width: 410
GlyphClass: 1
Flags: W
LayerCount: 2
Fore
SplineSet
82 122 m 1,0,-1
 82 164 l 1,1,-1
 298 326 l 1,2,-1
 82 490 l 1,3,-1
 82 532 l 1,4,-1
 329 343 l 1,5,-1
 329 310 l 1,6,-1
 82 122 l 1,0,-1
82 -9 m 1,7,-1
 82 22 l 1,8,-1
 329 22 l 1,9,-1
 329 -9 l 1,10,-1
 82 -9 l 1,7,-1
EndSplineSet
EndChar

StartChar: uni20B2
Encoding: 8370 8370 386
Width: 347
GlyphClass: 1
Flags: W
LayerCount: 2
Fore
SplineSet
178 -3 m 0,0,1
 131 -3 131 -3 98.5 4.5 c 128,-1,2
 66 12 66 12 49.5 32.5 c 128,-1,3
 33 53 33 53 33 90 c 2,4,-1
 33 531 l 2,5,6
 33 587 33 587 70.5 605.5 c 128,-1,7
 108 624 108 624 176 624 c 256,8,9
 244 624 244 624 279.5 605 c 128,-1,10
 315 586 315 586 315 530 c 2,11,-1
 315 424 l 1,12,-1
 272 419 l 1,13,-1
 272 521 l 2,14,15
 272 559 272 559 248.5 571 c 128,-1,16
 225 583 225 583 178 583 c 0,17,18
 130 583 130 583 104 572 c 128,-1,19
 78 561 78 561 78 522 c 2,20,-1
 78 97 l 2,21,22
 78 71 78 71 90.5 58.5 c 128,-1,23
 103 46 103 46 126 42.5 c 128,-1,24
 149 39 149 39 178 39 c 0,25,26
 205 39 205 39 225.5 42.5 c 128,-1,27
 246 46 246 46 256.5 58.5 c 128,-1,28
 267 71 267 71 267 97 c 2,29,-1
 267 290 l 1,30,-1
 171 290 l 1,31,-1
 177 333 l 1,32,-1
 315 333 l 1,33,-1
 315 90 l 2,34,35
 315 53 315 53 299 32.5 c 128,-1,36
 283 12 283 12 252.5 4.5 c 128,-1,37
 222 -3 222 -3 178 -3 c 0,0,1
142 -85 m 1,38,-1
 191 680 l 1,39,-1
 207 680 l 1,40,-1
 157 -85 l 1,41,-1
 142 -85 l 1,38,-1
EndSplineSet
EndChar

StartChar: guillemotleft
Encoding: 171 171 387
Width: 523
GlyphClass: 1
Flags: W
LayerCount: 2
Fore
SplineSet
405 52 m 1,0,-1
 276 237 l 1,1,-1
 409 430 l 1,2,-1
 454 430 l 1,3,-1
 321 237 l 1,4,-1
 449 52 l 1,5,-1
 405 52 l 1,0,-1
197 52 m 1,6,-1
 68 237 l 1,7,-1
 202 430 l 1,8,-1
 247 430 l 1,9,-1
 114 237 l 1,10,-1
 242 52 l 1,11,-1
 197 52 l 1,6,-1
EndSplineSet
EndChar

StartChar: guillemotright
Encoding: 187 187 388
Width: 489
GlyphClass: 1
Flags: W
LayerCount: 2
Fore
SplineSet
265 52 m 1,0,-1
 393 237 l 1,1,-1
 260 430 l 1,2,-1
 303 430 l 1,3,-1
 437 237 l 1,4,-1
 308 52 l 1,5,-1
 265 52 l 1,0,-1
57 52 m 1,6,-1
 185 237 l 1,7,-1
 52 430 l 1,8,-1
 96 430 l 1,9,-1
 229 237 l 1,10,-1
 100 52 l 1,11,-1
 57 52 l 1,6,-1
EndSplineSet
EndChar

StartChar: guilsinglleft
Encoding: 8249 8249 389
Width: 315
GlyphClass: 1
Flags: W
LayerCount: 2
Fore
SplineSet
197 52 m 1,0,-1
 68 237 l 1,1,-1
 202 430 l 1,2,-1
 247 430 l 1,3,-1
 114 237 l 1,4,-1
 242 52 l 1,5,-1
 197 52 l 1,0,-1
EndSplineSet
EndChar

StartChar: guilsinglright
Encoding: 8250 8250 390
Width: 315
GlyphClass: 1
Flags: W
LayerCount: 2
Fore
SplineSet
73 52 m 1,0,-1
 201 237 l 1,1,-1
 68 430 l 1,2,-1
 114 430 l 1,3,-1
 247 237 l 1,4,-1
 118 52 l 1,5,-1
 73 52 l 1,0,-1
EndSplineSet
EndChar

StartChar: h
Encoding: 104 104 391
Width: 395
GlyphClass: 2
Flags: W
AnchorPoint: "Anchor-4" 105 541 basechar 0
AnchorPoint: "Anchor-1" 198 0 basechar 0
AnchorPoint: "Anchor-0" 83 630 basechar 0
LayerCount: 2
Fore
SplineSet
60 629 m 1,0,-1
 110 629 l 1,1,-1
 110 423 l 1,2,3
 126 448 126 448 152 461.5 c 128,-1,4
 178 475 178 475 220 475 c 0,5,6
 272 475 272 475 297.5 459 c 128,-1,7
 323 443 323 443 332 419.5 c 128,-1,8
 341 396 341 396 341 374 c 2,9,-1
 341 0 l 1,10,-1
 291 0 l 1,11,-1
 291 357 l 2,12,13
 291 399 291 399 266.5 417 c 128,-1,14
 242 435 242 435 200 435 c 0,15,16
 163 435 163 435 142.5 421 c 128,-1,17
 122 407 122 407 110 385 c 1,18,-1
 110 0 l 1,19,-1
 60 0 l 1,20,-1
 60 629 l 1,0,-1
EndSplineSet
EndChar

StartChar: hbar
Encoding: 295 295 392
Width: 395
GlyphClass: 2
Flags: W
AnchorPoint: "Anchor-4" 105 541 basechar 0
AnchorPoint: "Anchor-1" 198 0 basechar 0
AnchorPoint: "Anchor-0" 83 630 basechar 0
LayerCount: 2
Fore
SplineSet
16 530 m 1,0,-1
 16 551 l 1,1,-1
 194 551 l 1,2,-1
 194 530 l 1,3,-1
 16 530 l 1,0,-1
60 629 m 1,4,-1
 110 629 l 1,5,-1
 110 423 l 1,6,7
 126 448 126 448 152 461.5 c 128,-1,8
 178 475 178 475 220 475 c 0,9,10
 272 475 272 475 297.5 459 c 128,-1,11
 323 443 323 443 332 419.5 c 128,-1,12
 341 396 341 396 341 374 c 2,13,-1
 341 0 l 1,14,-1
 291 0 l 1,15,-1
 291 357 l 2,16,17
 291 399 291 399 266.5 417 c 128,-1,18
 242 435 242 435 200 435 c 0,19,20
 163 435 163 435 142.5 421 c 128,-1,21
 122 407 122 407 110 385 c 1,22,-1
 110 0 l 1,23,-1
 60 0 l 1,24,-1
 60 629 l 1,4,-1
EndSplineSet
EndChar

StartChar: hookabovecomb
Encoding: 777 777 394
Width: 0
GlyphClass: 4
Flags: W
AnchorPoint: "Anchor-6" 71 670 basemark 0
AnchorPoint: "Anchor-6" 71 470 mark 0
AnchorPoint: "Anchor-0" 71 470 mark 0
LayerCount: 2
Fore
SplineSet
56 534 m 1,0,1
 56 546 56 546 64 555 c 128,-1,2
 72 564 72 564 82.5 571.5 c 128,-1,3
 93 579 93 579 101 588 c 128,-1,4
 109 597 109 597 109 611 c 256,5,6
 109 625 109 625 97 634.5 c 128,-1,7
 85 644 85 644 70 644 c 0,8,9
 47 644 47 644 36.5 631.5 c 128,-1,10
 26 619 26 619 23 603 c 1,11,-1
 0 612 l 1,12,13
 3 639 3 639 23 654.5 c 128,-1,14
 43 670 43 670 76 670 c 0,15,16
 106 670 106 670 124 654.5 c 128,-1,17
 142 639 142 639 142 616 c 0,18,19
 142 596 142 596 133.5 584.5 c 128,-1,20
 125 573 125 573 114.5 566 c 128,-1,21
 104 559 104 559 96 552 c 128,-1,22
 88 545 88 545 88 534 c 1,23,-1
 56 534 l 1,0,1
EndSplineSet
Substitution2: "'case' Case-Sensitive Forms in Latin lookup 25 subtable" hookabovecomb.case
Substitution2: "Single Substitution lookup 7 subtable" hookabovecomb.case
Substitution2: "Single Substitution lookup 6 subtable" hookabovecomb.case
Substitution2: "Single Substitution lookup 4 subtable" hookabovecomb.case
Substitution2: "Single Substitution lookup 3 subtable" hookabovecomb.case
Substitution2: "'aalt' Access All Alternates in Latin lookup 0 subtable" hookabovecomb.case
EndChar

StartChar: hookabovecomb.case
Encoding: 65568 -1 395
Width: 0
GlyphClass: 4
Flags: W
AnchorPoint: "Anchor-6" 71 670 basemark 0
AnchorPoint: "Anchor-6" 71 470 mark 0
AnchorPoint: "Anchor-0" 71 470 mark 0
LayerCount: 2
Fore
SplineSet
56 534 m 1,0,1
 56 546 56 546 64 555 c 128,-1,2
 72 564 72 564 82.5 571.5 c 128,-1,3
 93 579 93 579 101 588 c 128,-1,4
 109 597 109 597 109 611 c 256,5,6
 109 625 109 625 97 634.5 c 128,-1,7
 85 644 85 644 70 644 c 0,8,9
 47 644 47 644 36.5 631.5 c 128,-1,10
 26 619 26 619 23 603 c 1,11,-1
 0 612 l 1,12,13
 3 639 3 639 23 654.5 c 128,-1,14
 43 670 43 670 76 670 c 0,15,16
 106 670 106 670 124 654.5 c 128,-1,17
 142 639 142 639 142 616 c 0,18,19
 142 596 142 596 133.5 584.5 c 128,-1,20
 125 573 125 573 114.5 566 c 128,-1,21
 104 559 104 559 96 552 c 128,-1,22
 88 545 88 545 88 534 c 1,23,-1
 56 534 l 1,0,1
EndSplineSet
EndChar

StartChar: uni031B
Encoding: 795 795 396
Width: 0
GlyphClass: 4
Flags: W
AnchorPoint: "Anchor-7" 107 520 basemark 0
AnchorPoint: "Anchor-7" -20 470 mark 0
AnchorPoint: "Anchor-2" -20 470 mark 0
LayerCount: 2
Fore
SplineSet
3 450 m 1,0,-1
 0 470 l 1,1,2
 33 470 33 470 45 482 c 128,-1,3
 57 494 57 494 56 520 c 1,4,-1
 87 520 l 1,5,6
 87 483 87 483 68 466.5 c 128,-1,7
 49 450 49 450 3 450 c 1,0,-1
EndSplineSet
Substitution2: "'case' Case-Sensitive Forms in Latin lookup 25 subtable" uni031B.case
Substitution2: "Single Substitution lookup 7 subtable" uni031B.case
Substitution2: "Single Substitution lookup 6 subtable" uni031B.case
Substitution2: "Single Substitution lookup 4 subtable" uni031B.case
Substitution2: "Single Substitution lookup 3 subtable" uni031B.case
Substitution2: "'aalt' Access All Alternates in Latin lookup 0 subtable" uni031B.case
EndChar

StartChar: uni031B.case
Encoding: 65569 -1 397
Width: 0
GlyphClass: 4
Flags: W
AnchorPoint: "Anchor-7" 107 520 basemark 0
AnchorPoint: "Anchor-7" -20 470 mark 0
AnchorPoint: "Anchor-2" -20 470 mark 0
LayerCount: 2
Fore
SplineSet
3 450 m 1,0,-1
 0 470 l 1,1,2
 33 470 33 470 45 482 c 128,-1,3
 57 494 57 494 56 520 c 1,4,-1
 87 520 l 1,5,6
 87 483 87 483 68 466.5 c 128,-1,7
 49 450 49 450 3 450 c 1,0,-1
EndSplineSet
EndChar

StartChar: uni030B
Encoding: 779 779 399
Width: 0
GlyphClass: 4
Flags: W
AnchorPoint: "Anchor-6" 98 658 basemark 0
AnchorPoint: "Anchor-6" 57 470 mark 0
AnchorPoint: "Anchor-0" 57 470 mark 0
LayerCount: 2
Fore
SplineSet
0 534 m 1,0,-1
 38 629 l 1,1,-1
 87 629 l 1,2,-1
 33 534 l 1,3,-1
 0 534 l 1,0,-1
81 534 m 1,4,-1
 119 629 l 1,5,-1
 169 629 l 1,6,-1
 115 534 l 1,7,-1
 81 534 l 1,4,-1
EndSplineSet
Substitution2: "'case' Case-Sensitive Forms in Latin lookup 25 subtable" uni030B.case
Substitution2: "Single Substitution lookup 7 subtable" uni030B.case
Substitution2: "Single Substitution lookup 6 subtable" uni030B.case
Substitution2: "Single Substitution lookup 4 subtable" uni030B.case
Substitution2: "Single Substitution lookup 3 subtable" uni030B.case
Substitution2: "'aalt' Access All Alternates in Latin lookup 0 subtable" uni030B.case
EndChar

StartChar: uni030B.case
Encoding: 65570 -1 400
Width: 0
GlyphClass: 4
Flags: W
AnchorPoint: "Anchor-6" 98 658 basemark 0
AnchorPoint: "Anchor-6" 57 470 mark 0
AnchorPoint: "Anchor-0" 57 470 mark 0
LayerCount: 2
Fore
SplineSet
0 534 m 1,0,-1
 38 629 l 1,1,-1
 87 629 l 1,2,-1
 33 534 l 1,3,-1
 0 534 l 1,0,-1
81 534 m 1,4,-1
 119 629 l 1,5,-1
 169 629 l 1,6,-1
 115 534 l 1,7,-1
 81 534 l 1,4,-1
EndSplineSet
EndChar

StartChar: hyphen
Encoding: 45 45 401
Width: 390
GlyphClass: 1
Flags: W
LayerCount: 2
Fore
SplineSet
65 283 m 1,0,-1
 65 324 l 1,1,-1
 326 324 l 1,2,-1
 326 283 l 1,3,-1
 65 283 l 1,0,-1
EndSplineSet
EndChar

StartChar: i
Encoding: 105 105 403
Width: 169
GlyphClass: 2
Flags: W
AnchorPoint: "Anchor-1" 84 0 basechar 0
LayerCount: 2
Fore
SplineSet
59 0 m 1,0,-1
 59 470 l 1,1,-1
 109 470 l 1,2,-1
 109 0 l 1,3,-1
 59 0 l 1,0,-1
84 535 m 256,4,5
 65 535 65 535 59.5 540.5 c 128,-1,6
 54 546 54 546 54 561 c 0,7,8
 54 577 54 577 59.5 582.5 c 128,-1,9
 65 588 65 588 84 588 c 256,10,11
 103 588 103 588 108.5 582.5 c 128,-1,12
 114 577 114 577 114 561 c 0,13,14
 114 546 114 546 108.5 540.5 c 128,-1,15
 103 535 103 535 84 535 c 256,4,5
EndSplineSet
Substitution2: "'locl' Localized Forms in Latin lookup 14 subtable" i.loclTRK
Substitution2: "'locl' Localized Forms in Latin lookup 13 subtable" i.loclTRK
Substitution2: "'locl' Localized Forms in Latin lookup 12 subtable" i.loclTRK
Substitution2: "'locl' Localized Forms in Latin lookup 11 subtable" i.loclTRK
Substitution2: "'locl' Localized Forms in Latin lookup 10 subtable" i.loclTRK
Substitution2: "Single Substitution lookup 4 subtable" dotlessi
Substitution2: "Single Substitution lookup 3 subtable" dotlessi
Substitution2: "'aalt' Access All Alternates in Latin lookup 0 subtable" i.loclTRK
EndChar

StartChar: uni01D0
Encoding: 464 464 406
Width: 169
GlyphClass: 2
Flags: W
AnchorPoint: "Anchor-3" 145 10 basechar 0
AnchorPoint: "Anchor-1" 85 0 basechar 0
AnchorPoint: "Anchor-0" 85 629 basechar 0
LayerCount: 2
Fore
SplineSet
-26 623 m 1,0,-1
 11 623 l 1,1,-1
 85 560 l 1,2,-1
 158 623 l 1,3,-1
 193 623 l 1,4,-1
 109 534 l 1,5,-1
 59 534 l 1,6,-1
 -26 623 l 1,0,-1
60 470 m 1,7,-1
 110 470 l 1,8,-1
 110 0 l 1,9,-1
 60 0 l 1,10,-1
 60 470 l 1,7,-1
EndSplineSet
EndChar

StartChar: dotlessi
Encoding: 305 305 412
Width: 169
GlyphClass: 2
Flags: W
AnchorPoint: "Anchor-3" 145 10 basechar 0
AnchorPoint: "Anchor-1" 85 0 basechar 0
AnchorPoint: "Anchor-0" 85 470 basechar 0
LayerCount: 2
Fore
SplineSet
60 470 m 1,0,-1
 110 470 l 1,1,-1
 110 0 l 1,2,-1
 60 0 l 1,3,-1
 60 470 l 1,0,-1
EndSplineSet
EndChar

StartChar: uni020B
Encoding: 523 523 415
Width: 169
GlyphClass: 2
Flags: W
AnchorPoint: "Anchor-3" 145 10 basechar 0
AnchorPoint: "Anchor-1" 85 0 basechar 0
AnchorPoint: "Anchor-0" 85 621 basechar 0
LayerCount: 2
Fore
SplineSet
82 622 m 0,0,1
 136 622 136 622 159.5 595 c 128,-1,2
 183 568 183 568 183 530 c 1,3,-1
 150 530 l 1,4,5
 150 557 150 557 135 575.5 c 128,-1,6
 120 594 120 594 83 594 c 0,7,8
 47 594 47 594 33 574.5 c 128,-1,9
 19 555 19 555 19 530 c 1,10,-1
 -13 530 l 1,11,12
 -13 551 -13 551 -5.5 572 c 128,-1,13
 2 593 2 593 23 607.5 c 128,-1,14
 44 622 44 622 82 622 c 0,0,1
60 470 m 1,15,-1
 110 470 l 1,16,-1
 110 0 l 1,17,-1
 60 0 l 1,18,-1
 60 470 l 1,15,-1
EndSplineSet
EndChar

StartChar: uni2206
Encoding: 8710 8710 417
Width: 507
GlyphClass: 1
Flags: W
LayerCount: 2
Fore
SplineSet
26 0 m 1,0,-1
 227 595 l 1,1,-1
 285 595 l 1,2,-1
 481 0 l 1,3,-1
 26 0 l 1,0,-1
413 34 m 1,4,-1
 244 553 l 1,5,-1
 69 34 l 1,6,-1
 413 34 l 1,4,-1
EndSplineSet
EndChar

StartChar: infinity
Encoding: 8734 8734 418
Width: 815
GlyphClass: 1
Flags: W
LayerCount: 2
Fore
SplineSet
199 75 m 0,0,1
 124 75 124 75 89 118.5 c 128,-1,2
 54 162 54 162 54 248 c 256,3,4
 54 334 54 334 89 378 c 128,-1,5
 124 422 124 422 199 422 c 0,6,7
 237 422 237 422 269 404.5 c 128,-1,8
 301 387 301 387 327.5 361 c 128,-1,9
 354 335 354 335 374.5 310.5 c 128,-1,10
 395 286 395 286 408 271 c 1,11,12
 421 285 421 285 440.5 309.5 c 128,-1,13
 460 334 460 334 485 360 c 128,-1,14
 510 386 510 386 541.5 404 c 128,-1,15
 573 422 573 422 611 422 c 0,16,17
 690 422 690 422 725.5 378 c 128,-1,18
 761 334 761 334 761 248 c 256,19,20
 761 162 761 162 724.5 118.5 c 128,-1,21
 688 75 688 75 611 75 c 0,22,23
 575 75 575 75 544 91 c 128,-1,24
 513 107 513 107 487.5 131 c 128,-1,25
 462 155 462 155 442 178.5 c 128,-1,26
 422 202 422 202 409 217 c 1,27,28
 395 201 395 201 374.5 177 c 128,-1,29
 354 153 354 153 327.5 129.5 c 128,-1,30
 301 106 301 106 269 90.5 c 128,-1,31
 237 75 237 75 199 75 c 0,0,1
213 117 m 0,32,33
 254 117 254 117 298.5 150.5 c 128,-1,34
 343 184 343 184 385 241 c 1,35,36
 358 274 358 274 331.5 305.5 c 128,-1,37
 305 337 305 337 276.5 357.5 c 128,-1,38
 248 378 248 378 213 378 c 0,39,40
 155 378 155 378 131 345 c 128,-1,41
 107 312 107 312 107 247 c 0,42,43
 107 183 107 183 131 150 c 128,-1,44
 155 117 155 117 213 117 c 0,32,33
597 119 m 0,45,46
 649 119 649 119 678.5 149.5 c 128,-1,47
 708 180 708 180 708 249 c 0,48,49
 708 319 708 319 678.5 349 c 128,-1,50
 649 379 649 379 597 379 c 0,51,52
 568 379 568 379 544 363.5 c 128,-1,53
 520 348 520 348 499 325.5 c 128,-1,54
 478 303 478 303 461.5 280 c 128,-1,55
 445 257 445 257 432 242 c 1,56,57
 446 227 446 227 464.5 206 c 128,-1,58
 483 185 483 185 505 165 c 128,-1,59
 527 145 527 145 550.5 132 c 128,-1,60
 574 119 574 119 597 119 c 0,45,46
EndSplineSet
EndChar

StartChar: integral
Encoding: 8747 8747 419
Width: 286
GlyphClass: 1
Flags: W
LayerCount: 2
Fore
SplineSet
-74 -173 m 1,0,-1
 -81 -133 l 1,1,-1
 -17 -133 l 2,2,3
 10 -133 10 -133 20 -118.5 c 128,-1,4
 30 -104 30 -104 34 -72 c 2,5,-1
 99 549 l 2,6,7
 102 576 102 576 111.5 592 c 128,-1,8
 121 608 121 608 140 615 c 128,-1,9
 159 622 159 622 192 622 c 2,10,-1
 273 622 l 1,11,-1
 269 593 l 1,12,-1
 210 593 l 2,13,14
 177 593 177 593 164 581.5 c 128,-1,15
 151 570 151 570 148 541 c 2,16,-1
 82 -84 l 2,17,18
 78 -130 78 -130 58.5 -151.5 c 128,-1,19
 39 -173 39 -173 -6 -173 c 2,20,-1
 -74 -173 l 1,0,-1
EndSplineSet
EndChar

StartChar: j
Encoding: 106 106 422
Width: 185
GlyphClass: 1
Flags: W
LayerCount: 2
Fore
SplineSet
-38 -173 m 1,0,-1
 -45 -133 l 1,1,-1
 30 -133 l 2,2,3
 58 -133 58 -133 66.5 -118.5 c 128,-1,4
 75 -104 75 -104 75 -72 c 2,5,-1
 75 470 l 1,6,-1
 125 470 l 1,7,-1
 125 -84 l 2,8,9
 125 -130 125 -130 108.5 -151.5 c 128,-1,10
 92 -173 92 -173 47 -173 c 2,11,-1
 -38 -173 l 1,0,-1
100 535 m 0,12,13
 81 535 81 535 75.5 540.5 c 128,-1,14
 70 546 70 546 70 561 c 0,15,16
 70 577 70 577 75.5 582.5 c 128,-1,17
 81 588 81 588 100 588 c 0,18,19
 120 588 120 588 125 582.5 c 128,-1,20
 130 577 130 577 130 561 c 0,21,22
 130 546 130 546 125 540.5 c 128,-1,23
 120 535 120 535 100 535 c 0,12,13
EndSplineSet
Substitution2: "Single Substitution lookup 4 subtable" uni0237
Substitution2: "Single Substitution lookup 3 subtable" uni0237
EndChar

StartChar: uni0237
Encoding: 567 567 424
Width: 179
GlyphClass: 2
Flags: W
AnchorPoint: "Anchor-1" 88 -250 basechar 0
AnchorPoint: "Anchor-0" 99 470 basechar 0
LayerCount: 2
Fore
SplineSet
-39 -173 m 1,0,-1
 -45 -133 l 1,1,-1
 29 -133 l 2,2,3
 57 -133 57 -133 66 -118.5 c 128,-1,4
 75 -104 75 -104 75 -72 c 2,5,-1
 75 470 l 1,6,-1
 125 470 l 1,7,-1
 125 -84 l 2,8,9
 125 -130 125 -130 108 -151.5 c 128,-1,10
 91 -173 91 -173 46 -173 c 2,11,-1
 -39 -173 l 1,0,-1
EndSplineSet
EndChar

StartChar: k
Encoding: 107 107 425
Width: 349
GlyphClass: 2
Flags: W
AnchorPoint: "Anchor-1" 193 0 basechar 0
AnchorPoint: "Anchor-0" 177 630 basechar 0
LayerCount: 2
Fore
SplineSet
60 0 m 1,0,-1
 60 628 l 1,1,-1
 110 628 l 1,2,-1
 110 0 l 1,3,-1
 60 0 l 1,0,-1
295 0 m 1,4,-1
 143 222 l 1,5,-1
 88 222 l 1,6,-1
 88 260 l 1,7,-1
 143 260 l 1,8,-1
 275 482 l 1,9,-1
 322 464 l 1,10,-1
 188 246 l 1,11,-1
 353 0 l 1,12,-1
 295 0 l 1,4,-1
EndSplineSet
EndChar

StartChar: kgreenlandic
Encoding: 312 312 427
Width: 349
GlyphClass: 1
Flags: W
LayerCount: 2
Fore
SplineSet
38 0 m 1,0,-1
 38 548 l 1,1,-1
 88 548 l 1,2,-1
 88 0 l 1,3,-1
 38 0 l 1,0,-1
66 222 m 1,4,-1
 66 260 l 1,5,-1
 127 260 l 1,6,-1
 127 222 l 1,7,-1
 66 222 l 1,4,-1
273 0 m 1,8,-1
 111 242 l 1,9,-1
 247 470 l 1,10,-1
 303 470 l 1,11,-1
 165 246 l 1,12,-1
 331 0 l 1,13,-1
 273 0 l 1,8,-1
EndSplineSet
EndChar

StartChar: uni20AD
Encoding: 8365 8365 428
Width: 384
GlyphClass: 2
Flags: W
AnchorPoint: "Anchor-1" 196 0 basechar 0
AnchorPoint: "Anchor-0" 196 620 basechar 0
LayerCount: 2
Fore
SplineSet
2 319 m 1,0,-1
 2 354 l 1,1,-1
 369 354 l 1,2,-1
 369 319 l 1,3,-1
 2 319 l 1,0,-1
318 -9 m 1,4,-1
 138 334 l 1,5,-1
 307 625 l 1,6,-1
 346 601 l 1,7,-1
 191 337 l 1,8,-1
 364 14 l 1,9,-1
 318 -9 l 1,4,-1
70 620 m 1,10,-1
 121 620 l 1,11,-1
 121 0 l 1,12,-1
 70 0 l 1,13,-1
 70 620 l 1,10,-1
EndSplineSet
EndChar

StartChar: l
Encoding: 108 108 429
Width: 169
GlyphClass: 2
Flags: W
AnchorPoint: "Anchor-4" 85 315 basechar 0
AnchorPoint: "Anchor-2" 145 648 basechar 0
AnchorPoint: "Anchor-1" 85 0 basechar 0
AnchorPoint: "Anchor-0" 85 630 basechar 0
LayerCount: 2
Fore
SplineSet
60 628 m 1,0,-1
 110 628 l 1,1,-1
 110 0 l 1,2,-1
 60 0 l 1,3,-1
 60 628 l 1,0,-1
EndSplineSet
EndChar

StartChar: uni27E8
Encoding: 10216 10216 434
Width: 281
GlyphClass: 1
Flags: W
LayerCount: 2
Fore
SplineSet
161 50 m 1,0,-1
 87 390 l 1,1,-1
 122 390 l 1,2,-1
 194 50 l 1,3,-1
 161 50 l 1,0,-1
88 198 m 1,4,-1
 159 532 l 1,5,-1
 194 532 l 1,6,-1
 121 198 l 1,7,-1
 88 198 l 1,4,-1
EndSplineSet
EndChar

StartChar: less
Encoding: 60 60 435
Width: 385
GlyphClass: 1
Flags: W
LayerCount: 2
Fore
SplineSet
295 122 m 1,0,-1
 48 310 l 1,1,-1
 48 343 l 1,2,-1
 295 532 l 1,3,-1
 295 490 l 1,4,-1
 79 326 l 1,5,-1
 295 164 l 1,6,-1
 295 122 l 1,0,-1
EndSplineSet
EndChar

StartChar: lessequal
Encoding: 8804 8804 436
Width: 410
GlyphClass: 1
Flags: W
LayerCount: 2
Fore
SplineSet
334 122 m 1,0,-1
 87 310 l 1,1,-1
 87 343 l 1,2,-1
 334 532 l 1,3,-1
 334 490 l 1,4,-1
 118 326 l 1,5,-1
 334 164 l 1,6,-1
 334 122 l 1,0,-1
96 -9 m 1,7,-1
 96 22 l 1,8,-1
 331 22 l 1,9,-1
 331 -9 l 1,10,-1
 96 -9 l 1,7,-1
EndSplineSet
EndChar

StartChar: lira
Encoding: 8356 8356 437
Width: 431
GlyphClass: 1
Flags: W
LayerCount: 2
Fore
SplineSet
293 -2 m 0,0,1
 273 -2 273 -2 239.5 2.5 c 128,-1,2
 206 7 206 7 170 11 c 128,-1,3
 134 15 134 15 108 15 c 0,4,5
 89 15 89 15 74.5 12.5 c 128,-1,6
 60 10 60 10 52 4 c 1,7,-1
 52 24 l 1,8,9
 94 68 94 68 111 119 c 128,-1,10
 128 170 128 170 128 248 c 0,11,12
 128 302 128 302 117 348 c 128,-1,13
 106 394 106 394 95 433.5 c 128,-1,14
 84 473 84 473 84 506 c 0,15,16
 84 571 84 571 120.5 600 c 128,-1,17
 157 629 157 629 216 629 c 0,18,19
 278 629 278 629 313.5 598.5 c 128,-1,20
 349 568 349 568 349 494 c 2,21,-1
 349 451 l 1,22,-1
 297 451 l 1,23,-1
 297 488 l 2,24,25
 297 551 297 551 273 574 c 128,-1,26
 249 597 249 597 214 597 c 0,27,28
 178 597 178 597 156 574.5 c 128,-1,29
 134 552 134 552 134 511 c 0,30,31
 134 478 134 478 144.5 439 c 128,-1,32
 155 400 155 400 166 352.5 c 128,-1,33
 177 305 177 305 177 245 c 0,34,35
 177 165 177 165 159 118 c 128,-1,36
 141 71 141 71 111 47 c 1,37,38
 116 47 116 47 122 47 c 128,-1,39
 128 47 128 47 134 47 c 0,40,41
 154 47 154 47 177 43.5 c 128,-1,42
 200 40 200 40 222 36.5 c 128,-1,43
 244 33 244 33 262 33 c 0,44,45
 289 33 289 33 307.5 49.5 c 128,-1,46
 326 66 326 66 326 114 c 2,47,-1
 326 173 l 1,48,-1
 380 183 l 1,49,-1
 380 121 l 2,50,51
 380 87 380 87 374.5 59 c 128,-1,52
 369 31 369 31 350 14.5 c 128,-1,53
 331 -2 331 -2 293 -2 c 0,0,1
53 199 m 1,54,-1
 59 224 l 1,55,-1
 272 224 l 1,56,-1
 265 199 l 1,57,-1
 53 199 l 1,54,-1
52 280 m 1,58,-1
 58 305 l 1,59,-1
 275 305 l 1,60,-1
 269 280 l 1,61,-1
 52 280 l 1,58,-1
EndSplineSet
EndChar

StartChar: uni20BA
Encoding: 8378 8378 438
Width: 423
GlyphClass: 1
Flags: W
LayerCount: 2
Fore
SplineSet
136 5 m 2,0,1
 116 5 116 5 103.5 15.5 c 128,-1,2
 91 26 91 26 91 55 c 2,3,-1
 91 620 l 1,4,-1
 142 620 l 1,5,-1
 142 79 l 2,6,7
 142 61 142 61 149 54 c 128,-1,8
 156 47 156 47 169 47 c 2,9,-1
 210 47 l 2,10,11
 255 48 255 48 281.5 54.5 c 128,-1,12
 308 61 308 61 320 79.5 c 128,-1,13
 332 98 332 98 332 133 c 2,14,-1
 332 361 l 1,15,-1
 383 381 l 1,16,-1
 383 126 l 2,17,18
 383 55 383 55 341.5 30 c 128,-1,19
 300 5 300 5 211 5 c 2,20,-1
 136 5 l 2,0,1
12 211 m 1,21,-1
 12 240 l 1,22,-1
 250 294 l 1,23,-1
 250 264 l 1,24,-1
 12 211 l 1,21,-1
12 340 m 1,25,-1
 12 369 l 1,26,-1
 250 423 l 1,27,-1
 250 393 l 1,28,-1
 12 340 l 1,25,-1
EndSplineSet
EndChar

StartChar: logicalnot
Encoding: 172 172 440
Width: 605
GlyphClass: 1
Flags: W
LayerCount: 2
Fore
SplineSet
511 63 m 1,0,-1
 511 294 l 1,1,-1
 44 294 l 1,2,-1
 44 330 l 1,3,-1
 561 330 l 1,4,-1
 561 63 l 1,5,-1
 511 63 l 1,0,-1
EndSplineSet
EndChar

StartChar: lozenge
Encoding: 9674 9674 441
Width: 525
GlyphClass: 1
Flags: W
LayerCount: 2
Fore
SplineSet
252 0 m 1,0,-1
 68 323 l 1,1,-1
 253 643 l 1,2,-1
 276 643 l 1,3,-1
 457 323 l 1,4,-1
 275 0 l 1,5,-1
 252 0 l 1,0,-1
264 53 m 1,6,-1
 419 323 l 1,7,-1
 264 589 l 1,8,-1
 108 323 l 1,9,-1
 264 53 l 1,6,-1
EndSplineSet
EndChar

StartChar: lslash
Encoding: 322 322 442
Width: 258
GlyphClass: 2
Flags: W
AnchorPoint: "Anchor-4" 116 315 basechar 0
AnchorPoint: "Anchor-2" 177 648 basechar 0
AnchorPoint: "Anchor-1" 116 0 basechar 0
AnchorPoint: "Anchor-0" 116 630 basechar 0
LayerCount: 2
Fore
SplineSet
91 628 m 1,0,-1
 141 628 l 1,1,-1
 141 0 l 1,2,-1
 91 0 l 1,3,-1
 91 628 l 1,0,-1
39 207 m 1,4,-1
 28 246 l 1,5,-1
 219 297 l 1,6,-1
 230 258 l 1,7,-1
 39 207 l 1,4,-1
EndSplineSet
EndChar

StartChar: m
Encoding: 109 109 443
Width: 626
GlyphClass: 1
Flags: W
LayerCount: 2
Fore
SplineSet
60 0 m 1,0,-1
 60 472 l 1,1,-1
 100 472 l 1,2,-1
 105 423 l 1,3,4
 121 448 121 448 149.5 462.5 c 128,-1,5
 178 477 178 477 220 477 c 0,6,7
 261 477 261 477 285.5 466 c 128,-1,8
 310 455 310 455 323 437.5 c 128,-1,9
 336 420 336 420 339 401 c 1,10,-1
 327 392 l 1,11,12
 333 424 333 424 352.5 442.5 c 128,-1,13
 372 461 372 461 399 469 c 128,-1,14
 426 477 426 477 452 477 c 0,15,16
 504 477 504 477 529 460.5 c 128,-1,17
 554 444 554 444 563 420.5 c 128,-1,18
 572 397 572 397 572 375 c 2,19,-1
 572 0 l 1,20,-1
 522 0 l 1,21,-1
 522 358 l 2,22,23
 522 400 522 400 497 418 c 128,-1,24
 472 436 472 436 432 436 c 0,25,26
 394 436 394 436 367.5 418 c 128,-1,27
 341 400 341 400 341 358 c 2,28,-1
 341 0 l 1,29,-1
 291 0 l 1,30,-1
 291 359 l 2,31,32
 291 400 291 400 266 418 c 128,-1,33
 241 436 241 436 200 436 c 0,34,35
 163 436 163 436 142.5 421.5 c 128,-1,36
 122 407 122 407 110 385 c 1,37,-1
 110 0 l 1,38,-1
 60 0 l 1,0,-1
EndSplineSet
EndChar

StartChar: uni0331
Encoding: 817 817 445
Width: 0
GlyphClass: 4
Flags: W
AnchorPoint: "Anchor-5" 116 -85 basemark 0
AnchorPoint: "Anchor-5" 116 0 mark 0
AnchorPoint: "Anchor-1" 116 0 mark 0
LayerCount: 2
Fore
SplineSet
0 -85 m 1,0,-1
 0 -53 l 1,1,-1
 233 -53 l 1,2,-1
 233 -85 l 1,3,-1
 0 -85 l 1,0,-1
EndSplineSet
EndChar

StartChar: uni0304
Encoding: 772 772 446
Width: 0
GlyphClass: 4
Flags: W
AnchorPoint: "Anchor-6" 107 567 basemark 0
AnchorPoint: "Anchor-6" 107 470 mark 0
AnchorPoint: "Anchor-0" 107 470 mark 0
LayerCount: 2
Fore
SplineSet
0 540 m 1,0,-1
 0 573 l 1,1,-1
 214 573 l 1,2,-1
 214 540 l 1,3,-1
 0 540 l 1,0,-1
EndSplineSet
Substitution2: "'case' Case-Sensitive Forms in Latin lookup 25 subtable" uni0304.case
Substitution2: "Single Substitution lookup 7 subtable" uni0304.case
Substitution2: "Single Substitution lookup 6 subtable" uni0304.case
Substitution2: "Single Substitution lookup 4 subtable" uni0304.case
Substitution2: "Single Substitution lookup 3 subtable" uni0304.case
Substitution2: "'aalt' Access All Alternates in Latin lookup 0 subtable" uni0304.case
EndChar

StartChar: uni0304.case
Encoding: 65572 -1 447
Width: 0
GlyphClass: 4
Flags: W
AnchorPoint: "Anchor-6" 107 567 basemark 0
AnchorPoint: "Anchor-6" 107 470 mark 0
AnchorPoint: "Anchor-0" 107 470 mark 0
LayerCount: 2
Fore
SplineSet
0 540 m 1,0,-1
 0 573 l 1,1,-1
 214 573 l 1,2,-1
 214 540 l 1,3,-1
 0 540 l 1,0,-1
EndSplineSet
EndChar

StartChar: uni20BC
Encoding: 8380 8380 448
Width: 450
GlyphClass: 1
Flags: W
LayerCount: 2
Fore
SplineSet
34 7 m 1,0,-1
 64 538 l 2,1,2
 67 591 67 591 110 611.5 c 128,-1,3
 153 632 153 632 225 632 c 0,4,5
 300 632 300 632 341.5 611.5 c 128,-1,6
 383 591 383 591 386 538 c 2,7,-1
 416 7 l 1,8,-1
 365 7 l 1,9,-1
 335 521 l 2,10,11
 334 539 334 539 326.5 555 c 128,-1,12
 319 571 319 571 296 581 c 128,-1,13
 273 591 273 591 225 591 c 0,14,15
 179 591 179 591 155.5 581 c 128,-1,16
 132 571 132 571 124.5 555 c 128,-1,17
 117 539 117 539 116 521 c 2,18,-1
 86 7 l 1,19,-1
 34 7 l 1,0,-1
215 530 m 1,20,-1
 222 684 l 1,21,-1
 236 298 l 1,22,-1
 227 144 l 1,23,-1
 215 530 l 1,20,-1
EndSplineSet
EndChar

StartChar: uni00B5
Encoding: 181 181 449
Width: 364
GlyphClass: 1
Flags: W
LayerCount: 2
Fore
SplineSet
158 0 m 2,0,1
 107 0 107 0 81 15 c 128,-1,2
 55 30 55 30 46.5 52.5 c 128,-1,3
 38 75 38 75 38 97 c 2,4,-1
 38 470 l 1,5,-1
 88 470 l 1,6,-1
 88 117 l 2,7,8
 88 76 88 76 112 58.5 c 128,-1,9
 136 41 136 41 178 41 c 2,10,-1
 269 41 l 1,11,-1
 269 470 l 1,12,-1
 319 470 l 1,13,-1
 319 0 l 1,14,-1
 158 0 l 2,0,1
116 -173 m 2,15,16
 71 -173 71 -173 54.5 -151.5 c 128,-1,17
 38 -130 38 -130 38 -84 c 2,18,-1
 38 470 l 1,19,-1
 88 470 l 1,20,-1
 88 -72 l 2,21,22
 88 -104 88 -104 96.5 -118.5 c 128,-1,23
 105 -133 105 -133 132 -133 c 2,24,-1
 142 -133 l 1,25,-1
 135 -173 l 1,26,-1
 116 -173 l 2,15,16
EndSplineSet
EndChar

StartChar: minus
Encoding: 8722 8722 450
Width: 403
GlyphClass: 1
Flags: W
LayerCount: 2
Fore
SplineSet
54 295 m 1,0,-1
 54 324 l 1,1,-1
 349 324 l 1,2,-1
 349 295 l 1,3,-1
 54 295 l 1,0,-1
EndSplineSet
EndChar

StartChar: minute
Encoding: 8242 8242 451
Width: 189
GlyphClass: 1
Flags: W
LayerCount: 2
Fore
SplineSet
77 423 m 1,0,-1
 68 637 l 1,1,-1
 120 637 l 1,2,-1
 113 423 l 1,3,-1
 77 423 l 1,0,-1
EndSplineSet
EndChar

StartChar: uni03BC
Encoding: 956 956 452
Width: 364
GlyphClass: 1
Flags: W
LayerCount: 2
Fore
SplineSet
158 0 m 2,0,1
 107 0 107 0 81 15 c 128,-1,2
 55 30 55 30 46.5 52.5 c 128,-1,3
 38 75 38 75 38 97 c 2,4,-1
 38 470 l 1,5,-1
 88 470 l 1,6,-1
 88 117 l 2,7,8
 88 76 88 76 112 58.5 c 128,-1,9
 136 41 136 41 178 41 c 2,10,-1
 269 41 l 1,11,-1
 269 470 l 1,12,-1
 319 470 l 1,13,-1
 319 0 l 1,14,-1
 158 0 l 2,0,1
116 -173 m 2,15,16
 71 -173 71 -173 54.5 -151.5 c 128,-1,17
 38 -130 38 -130 38 -84 c 2,18,-1
 38 470 l 1,19,-1
 88 470 l 1,20,-1
 88 -72 l 2,21,22
 88 -104 88 -104 96.5 -118.5 c 128,-1,23
 105 -133 105 -133 132 -133 c 2,24,-1
 142 -133 l 1,25,-1
 135 -173 l 1,26,-1
 116 -173 l 2,15,16
EndSplineSet
EndChar

StartChar: multiply
Encoding: 215 215 453
Width: 358
GlyphClass: 1
Flags: W
LayerCount: 2
Fore
SplineSet
68 401 m 1,0,-1
 89 423 l 1,1,-1
 298 213 l 1,2,-1
 276 193 l 1,3,-1
 68 401 l 1,0,-1
82 189 m 1,4,-1
 62 209 l 1,5,-1
 270 419 l 1,6,-1
 291 398 l 1,7,-1
 82 189 l 1,4,-1
EndSplineSet
EndChar

StartChar: n
Encoding: 110 110 454
Width: 395
GlyphClass: 2
Flags: W
AnchorPoint: "Anchor-1" 198 0 basechar 0
AnchorPoint: "Anchor-0" 199 470 basechar 0
LayerCount: 2
Fore
SplineSet
60 472 m 1,0,-1
 100 472 l 1,1,-1
 105 423 l 1,2,3
 121 447 121 447 149.5 462 c 128,-1,4
 178 477 178 477 220 477 c 0,5,6
 280 477 280 477 310.5 451 c 128,-1,7
 341 425 341 425 341 375 c 2,8,-1
 341 0 l 1,9,-1
 291 0 l 1,10,-1
 291 358 l 2,11,12
 291 399 291 399 266.5 417.5 c 128,-1,13
 242 436 242 436 200 436 c 0,14,15
 165 436 165 436 143.5 421.5 c 128,-1,16
 122 407 122 407 110 385 c 1,17,-1
 110 0 l 1,18,-1
 60 0 l 1,19,-1
 60 472 l 1,0,-1
EndSplineSet
EndChar

StartChar: uni20A6
Encoding: 8358 8358 456
Width: 408
GlyphClass: 1
Flags: W
LayerCount: 2
Fore
SplineSet
57 0 m 1,0,-1
 57 620 l 1,1,-1
 109 620 l 1,2,-1
 296 102 l 1,3,-1
 296 620 l 1,4,-1
 348 620 l 1,5,-1
 348 0 l 1,6,-1
 293 0 l 1,7,-1
 108 492 l 1,8,-1
 108 0 l 1,9,-1
 57 0 l 1,0,-1
20 258 m 1,10,-1
 25 277 l 1,11,-1
 389 277 l 1,12,-1
 385 258 l 1,13,-1
 20 258 l 1,10,-1
20 338 m 1,14,-1
 25 356 l 1,15,-1
 389 356 l 1,16,-1
 385 338 l 1,17,-1
 20 338 l 1,14,-1
EndSplineSet
EndChar

StartChar: ncaron
Encoding: 328 328 457
Width: 395
GlyphClass: 2
Flags: W
AnchorPoint: "Anchor-1" 198 0 basechar 0
AnchorPoint: "Anchor-0" 199 629 basechar 0
LayerCount: 2
Fore
SplineSet
88 623 m 1,0,-1
 126 623 l 1,1,-1
 199 560 l 1,2,-1
 272 623 l 1,3,-1
 308 623 l 1,4,-1
 223 534 l 1,5,-1
 173 534 l 1,6,-1
 88 623 l 1,0,-1
60 472 m 1,7,-1
 100 472 l 1,8,-1
 105 423 l 1,9,10
 121 447 121 447 149.5 462 c 128,-1,11
 178 477 178 477 220 477 c 0,12,13
 280 477 280 477 310.5 451 c 128,-1,14
 341 425 341 425 341 375 c 2,15,-1
 341 0 l 1,16,-1
 291 0 l 1,17,-1
 291 358 l 2,18,19
 291 399 291 399 266.5 417.5 c 128,-1,20
 242 436 242 436 200 436 c 0,21,22
 165 436 165 436 143.5 421.5 c 128,-1,23
 122 407 122 407 110 385 c 1,24,-1
 110 0 l 1,25,-1
 60 0 l 1,26,-1
 60 472 l 1,7,-1
EndSplineSet
EndChar

StartChar: nine
Encoding: 57 57 459
Width: 364
GlyphClass: 1
Flags: W
LayerCount: 2
Fore
SplineSet
180 -5 m 0,0,1
 132 -5 132 -5 101 8.5 c 128,-1,2
 70 22 70 22 55.5 48 c 128,-1,3
 41 74 41 74 41 111 c 2,4,-1
 41 184 l 1,5,-1
 90 177 l 1,6,-1
 90 125 l 2,7,8
 90 82 90 82 111 60 c 128,-1,9
 132 38 132 38 180 38 c 0,10,11
 229 38 229 38 250 60 c 128,-1,12
 271 82 271 82 271 125 c 2,13,-1
 271 289 l 1,14,15
 265 262 265 262 238 244 c 128,-1,16
 211 226 211 226 163 226 c 0,17,18
 113 226 113 226 86.5 244.5 c 128,-1,19
 60 263 60 263 50 292.5 c 128,-1,20
 40 322 40 322 40 354 c 2,21,-1
 40 465 l 2,22,23
 40 515 40 515 50 546.5 c 128,-1,24
 60 578 60 578 79 594.5 c 128,-1,25
 98 611 98 611 124.5 617 c 128,-1,26
 151 623 151 623 183 623 c 0,27,28
 212 623 212 623 237.5 617 c 128,-1,29
 263 611 263 611 282 594.5 c 128,-1,30
 301 578 301 578 311 546.5 c 128,-1,31
 321 515 321 515 321 465 c 2,32,-1
 321 122 l 2,33,34
 321 80 321 80 307.5 52 c 128,-1,35
 294 24 294 24 263.5 9.5 c 128,-1,36
 233 -5 233 -5 180 -5 c 0,0,1
181 260 m 0,37,38
 229 260 229 260 250 287.5 c 128,-1,39
 271 315 271 315 271 361 c 2,40,-1
 271 453 l 2,41,42
 271 507 271 507 259 534.5 c 128,-1,43
 247 562 247 562 227.5 571.5 c 128,-1,44
 208 581 208 581 184 581 c 0,45,46
 155 581 155 581 133.5 571.5 c 128,-1,47
 112 562 112 562 101 534.5 c 128,-1,48
 90 507 90 507 90 453 c 2,49,-1
 90 361 l 2,50,51
 90 336 90 336 96.5 313 c 128,-1,52
 103 290 103 290 123 275 c 128,-1,53
 143 260 143 260 181 260 c 0,37,38
EndSplineSet
EndChar

StartChar: notequal
Encoding: 8800 8800 461
Width: 384
GlyphClass: 1
Flags: W
LayerCount: 2
Fore
SplineSet
58 -44 m 1,0,-1
 304 470 l 1,1,-1
 339 470 l 1,2,-1
 90 -44 l 1,3,-1
 58 -44 l 1,0,-1
54 103 m 1,4,-1
 54 133 l 1,5,-1
 341 133 l 1,6,-1
 341 103 l 1,7,-1
 54 103 l 1,4,-1
54 295 m 1,8,-1
 54 324 l 1,9,-1
 341 324 l 1,10,-1
 341 295 l 1,11,-1
 54 295 l 1,8,-1
EndSplineSet
EndChar

StartChar: numbersign
Encoding: 35 35 463
Width: 569
GlyphClass: 1
Flags: W
LayerCount: 2
Fore
SplineSet
84 0 m 1,0,-1
 151 218 l 1,1,-1
 16 218 l 1,2,-1
 25 242 l 1,3,-1
 160 242 l 1,4,-1
 199 368 l 1,5,-1
 63 368 l 1,6,-1
 71 393 l 1,7,-1
 208 393 l 1,8,-1
 265 574 l 1,9,-1
 296 574 l 1,10,-1
 239 393 l 1,11,-1
 369 393 l 1,12,-1
 426 574 l 1,13,-1
 459 574 l 1,14,-1
 401 393 l 1,15,-1
 533 393 l 1,16,-1
 524 368 l 1,17,-1
 393 368 l 1,18,-1
 354 242 l 1,19,-1
 487 242 l 1,20,-1
 479 218 l 1,21,-1
 346 218 l 1,22,-1
 278 0 l 1,23,-1
 245 0 l 1,24,-1
 314 218 l 1,25,-1
 184 218 l 1,26,-1
 115 0 l 1,27,-1
 84 0 l 1,0,-1
321 242 m 1,28,-1
 361 368 l 1,29,-1
 231 368 l 1,30,-1
 191 242 l 1,31,-1
 321 242 l 1,28,-1
EndSplineSet
EndChar

StartChar: o
Encoding: 111 111 465
Width: 383
GlyphClass: 2
Flags: W
AnchorPoint: "Anchor-4" 191 235 basechar 0
AnchorPoint: "Anchor-3" 337 10 basechar 0
AnchorPoint: "Anchor-2" 226 470 basechar 0
AnchorPoint: "Anchor-1" 191 0 basechar 0
AnchorPoint: "Anchor-0" 191 470 basechar 0
LayerCount: 2
Fore
SplineSet
185 -4 m 0,0,1
 129 -4 129 -4 100 12 c 128,-1,2
 71 28 71 28 61 53 c 128,-1,3
 51 78 51 78 51 103 c 2,4,-1
 51 368 l 2,5,6
 51 394 51 394 61 418.5 c 128,-1,7
 71 443 71 443 101.5 459 c 128,-1,8
 132 475 132 475 192 475 c 0,9,10
 249 475 249 475 279 459.5 c 128,-1,11
 309 444 309 444 320.5 419.5 c 128,-1,12
 332 395 332 395 332 368 c 2,13,-1
 332 115 l 2,14,15
 332 83 332 83 320 56 c 128,-1,16
 308 29 308 29 276.5 12.5 c 128,-1,17
 245 -4 245 -4 185 -4 c 0,0,1
185 37 m 0,18,19
 232 37 232 37 257 56.5 c 128,-1,20
 282 76 282 76 282 119 c 2,21,-1
 282 360 l 2,22,23
 282 398 282 398 257.5 417 c 128,-1,24
 233 436 233 436 191 436 c 0,25,26
 150 436 150 436 125.5 417 c 128,-1,27
 101 398 101 398 101 360 c 2,28,-1
 101 112 l 2,29,30
 101 74 101 74 125 55.5 c 128,-1,31
 149 37 149 37 185 37 c 0,18,19
EndSplineSet
Substitution2: "Single Substitution lookup 23 subtable" ordmasculine
Substitution2: "'aalt' Access All Alternates in Latin lookup 0 subtable" ordmasculine
EndChar

StartChar: uni01D2
Encoding: 466 466 468
Width: 383
GlyphClass: 2
Flags: W
AnchorPoint: "Anchor-4" 191 235 basechar 0
AnchorPoint: "Anchor-3" 337 10 basechar 0
AnchorPoint: "Anchor-2" 226 470 basechar 0
AnchorPoint: "Anchor-1" 191 0 basechar 0
AnchorPoint: "Anchor-0" 191 629 basechar 0
LayerCount: 2
Fore
SplineSet
81 623 m 1,0,-1
 118 623 l 1,1,-1
 191 560 l 1,2,-1
 265 623 l 1,3,-1
 300 623 l 1,4,-1
 216 534 l 1,5,-1
 165 534 l 1,6,-1
 81 623 l 1,0,-1
185 -4 m 0,7,8
 129 -4 129 -4 100 12 c 128,-1,9
 71 28 71 28 61 53 c 128,-1,10
 51 78 51 78 51 103 c 2,11,-1
 51 368 l 2,12,13
 51 394 51 394 61 418.5 c 128,-1,14
 71 443 71 443 101.5 459 c 128,-1,15
 132 475 132 475 192 475 c 0,16,17
 249 475 249 475 279 459.5 c 128,-1,18
 309 444 309 444 320.5 419.5 c 128,-1,19
 332 395 332 395 332 368 c 2,20,-1
 332 115 l 2,21,22
 332 83 332 83 320 56 c 128,-1,23
 308 29 308 29 276.5 12.5 c 128,-1,24
 245 -4 245 -4 185 -4 c 0,7,8
185 37 m 0,25,26
 232 37 232 37 257 56.5 c 128,-1,27
 282 76 282 76 282 119 c 2,28,-1
 282 360 l 2,29,30
 282 398 282 398 257.5 417 c 128,-1,31
 233 436 233 436 191 436 c 0,32,33
 150 436 150 436 125.5 417 c 128,-1,34
 101 398 101 398 101 360 c 2,35,-1
 101 112 l 2,36,37
 101 74 101 74 125 55.5 c 128,-1,38
 149 37 149 37 185 37 c 0,25,26
EndSplineSet
EndChar

StartChar: uni0328
Encoding: 808 808 482
Width: 0
GlyphClass: 4
Flags: W
AnchorPoint: "Anchor-3" 191 10 mark 0
LayerCount: 2
Fore
SplineSet
80 -165 m 0,0,1
 48 -165 48 -165 28 -143.5 c 128,-1,2
 8 -122 8 -122 8 -88 c 0,3,4
 8 -62 8 -62 29.5 -33.5 c 128,-1,5
 51 -5 51 -5 99 10 c 1,6,-1
 128 7 l 1,7,8
 92 -8 92 -8 69 -30 c 128,-1,9
 46 -52 46 -52 46 -83 c 0,10,11
 46 -105 46 -105 60 -120.5 c 128,-1,12
 74 -136 74 -136 95 -136 c 0,13,14
 111 -136 111 -136 123.5 -132 c 128,-1,15
 136 -128 136 -128 149 -116 c 1,16,-1
 155 -141 l 1,17,18
 136 -154 136 -154 118.5 -159.5 c 128,-1,19
 101 -165 101 -165 80 -165 c 0,0,1
EndSplineSet
EndChar

StartChar: uni020F
Encoding: 527 527 492
Width: 383
GlyphClass: 2
Flags: W
AnchorPoint: "Anchor-4" 191 235 basechar 0
AnchorPoint: "Anchor-3" 337 10 basechar 0
AnchorPoint: "Anchor-2" 226 470 basechar 0
AnchorPoint: "Anchor-1" 191 0 basechar 0
AnchorPoint: "Anchor-0" 191 621 basechar 0
LayerCount: 2
Fore
SplineSet
189 622 m 0,0,1
 243 622 243 622 266.5 595 c 128,-1,2
 290 568 290 568 290 530 c 1,3,-1
 257 530 l 1,4,5
 257 557 257 557 242 575.5 c 128,-1,6
 227 594 227 594 189 594 c 0,7,8
 154 594 154 594 140 574.5 c 128,-1,9
 126 555 126 555 126 530 c 1,10,-1
 93 530 l 1,11,12
 93 551 93 551 101 572 c 128,-1,13
 109 593 109 593 130 607.5 c 128,-1,14
 151 622 151 622 189 622 c 0,0,1
185 -4 m 0,15,16
 129 -4 129 -4 100 12 c 128,-1,17
 71 28 71 28 61 53 c 128,-1,18
 51 78 51 78 51 103 c 2,19,-1
 51 368 l 2,20,21
 51 394 51 394 61 418.5 c 128,-1,22
 71 443 71 443 101.5 459 c 128,-1,23
 132 475 132 475 192 475 c 0,24,25
 249 475 249 475 279 459.5 c 128,-1,26
 309 444 309 444 320.5 419.5 c 128,-1,27
 332 395 332 395 332 368 c 2,28,-1
 332 115 l 2,29,30
 332 83 332 83 320 56 c 128,-1,31
 308 29 308 29 276.5 12.5 c 128,-1,32
 245 -4 245 -4 185 -4 c 0,15,16
185 37 m 0,33,34
 232 37 232 37 257 56.5 c 128,-1,35
 282 76 282 76 282 119 c 2,36,-1
 282 360 l 2,37,38
 282 398 282 398 257.5 417 c 128,-1,39
 233 436 233 436 191 436 c 0,40,41
 150 436 150 436 125.5 417 c 128,-1,42
 101 398 101 398 101 360 c 2,43,-1
 101 112 l 2,44,45
 101 74 101 74 125 55.5 c 128,-1,46
 149 37 149 37 185 37 c 0,33,34
EndSplineSet
EndChar

StartChar: one
Encoding: 49 49 494
Width: 269
GlyphClass: 1
Flags: W
LayerCount: 2
Fore
SplineSet
161 0 m 1,0,-1
 161 550 l 1,1,-1
 44 411 l 1,2,-1
 15 438 l 1,3,-1
 161 620 l 1,4,-1
 211 620 l 1,5,-1
 211 0 l 1,6,-1
 161 0 l 1,0,-1
EndSplineSet
Substitution2: "'sups' Superscript in Latin lookup 20 subtable" uni00B9
Substitution2: "'aalt' Access All Alternates in Latin lookup 0 subtable" uni00B9
EndChar

StartChar: uni00B9
Encoding: 185 185 497
Width: 300
GlyphClass: 1
Flags: W
LayerCount: 2
Fore
SplineSet
174 224 m 1,0,-1
 174 578 l 1,1,-1
 100 490 l 1,2,-1
 81 509 l 1,3,-1
 175 627 l 1,4,-1
 218 627 l 1,5,-1
 219 224 l 1,6,-1
 174 224 l 1,0,-1
EndSplineSet
EndChar

StartChar: ordfeminine
Encoding: 170 170 499
Width: 279
GlyphClass: 1
Flags: W
LayerCount: 2
Fore
SplineSet
96 350 m 2,0,1
 70 350 70 350 59 357 c 128,-1,2
 48 364 48 364 45.5 382 c 128,-1,3
 43 400 43 400 43 432 c 2,4,-1
 43 595 l 2,5,6
 43 619 43 619 48 632 c 128,-1,7
 53 645 53 645 69.5 650 c 128,-1,8
 86 655 86 655 117 655 c 2,9,-1
 237 655 l 1,10,-1
 237 350 l 1,11,-1
 197 350 l 1,12,-1
 197 626 l 1,13,-1
 119 626 l 2,14,15
 91 626 91 626 87 615.5 c 128,-1,16
 83 605 83 605 83 579 c 2,17,-1
 83 425 l 2,18,19
 83 397 83 397 88.5 388 c 128,-1,20
 94 379 94 379 115 379 c 2,21,-1
 178 379 l 1,22,-1
 174 350 l 1,23,-1
 96 350 l 2,0,1
EndSplineSet
EndChar

StartChar: ordmasculine
Encoding: 186 186 500
Width: 274
GlyphClass: 1
Flags: W
LayerCount: 2
Fore
SplineSet
132 345 m 0,0,1
 94 345 94 345 75 355.5 c 128,-1,2
 56 366 56 366 49.5 382 c 128,-1,3
 43 398 43 398 43 414 c 2,4,-1
 43 586 l 2,5,6
 43 603 43 603 49.5 618.5 c 128,-1,7
 56 634 56 634 76.5 644.5 c 128,-1,8
 97 655 97 655 137 655 c 0,9,10
 176 655 176 655 196 645 c 128,-1,11
 216 635 216 635 224 619 c 128,-1,12
 232 603 232 603 232 586 c 2,13,-1
 232 422 l 2,14,15
 232 401 232 401 223.5 383.5 c 128,-1,16
 215 366 215 366 194 355.5 c 128,-1,17
 173 345 173 345 132 345 c 0,0,1
133 374 m 0,18,19
 165 374 165 374 180 385.5 c 128,-1,20
 195 397 195 397 195 426 c 2,21,-1
 195 580 l 2,22,23
 195 605 195 605 180 616 c 128,-1,24
 165 627 165 627 137 627 c 0,25,26
 110 627 110 627 94.5 616 c 128,-1,27
 79 605 79 605 79 580 c 2,28,-1
 79 421 l 2,29,30
 79 396 79 396 94 385 c 128,-1,31
 109 374 109 374 133 374 c 0,18,19
EndSplineSet
EndChar

StartChar: oslash
Encoding: 248 248 501
Width: 355
GlyphClass: 2
Flags: W
AnchorPoint: "Anchor-0" 179 470 basechar 0
LayerCount: 2
Fore
SplineSet
171 -4 m 0,0,1
 115 -4 115 -4 86.5 12 c 128,-1,2
 58 28 58 28 47.5 53 c 128,-1,3
 37 78 37 78 37 103 c 2,4,-1
 37 366 l 2,5,6
 37 393 37 393 47.5 417.5 c 128,-1,7
 58 442 58 442 88.5 458 c 128,-1,8
 119 474 119 474 179 474 c 0,9,10
 236 474 236 474 266 458 c 128,-1,11
 296 442 296 442 307.5 417.5 c 128,-1,12
 319 393 319 393 319 367 c 2,13,-1
 319 115 l 2,14,15
 319 83 319 83 307.5 56 c 128,-1,16
 296 29 296 29 264 12.5 c 128,-1,17
 232 -4 232 -4 171 -4 c 0,0,1
171 37 m 0,18,19
 218 37 218 37 243.5 56.5 c 128,-1,20
 269 76 269 76 269 119 c 2,21,-1
 269 358 l 2,22,23
 269 396 269 396 244.5 415.5 c 128,-1,24
 220 435 220 435 179 435 c 256,25,26
 138 435 138 435 112.5 416 c 128,-1,27
 87 397 87 397 87 358 c 2,28,-1
 87 112 l 2,29,30
 87 74 87 74 111.5 55.5 c 128,-1,31
 136 37 136 37 171 37 c 0,18,19
28 -96 m 1,32,-1
 11 -94 l 1,33,-1
 331 572 l 1,34,-1
 348 570 l 1,35,-1
 28 -96 l 1,32,-1
EndSplineSet
EndChar

StartChar: p
Encoding: 112 112 505
Width: 395
GlyphClass: 1
Flags: W
LayerCount: 2
Fore
SplineSet
60 470 m 1,0,-1
 263 470 l 2,1,2
 302 470 302 470 318 460 c 128,-1,3
 334 450 334 450 337.5 421.5 c 128,-1,4
 341 393 341 393 341 339 c 2,5,-1
 341 93 l 2,6,7
 341 54 341 54 333 34 c 128,-1,8
 325 14 325 14 302 7 c 128,-1,9
 279 0 279 0 234 0 c 2,10,-1
 110 0 l 1,11,-1
 110 -159 l 1,12,-1
 60 -159 l 1,13,-1
 60 470 l 1,0,-1
110 429 m 1,14,-1
 110 41 l 1,15,-1
 237 41 l 2,16,17
 265 41 265 41 276 48 c 128,-1,18
 287 55 287 55 289 72 c 128,-1,19
 291 89 291 89 291 117 c 2,20,-1
 291 355 l 2,21,22
 291 386 291 386 287.5 402 c 128,-1,23
 284 418 284 418 274 423.5 c 128,-1,24
 264 429 264 429 242 429 c 2,25,-1
 110 429 l 1,14,-1
EndSplineSet
EndChar

StartChar: paragraph
Encoding: 182 182 506
Width: 406
GlyphClass: 1
Flags: W
LayerCount: 2
Fore
SplineSet
196 -115 m 1,0,-1
 196 230 l 1,1,-1
 119 230 l 2,2,3
 62 230 62 230 37 249.5 c 128,-1,4
 12 269 12 269 6 300.5 c 128,-1,5
 0 332 0 332 0 368 c 2,6,-1
 0 524 l 2,7,8
 0 556 0 556 6.5 577.5 c 128,-1,9
 13 599 13 599 34 609.5 c 128,-1,10
 55 620 55 620 97 620 c 2,11,-1
 247 620 l 1,12,-1
 247 -115 l 1,13,-1
 196 -115 l 1,0,-1
301 620 m 1,14,-1
 342 620 l 1,15,-1
 342 -115 l 1,16,-1
 301 -115 l 1,17,-1
 301 620 l 1,14,-1
143 585 m 1,18,-1
 143 620 l 1,19,-1
 315 620 l 1,20,-1
 315 585 l 1,21,-1
 143 585 l 1,18,-1
EndSplineSet
EndChar

StartChar: parenleft
Encoding: 40 40 507
Width: 377
GlyphClass: 1
Flags: W
LayerCount: 2
Fore
SplineSet
301 -119 m 1,0,1
 240 -116 240 -116 191.5 -84 c 128,-1,2
 143 -52 143 -52 109 0 c 128,-1,3
 75 52 75 52 56.5 117.5 c 128,-1,4
 38 183 38 183 38 253 c 0,5,6
 38 331 38 331 58.5 405 c 128,-1,7
 79 479 79 479 115.5 538 c 128,-1,8
 152 597 152 597 202 633 c 128,-1,9
 252 669 252 669 312 672 c 1,10,-1
 312 647 l 1,11,12
 267 644 267 644 231 618.5 c 128,-1,13
 195 593 195 593 168 552.5 c 128,-1,14
 141 512 141 512 122.5 462 c 128,-1,15
 104 412 104 412 95 358.5 c 128,-1,16
 86 305 86 305 86 255 c 0,17,18
 86 195 86 195 98.5 136 c 128,-1,19
 111 77 111 77 137.5 27 c 128,-1,20
 164 -23 164 -23 204.5 -56 c 128,-1,21
 245 -89 245 -89 301 -95 c 1,22,-1
 301 -119 l 1,0,1
EndSplineSet
EndChar

StartChar: parenright
Encoding: 41 41 508
Width: 377
GlyphClass: 1
Flags: W
LayerCount: 2
Fore
SplineSet
76 673 m 1,0,1
 137 669 137 669 185.5 637.5 c 128,-1,2
 234 606 234 606 268 554 c 128,-1,3
 302 502 302 502 320 437 c 128,-1,4
 338 372 338 372 338 301 c 0,5,6
 338 223 338 223 318 149 c 128,-1,7
 298 75 298 75 261.5 16 c 128,-1,8
 225 -43 225 -43 175 -79.5 c 128,-1,9
 125 -116 125 -116 65 -118 c 1,10,-1
 65 -93 l 1,11,12
 109 -90 109 -90 145 -64.5 c 128,-1,13
 181 -39 181 -39 208.5 1.5 c 128,-1,14
 236 42 236 42 254 92 c 128,-1,15
 272 142 272 142 281.5 195.5 c 128,-1,16
 291 249 291 249 291 298 c 0,17,18
 291 359 291 359 278 418 c 128,-1,19
 265 477 265 477 239 527 c 128,-1,20
 213 577 213 577 172.5 610 c 128,-1,21
 132 643 132 643 76 649 c 1,22,-1
 76 673 l 1,0,1
EndSplineSet
EndChar

